<svg width="40" height="40" viewBox="0 0 40 40" fill="none" xmlns="http://www.w3.org/2000/svg">
<rect width="40" height="40" fill="white" fill-opacity="0.2"/>
<path fill-rule="evenodd" clip-rule="evenodd" d="M7.16501 21.1945C6.50225 20.5454 6.50335 19.4834 7.15177 18.8358V18.8192L13.8136 12.1658C14.4631 11.5004 15.5123 11.5004 16.1785 12.1658C16.828 12.8145 16.828 13.8624 16.1785 14.5277L12.3479 18.3535H31.6679C32.5839 18.3535 33.3334 19.0854 33.3334 20.0168C33.3334 20.9317 32.5839 21.6802 31.6679 21.6802H12.3812L16.1932 25.4874C16.8427 26.1195 16.8427 27.184 16.1932 27.8327H16.1766C15.8601 28.1322 15.4271 28.3151 14.9941 28.3151L15.0124 28.3334C14.5627 28.3334 14.1297 28.1504 13.8299 27.851L7.16816 21.1976C7.16711 21.1966 7.16606 21.1955 7.16501 21.1945Z" fill="#9CA3AF"/>
</svg>
