<svg width="40" height="40" viewBox="0 0 40 40" fill="none" xmlns="http://www.w3.org/2000/svg">
<rect width="40" height="40" fill="white" fill-opacity="0.2"/>
<path fill-rule="evenodd" clip-rule="evenodd" d="M27.6338 18.3533L23.8171 14.5443V14.5277C23.1504 13.8623 23.1504 12.8144 23.8171 12.1657C24.4671 11.5004 25.5171 11.5004 26.1837 12.1657L32.8504 18.819C33.2435 19.2013 33.3989 19.7418 33.3165 20.2528C33.2525 20.6969 33.011 21.0859 32.6666 21.3451L26.1659 27.8328C25.8493 28.1322 25.4159 28.3151 24.9826 28.3151L24.9993 28.3334C24.5493 28.3334 24.1159 28.1505 23.8159 27.8511C23.1493 27.2024 23.1493 26.1378 23.7993 25.4891V25.4725L27.5994 21.68H8.33335C7.40002 21.68 6.66669 20.9315 6.66669 20.0166C6.66669 19.0852 7.40002 18.3533 8.33335 18.3533H27.6338Z" fill="#2563EB"/>
</svg>
