<svg width="16" height="16" viewBox="0 0 16 16" fill="none" xmlns="http://www.w3.org/2000/svg">
<path fill-rule="evenodd" clip-rule="evenodd" d="M1.33337 7.99998C1.33337 4.31808 4.31814 1.33331 8.00004 1.33331C11.6819 1.33331 14.6667 4.31808 14.6667 7.99998C14.6667 11.6819 11.6819 14.6666 8.00004 14.6666C4.31814 14.6666 1.33337 11.6819 1.33337 7.99998ZM2.66671 7.99998C2.66671 10.9455 5.05452 13.3333 8.00004 13.3333C10.9456 13.3333 13.3334 10.9455 13.3334 7.99998C13.3334 5.05446 10.9456 2.66665 8.00004 2.66665C5.05452 2.66665 2.66671 5.05446 2.66671 7.99998ZM8.47144 10.1952C8.73179 10.4556 8.73179 10.8777 8.47144 11.1381C8.21109 11.3984 7.78898 11.3984 7.52863 11.1381C7.26829 10.8777 7.26829 10.4556 7.52863 10.1952C7.78898 9.9349 8.21109 9.9349 8.47144 10.1952ZM7.33337 5.33331C7.33337 4.96512 7.63185 4.66665 8.00004 4.66665C8.36823 4.66665 8.66671 4.96512 8.66671 5.33331V8.66665C8.66671 9.03484 8.36823 9.33331 8.00004 9.33331C7.63185 9.33331 7.33337 9.03484 7.33337 8.66665V5.33331Z" fill="#DC2626"/>
</svg>
