<svg width="32" height="32" viewBox="0 0 32 32" fill="none" xmlns="http://www.w3.org/2000/svg">
<g clip-path="url(#clip0_865_798)">
<path d="M29.5573 0.539293C25.5624 0.817115 21.6831 1.06663 18.1355 1.0725L15.1537 1.06932L14.2472 0.162801C14.1133 0.0242025 13.9151 -0.0314119 13.7286 0.0173913C13.5421 0.0661946 13.3966 0.211792 13.3478 0.398194C13.299 0.584659 13.3546 0.782871 13.4932 0.916783L13.6446 1.06819H13.3337C10.0149 1.07244 6.84965 0.849546 3.50197 0.614403L2.40781 0.539293C1.01276 0.622402 -0.0577886 1.80918 0.00294989 3.20548C-0.0534144 4.6139 1.03663 5.80423 2.44461 5.8716L3.52228 5.7948C6.8614 5.56015 10.0176 5.33832 13.3337 5.33832H13.6467L13.4905 5.49454C13.3519 5.62839 13.2963 5.82667 13.3451 6.01313C13.3939 6.1996 13.5395 6.34513 13.7259 6.39393C13.9123 6.44274 14.1106 6.38712 14.2445 6.24852L15.1547 5.33832H18.1328C21.8969 5.33832 26.1431 5.6332 29.5946 5.87153C30.9878 5.78505 32.0556 4.5999 31.9969 3.20535C32.0571 1.79637 30.9662 0.604093 29.5573 0.539293V0.539293ZM11.8188 3.9584C11.46 3.8866 11.2016 3.57147 11.2016 3.20548C11.2016 2.83948 11.46 2.52435 11.8188 2.45256L13.4127 2.13262H14.4002V4.27196H13.3871L11.8188 3.9584ZM15.4667 2.13899H17.0664V4.2719H15.4667V2.13899ZM19.6477 3.96102L18.1328 4.26121V2.14968L19.6477 2.45256C20.0066 2.52435 20.2649 2.83948 20.2649 3.20548C20.2649 3.57147 20.0066 3.8866 19.6477 3.9584V3.96102ZM3.44498 4.731L2.41049 4.80511C1.60477 4.72169 1.01095 4.01338 1.06944 3.20541C1.00782 2.41075 1.57996 1.70732 2.3705 1.60572L3.42736 1.67933C5.84715 1.84942 8.15872 2.01045 10.5231 2.08669C10.0069 2.744 10.0069 3.66895 10.5231 4.32626C8.1694 4.40256 5.85465 4.56197 3.44498 4.731V4.731ZM29.6293 4.80517C27.0277 4.62439 23.9445 4.41112 20.9472 4.31833C21.4599 3.66358 21.4599 2.74363 20.9472 2.08887C23.72 2.00195 26.6352 1.81105 29.593 1.60472C30.3994 1.68683 30.993 2.39732 30.9304 3.20548C30.989 3.99914 30.4183 4.70082 29.6293 4.80517V4.80517Z" fill="#2563EB"/>
<path d="M29.5573 8.00456C25.5624 8.28239 21.6831 8.5319 18.1355 8.53778L15.1537 8.53459L14.2472 7.62807C14.1133 7.48947 13.9151 7.43386 13.7286 7.48266C13.5421 7.53147 13.3966 7.67706 13.3478 7.86346C13.299 8.04987 13.3546 8.24814 13.4932 8.38205L13.6446 8.53346H13.3337C10.0154 8.53771 6.85015 8.31588 3.50254 8.08074L2.40781 8.0045C1.0127 8.08761 -0.0577885 9.27445 0.00295003 10.6707C-0.0534143 12.0791 1.03669 13.2694 2.44461 13.3369L3.52228 13.2601C6.07436 13.0809 8.51921 12.9108 11.0089 12.8399L8.7906 16.003H5.86853C4.3968 16.0048 3.20416 17.1974 3.20234 18.6692V29.3338C3.20409 30.8056 4.39674 31.9982 5.86853 32H26.1314C27.6031 31.9983 28.7957 30.8056 28.7976 29.3338V18.6692C28.7958 17.1974 27.6032 16.0048 26.1314 16.003H23.2098L21.0054 12.8526C23.9558 12.9465 27 13.1576 29.5947 13.3368C30.9878 13.2503 32.0556 12.0652 31.9969 10.6706C32.0571 9.26164 30.9662 8.06936 29.5573 8.00456V8.00456ZM13.3871 11.7372L11.8188 11.4236C11.46 11.3518 11.2016 11.0367 11.2016 10.6707C11.2016 10.3047 11.46 9.98956 11.8188 9.91776L13.4127 9.59782H14.4002V11.7372H13.3871ZM15.4667 9.60426H17.0664V11.7372H15.4667V9.60426ZM19.6477 11.4263L18.1328 11.7265V9.61488L19.6477 9.91776C20.0066 9.98956 20.2649 10.3047 20.2649 10.6707C20.2649 11.0367 20.0066 11.3518 19.6477 11.4236V11.4263ZM3.44498 12.1963L2.41049 12.2704C1.60477 12.187 1.01095 11.4786 1.06944 10.6707C1.00782 9.87602 1.57996 9.17259 2.3705 9.07099L3.42736 9.1446C5.84715 9.31469 8.15822 9.47628 10.5226 9.55252C10.0064 10.2098 10.0064 11.1348 10.5226 11.7921C8.1694 11.8678 5.85465 12.0272 3.44498 12.1963ZM27.731 18.6692V29.3338C27.731 30.2173 27.0148 30.9335 26.1313 30.9335H5.86853C4.98507 30.9335 4.26883 30.2173 4.26883 29.3338V18.6692C4.26883 17.7857 4.98507 17.0695 5.86853 17.0695H26.1314C27.0148 17.0695 27.731 17.7857 27.731 18.6692V18.6692ZM21.9081 16.003H10.0922L12.3206 12.8197C12.6582 12.8148 12.9919 12.8037 13.3337 12.8037H13.6467L13.4905 12.9599C13.3519 13.0938 13.2963 13.292 13.3451 13.4785C13.3939 13.6649 13.5395 13.8105 13.7259 13.8593C13.9123 13.9081 14.1106 13.8525 14.2445 13.7139L15.1547 12.8037H18.1328C18.6405 12.8037 19.1583 12.81 19.6792 12.8197L21.9081 16.003ZM29.6293 12.2704C27.0277 12.0896 23.9445 11.8763 20.9472 11.7835C21.4599 11.1288 21.4599 10.2088 20.9472 9.55408C23.72 9.46716 26.6352 9.27626 29.593 9.06992C30.3994 9.15203 30.993 9.86252 30.9304 10.6707C30.989 11.4644 30.4183 12.166 29.6293 12.2704V12.2704Z" fill="#2563EB"/>
<path fill-rule="evenodd" clip-rule="evenodd" d="M13.3338 26.1345H14.9335C15.228 26.1345 15.4667 25.8957 15.4667 25.6012C15.4667 25.3067 15.228 25.068 14.9335 25.068H13.3338V23.4683H14.4003C14.6948 23.4683 14.9335 23.2296 14.9335 22.9351C14.9335 22.6406 14.6947 22.4019 14.4003 22.4019H13.3338V20.8022H14.9335C15.228 20.8022 15.4667 20.5635 15.4667 20.269C15.4667 19.9745 15.228 19.7358 14.9335 19.7358H13.3338C12.7448 19.7358 12.2673 20.2133 12.2673 20.8023V25.0681C12.2674 25.657 12.7449 26.1345 13.3338 26.1345V26.1345Z" fill="#2563EB"/>
<path fill-rule="evenodd" clip-rule="evenodd" d="M17.0664 26.1344C17.361 26.1344 17.5997 25.8957 17.5997 25.6012V22.5276L19.2527 25.8396C19.3615 26.0643 19.6117 26.1834 19.8547 26.1263C20.0978 26.0691 20.2687 25.8509 20.2658 25.6012V20.2689C20.2658 19.9744 20.0271 19.7357 19.7326 19.7357C19.4381 19.7357 19.1994 19.9744 19.1994 20.2689V23.3425L17.5464 20.0305C17.4376 19.8058 17.1874 19.6867 16.9443 19.7438C16.7013 19.801 16.5304 20.0192 16.5332 20.2689V25.6012C16.5332 25.8957 16.7719 26.1344 17.0664 26.1344Z" fill="#2563EB"/>
<path fill-rule="evenodd" clip-rule="evenodd" d="M21.8656 20.8021H22.3988V25.6012C22.3988 25.8957 22.6375 26.1345 22.932 26.1345C23.2265 26.1345 23.4652 25.8957 23.4652 25.6012V20.8021H23.9984C24.2929 20.8021 24.5316 20.5634 24.5316 20.2689C24.5316 19.9744 24.2929 19.7357 23.9984 19.7357H21.8655C21.571 19.7357 21.3323 19.9744 21.3323 20.2689C21.3323 20.5634 21.571 20.8021 21.8656 20.8021V20.8021Z" fill="#2563EB"/>
<path fill-rule="evenodd" clip-rule="evenodd" d="M7.46827 28.2674H24.5317C24.8262 28.2674 25.0649 28.0286 25.0649 27.7341C25.0649 27.4396 24.8262 27.2009 24.5317 27.2009H7.46827C7.17376 27.2009 6.93506 27.4396 6.93506 27.7341C6.93506 28.0286 7.17376 28.2674 7.46827 28.2674V28.2674Z" fill="#2563EB"/>
<path d="M8.00135 26.1344C8.29586 26.1344 8.53457 25.8957 8.53457 25.6012V23.4683H9.06778C9.36228 23.4683 9.60099 23.707 9.60099 24.0015V25.6012C9.60099 25.8957 9.83976 26.1344 10.1342 26.1344C10.4287 26.1344 10.6674 25.8957 10.6674 25.6012V24.0015C10.6671 23.6903 10.5755 23.3862 10.404 23.1265C11.0717 22.6605 11.3593 21.8148 11.1144 21.0383C10.8694 20.2617 10.1486 19.7343 9.33435 19.7357H8.5345C7.94549 19.7357 7.46802 20.2131 7.46802 20.8021V25.6012C7.46802 25.7426 7.52419 25.8783 7.62418 25.9783C7.72428 26.0783 7.85994 26.1344 8.00135 26.1344V26.1344ZM8.53457 20.8021H9.33441C9.77614 20.8021 10.1343 21.1603 10.1343 21.602C10.1343 22.0437 9.77614 22.4018 9.33441 22.4018H8.53457V20.8021Z" fill="#2563EB"/>
</g>
<defs>
<clipPath id="clip0_865_798">
<rect width="32" height="32" fill="white"/>
</clipPath>
</defs>
</svg>
