<svg width="32" height="32" viewBox="0 0 32 32" fill="none" xmlns="http://www.w3.org/2000/svg">
<g clip-path="url(#clip0_865_279)">
<path d="M29.8667 12.8533V12.2666C29.8667 11.383 29.1503 10.6666 28.2667 10.6666H26.1334C25.2498 10.6666 24.5334 11.383 24.5334 12.2666V12.7999H23.0694L18.2187 3.84319C18.0184 3.46431 17.6248 3.22744 17.1963 3.22775H17.1904C16.7591 3.22888 16.3626 3.46444 16.1553 3.84269L14.527 6.83738L11.12 0.616562C10.9152 0.236687 10.5184 -6.24876e-05 10.0869 1.23716e-08H10.08C9.64831 0.00193751 9.2525 0.240812 9.04963 0.621875L1.28 14.9333H0.533312C0.23875 14.9333 0 15.1721 0 15.4666C0 15.7613 0.238813 16 0.533312 16H6.4V29.3333C6.40175 30.8053 7.59463 31.9982 9.06669 32H29.3334C30.8054 31.9982 31.9982 30.8054 32.0001 29.3333V15.4667C31.9984 14.1999 31.1074 13.1085 29.8667 12.8533V12.8533ZM25.6 12.2667C25.6 11.9721 25.8387 11.7334 26.1333 11.7334H28.2666C28.5612 11.7334 28.7999 11.9722 28.7999 12.2667V12.8H25.5999V12.2667H25.6ZM12.8 12.8H9.6V12.2667C9.6 11.9721 9.83881 11.7334 10.1333 11.7334H12.2666C12.5612 11.7334 12.7999 11.9722 12.7999 12.2667V12.8H12.8ZM11.7333 13.8667V30.9334H10.6666V13.8667H11.7333ZM12.8 13.8667H25.6V30.9334H12.8V13.8667ZM26.6667 13.8667H27.7334V30.9334H26.6667V13.8667ZM17.7931 12.8L16.4416 10.3328L17.1024 9.63094C17.1216 9.60625 17.1512 9.59181 17.1824 9.59181C17.2137 9.59181 17.2433 9.60625 17.2624 9.63094L19.0059 11.3846C19.2287 11.5977 19.5252 11.7167 19.8336 11.7168C20.0799 11.7172 20.3202 11.6403 20.5206 11.4971L20.9739 11.1771L21.8571 12.8H17.7931ZM17.0907 4.35575C17.1096 4.318 17.1482 4.29425 17.1904 4.29444C17.2289 4.29387 17.264 4.31606 17.2801 4.351L20.4641 10.2289L19.9035 10.6278C19.8584 10.6609 19.7965 10.6584 19.7542 10.6219L18.0198 8.87737C17.5486 8.42481 16.8028 8.42981 16.3377 8.88856L15.903 9.34988L15.1366 7.95044L17.0907 4.35575ZM9.99094 1.12531C10.0084 1.08862 10.0458 1.06562 10.0864 1.06662C10.1275 1.06581 10.1652 1.0895 10.1824 1.12688L13.8186 7.76581L12.7946 8.49756C12.7513 8.52712 12.6933 8.52319 12.6544 8.48794L10.9152 6.74394C10.4517 6.286 9.70613 6.286 9.24263 6.74394L7.52 8.48C7.47969 8.52244 7.41437 8.529 7.36637 8.49544L6.37494 7.78662L9.99094 1.12531ZM5.86237 8.73225L6.74181 9.35944C7.211 9.69644 7.85481 9.64619 8.26606 9.2405L9.99463 7.50131C10.0402 7.45581 10.1134 7.45419 10.161 7.49756L11.9044 9.24638C12.126 9.46338 12.4236 9.58513 12.7338 9.58556C12.9801 9.58588 13.2201 9.50781 13.4191 9.36263L14.3353 8.70769L16.5764 12.7999H13.8665V12.2666C13.8665 11.383 13.1501 10.6666 12.2665 10.6666H10.1332C9.2495 10.6666 8.53319 11.383 8.53319 12.2666V12.8533C7.48669 13.0691 6.66894 13.8868 6.45319 14.9333H2.49656L5.86237 8.73225ZM7.46669 29.3333V15.4667C7.46669 14.5831 8.18306 13.8667 9.06669 13.8667H9.6V30.9334H9.06669C8.183 30.9333 7.46669 30.217 7.46669 29.3333ZM30.9333 29.3333C30.9333 30.2169 30.2169 30.9333 29.3333 30.9333H28.8V13.8667H29.3333C30.2169 13.8667 30.9333 14.5831 30.9333 15.4667V29.3333Z" fill="#2563EB"/>
<path d="M21.8667 21.3333H20.2667V19.7333C20.2667 19.1442 19.7891 18.6666 19.2 18.6666H18.1333C17.5442 18.6666 17.0666 19.1442 17.0666 19.7333V21.3333H15.4666C14.8775 21.3333 14.3999 21.8109 14.3999 22.4V23.4667C14.3999 24.0558 14.8775 24.5334 15.4666 24.5334H17.0666V26.1334C17.0666 26.7225 17.5442 27.2001 18.1333 27.2001H19.2C19.7891 27.2001 20.2667 26.7225 20.2667 26.1334V24.5334H21.8667C22.4558 24.5334 22.9333 24.0558 22.9333 23.4667V22.4C22.9333 21.8109 22.4557 21.3333 21.8667 21.3333ZM21.8667 23.4667H19.7333C19.4388 23.4667 19.2 23.7055 19.2 24V26.1333H18.1333V24C18.1333 23.7054 17.8945 23.4667 17.6 23.4667H15.4667V22.4H17.6C17.8945 22.4 18.1333 22.1612 18.1333 21.8667V19.7334H19.2V21.8667C19.2 22.1613 19.4388 22.4 19.7333 22.4H21.8666V23.4667H21.8667Z" fill="#2563EB"/>
</g>
<defs>
<clipPath id="clip0_865_279">
<rect width="32" height="32" fill="white"/>
</clipPath>
</defs>
</svg>
