<svg width="32" height="32" viewBox="0 0 32 32" fill="none" xmlns="http://www.w3.org/2000/svg">
<path d="M26.6665 16.9239V3.73323C26.6152 1.69309 24.9734 0.0513739 22.9333 0C20.8726 0.00262494 19.2027 1.67253 19.2001 3.73323V8.16351C17.1009 6.0025 14.213 4.78821 11.2002 4.79983C5.01482 4.79983 0.000488281 9.81416 0.000488281 15.9996C0.000488281 22.185 5.01482 27.1994 11.2002 27.1994C12.6073 27.2033 14.0021 26.9389 15.31 26.4202C16.4033 29.8645 19.6697 32.1482 23.2799 31.9924C26.8902 31.8366 29.9477 29.2799 30.7401 25.7543C31.5325 22.2286 29.863 18.6095 26.6665 16.9239ZM11.2002 26.1328C6.45547 26.1349 2.34456 22.8443 1.30752 18.2143C0.270482 13.5843 2.58512 8.85462 6.87746 6.83267C11.1698 4.81071 16.2904 6.03793 19.2 9.78592V16.9239C18.3402 17.3815 17.5714 17.9924 16.9312 18.7265L13.245 16.5746C13.363 16.2004 13.363 15.7989 13.245 15.4247L15.863 13.8968L17.8667 14.4333C17.9119 14.4458 17.9585 14.4521 18.0054 14.452C18.273 14.4519 18.4991 14.2534 18.5339 13.9881C18.5687 13.7228 18.4015 13.4727 18.143 13.4035L17.1601 13.14L17.8688 12.7267C18.0452 12.6372 18.1575 12.4574 18.1606 12.2596C18.1637 12.0619 18.0571 11.8786 17.8837 11.7836C17.7102 11.6885 17.4984 11.6972 17.3334 11.8062L16.6801 12.187L16.9222 11.2857C16.9968 11.0018 16.8279 10.711 16.5443 10.635C16.2606 10.5591 15.9691 10.7267 15.8918 11.01L15.3713 12.9507L12.7164 14.4974C12.4448 14.2271 12.1052 14.0353 11.7335 13.9422V10.8873L13.1772 9.44361C13.3793 9.23436 13.3764 8.90168 13.1707 8.696C12.965 8.49026 12.6323 8.48738 12.4231 8.6895L11.7335 9.37911V8.53325C11.7335 8.2387 11.4947 7.99995 11.2002 7.99995C10.9056 7.99995 10.6669 8.23876 10.6669 8.53325V9.37911L9.97727 8.6895C9.76803 8.48738 9.43535 8.49026 9.22966 8.696C9.02392 8.90175 9.02104 9.23436 9.22316 9.44361L10.6669 10.8873V13.9422C10.2957 14.0363 9.9569 14.2288 9.68609 14.4995L7.03121 12.9528L6.51066 11.012C6.43347 10.7288 6.14186 10.5612 5.85824 10.6371C5.57462 10.713 5.40568 11.0038 5.48024 11.2878L5.72236 12.1891L5.06694 11.8061C4.81551 11.6838 4.51233 11.7764 4.37221 12.0184C4.23208 12.2603 4.30252 12.5694 4.53364 12.7267L5.24244 13.14L4.25952 13.4034C3.99934 13.4708 3.83003 13.7213 3.8644 13.9879C3.89878 14.2545 4.12621 14.4538 4.39496 14.453C4.44183 14.4531 4.48845 14.4468 4.53364 14.4343L6.53735 13.8978L9.15541 15.4257C9.03735 15.7999 9.03735 16.2014 9.15541 16.5756L6.53735 18.1035L4.53364 17.5659C4.34771 17.5106 4.14646 17.5606 4.00803 17.6966C3.86959 17.8324 3.81584 18.0327 3.86772 18.2197C3.91953 18.4066 4.06877 18.5506 4.2574 18.5958L5.24031 18.8592L4.53364 19.2725C4.35402 19.3599 4.23827 19.5403 4.23371 19.7401C4.22921 19.9398 4.33664 20.1253 4.51214 20.2207C4.68764 20.3161 4.90176 20.3054 5.06688 20.1931L5.72018 19.8123L5.47806 20.7136C5.40206 20.9979 5.5708 21.2901 5.85511 21.3664C5.9003 21.3788 5.94692 21.3851 5.9938 21.385C6.2351 21.3848 6.44616 21.2225 6.50847 20.9893L7.02902 19.0485L9.6839 17.5019C9.95552 17.7721 10.2951 17.964 10.6668 18.0571V21.1119L9.2231 22.5556C9.02098 22.7649 9.02385 23.0976 9.2296 23.3032C9.43535 23.509 9.76796 23.5119 9.97721 23.3097L10.6668 22.6201V23.466C10.6668 23.7606 10.9056 23.9993 11.2001 23.9993C11.4947 23.9993 11.7334 23.7605 11.7334 23.466V22.6201L12.423 23.3097C12.6323 23.5119 12.965 23.509 13.1706 23.3032C13.3764 23.0975 13.3793 22.7649 13.1771 22.5556L11.7334 21.1119V18.0571C12.1046 17.963 12.4434 17.7704 12.7142 17.4998L16.2789 19.5797C15.1332 21.272 14.6948 23.3454 15.0577 25.3566C13.8361 25.8689 12.5248 26.1327 11.2002 26.1328V26.1328ZM11.2002 17.0663C10.6111 17.0663 10.1335 16.5888 10.1335 15.9997C10.1335 15.4105 10.6111 14.933 11.2002 14.933C11.7893 14.933 12.2668 15.4105 12.2668 15.9997C12.2668 16.5888 11.7893 17.0663 11.2002 17.0663ZM22.9333 30.9326C19.6905 30.933 16.8806 28.6856 16.1685 25.5219C15.4564 22.3582 17.0324 19.1236 19.9627 17.7346C20.1479 17.6464 20.2661 17.4597 20.2667 17.2546V3.73323C20.2684 2.26126 21.4613 1.06841 22.9333 1.0666C24.3828 1.12135 25.5452 2.28376 25.5999 3.73323V17.2529C25.6005 17.4581 25.7187 17.6447 25.9039 17.7329C28.8361 19.121 30.4138 22.3567 29.7015 25.5217C28.9892 28.6867 26.1774 30.9346 22.9333 30.9326V30.9326Z" fill="#2563EB"/>
<path d="M24.5332 18.3543V11.7331C24.5217 10.8542 23.8121 10.1446 22.9332 10.1331C22.0496 10.1331 21.3332 10.8495 21.3332 11.7331V18.3543C18.5163 19.1528 16.7194 21.9061 17.1225 24.8061C17.5256 27.7061 20.0053 29.8649 22.9332 29.8649C25.8611 29.8649 28.3408 27.7061 28.7439 24.8061C29.1469 21.9061 27.3501 19.1528 24.5332 18.3543V18.3543ZM22.9332 28.7994C20.4672 28.8019 18.4006 26.9354 18.1528 24.4819C17.905 22.0284 19.5566 19.7863 21.9732 19.2956C22.2216 19.2449 22.3999 19.0264 22.3999 18.7729V11.7331C22.3999 11.4385 22.6386 11.1998 22.9332 11.1998C23.223 11.211 23.4553 11.4433 23.4665 11.7331V18.7729C23.4664 19.0264 23.6448 19.2449 23.8932 19.2956C26.3098 19.7863 27.9615 22.0284 27.7136 24.4819C27.4658 26.9354 25.3991 28.8019 22.9332 28.7994V28.7994Z" fill="#2563EB"/>
<path fill-rule="evenodd" clip-rule="evenodd" d="M23.68 20.3408C23.3913 20.2819 23.1096 20.4682 23.0507 20.7568C22.9917 21.0455 23.178 21.3273 23.4667 21.3861C24.7065 21.6428 25.5967 22.7333 25.5999 23.9994C25.5999 24.2939 25.8388 24.5327 26.1332 24.5327C26.4278 24.5327 26.6665 24.2939 26.6665 23.9994C26.6624 22.2268 25.4159 20.6998 23.68 20.3408Z" fill="#2563EB"/>
<path fill-rule="evenodd" clip-rule="evenodd" d="M31.4664 2.13324H28.2665C27.9719 2.13324 27.7332 2.37205 27.7332 2.66654C27.7332 2.96103 27.972 3.19984 28.2665 3.19984H31.4664C31.7609 3.19984 31.9997 2.96103 31.9997 2.66654C31.9997 2.37205 31.7609 2.13324 31.4664 2.13324Z" fill="#2563EB"/>
<path fill-rule="evenodd" clip-rule="evenodd" d="M28.2665 5.33314H30.3997C30.6943 5.33314 30.933 5.0944 30.933 4.79984C30.933 4.50529 30.6943 4.26654 30.3997 4.26654H28.2665C27.9719 4.26654 27.7332 4.50535 27.7332 4.79984C27.7332 5.0944 27.9719 5.33314 28.2665 5.33314Z" fill="#2563EB"/>
<path fill-rule="evenodd" clip-rule="evenodd" d="M31.4664 6.39984H28.2665C27.9719 6.39984 27.7332 6.63865 27.7332 6.93314C27.7332 7.2277 27.972 7.46645 28.2665 7.46645H31.4664C31.7609 7.46645 31.9997 7.22764 31.9997 6.93314C31.9997 6.63865 31.7609 6.39984 31.4664 6.39984Z" fill="#2563EB"/>
<path fill-rule="evenodd" clip-rule="evenodd" d="M28.2665 9.59974H30.3997C30.6943 9.59974 30.933 9.36094 30.933 9.06644C30.933 8.77189 30.6943 8.53314 30.3997 8.53314H28.2665C27.9719 8.53314 27.7332 8.77195 27.7332 9.06644C27.7332 9.36094 27.9719 9.59974 28.2665 9.59974Z" fill="#2563EB"/>
<path fill-rule="evenodd" clip-rule="evenodd" d="M31.4664 10.6664H28.2665C27.9719 10.6664 27.7332 10.9052 27.7332 11.1997C27.7332 11.4942 27.972 11.733 28.2665 11.733H31.4664C31.7609 11.733 31.9997 11.4943 31.9997 11.1997C31.9997 10.9052 31.7609 10.6664 31.4664 10.6664Z" fill="#2563EB"/>
<path fill-rule="evenodd" clip-rule="evenodd" d="M28.2665 13.8663H30.3997C30.6943 13.8663 30.933 13.6275 30.933 13.333C30.933 13.0386 30.6943 12.7997 30.3997 12.7997H28.2665C27.9719 12.7997 27.7332 13.0385 27.7332 13.333C27.7332 13.6276 27.9719 13.8663 28.2665 13.8663Z" fill="#2563EB"/>
<path fill-rule="evenodd" clip-rule="evenodd" d="M31.4664 14.933H28.2665C27.9719 14.933 27.7332 15.1718 27.7332 15.4663C27.7332 15.7608 27.972 15.9996 28.2665 15.9996H31.4664C31.7609 15.9996 31.9997 15.7608 31.9997 15.4663C31.9997 15.1718 31.7609 14.933 31.4664 14.933Z" fill="#2563EB"/>
</svg>
