<svg width="40" height="40" viewBox="0 0 40 40" fill="none" xmlns="http://www.w3.org/2000/svg">
<path d="M33.333 21.1549V4.66654C33.2689 2.11636 31.2167 0.0642174 28.6665 0C26.0906 0.00328118 24.0032 2.09066 24 4.66654V10.2044C21.376 7.50312 17.7661 5.98526 14.0002 5.99979C6.2684 5.99979 0.000488281 12.2677 0.000488281 19.9995C0.000488281 27.7313 6.2684 33.9992 14.0002 33.9992C15.759 34.0041 17.5025 33.6736 19.1374 33.0252C20.5039 37.3306 24.587 40.1853 29.0998 39.9905C33.6126 39.7958 37.4345 36.5999 38.425 32.1928C39.4155 27.7858 37.3286 23.2618 33.333 21.1549ZM14.0001 32.6659C8.06922 32.6686 2.93058 28.5554 1.63428 22.7679C0.337981 16.9803 3.23128 11.0683 8.59671 8.54083C13.9621 6.01339 20.3629 7.54742 23.9999 12.2324V21.1549C22.9251 21.7269 21.9641 22.4905 21.1639 23.4082L16.5561 20.7182C16.7036 20.2505 16.7036 19.7486 16.5561 19.2809L19.8287 17.371L22.3333 18.0416C22.3898 18.0572 22.448 18.0651 22.5066 18.065C22.8412 18.0648 23.1237 17.8167 23.1672 17.4851C23.2108 17.1535 23.0018 16.8409 22.6786 16.7543L21.4499 16.425L22.3359 15.9084C22.5563 15.7965 22.6967 15.5717 22.7006 15.3245C22.7045 15.0773 22.5712 14.8483 22.3545 14.7294C22.1377 14.6106 21.8729 14.6215 21.6667 14.7577L20.85 15.2337L21.1527 14.1071C21.2459 13.7522 21.0347 13.3887 20.6802 13.2938C20.3257 13.1989 19.9612 13.4084 19.8647 13.7624L19.214 16.1884L15.8954 18.1217C15.5559 17.7839 15.1313 17.5441 14.6667 17.4278V13.6092L16.4714 11.8045C16.724 11.543 16.7204 11.1271 16.4633 10.87C16.2061 10.6128 15.7903 10.6092 15.5287 10.8619L14.6667 11.7239V10.6666C14.6667 10.2984 14.3682 9.99994 14.0001 9.99994C13.6319 9.99994 13.3335 10.2985 13.3335 10.6666V11.7239L12.4715 10.8619C12.2099 10.6092 11.7941 10.6128 11.537 10.87C11.2798 11.1272 11.2762 11.543 11.5288 11.8045L13.3335 13.6092V17.4278C12.8695 17.5453 12.446 17.786 12.1075 18.1244L8.78889 16.191L8.1382 13.765C8.04172 13.411 7.6772 13.2015 7.32267 13.2964C6.96815 13.3912 6.75698 13.7547 6.85018 14.1097L7.15283 15.2363L6.33355 14.7577C6.01926 14.6048 5.64029 14.7205 5.46514 15.023C5.28998 15.3254 5.37803 15.7117 5.66693 15.9083L6.55292 16.425L5.32428 16.7542C4.99905 16.8385 4.78742 17.1517 4.83038 17.4849C4.87335 17.8181 5.15764 18.0673 5.49357 18.0663C5.55216 18.0663 5.61044 18.0584 5.66693 18.0429L8.17156 17.3722L11.4441 19.2822C11.2966 19.7499 11.2966 20.2518 11.4441 20.7195L8.17156 22.6294L5.66693 21.9574C5.43451 21.8883 5.18295 21.9508 5.00991 22.1207C4.83687 22.2905 4.76968 22.5409 4.83452 22.7746C4.89929 23.0083 5.08585 23.1883 5.32162 23.2447L6.55027 23.574L5.66693 24.0907C5.4424 24.1999 5.29772 24.4254 5.29201 24.6751C5.28639 24.9247 5.42068 25.1566 5.64005 25.2759C5.85942 25.3952 6.12707 25.3818 6.33348 25.2413L7.1501 24.7653L6.84745 25.8919C6.75245 26.2474 6.96338 26.6126 7.31877 26.7079C7.37525 26.7235 7.43353 26.7314 7.49212 26.7313C7.79376 26.731 8.05758 26.5281 8.13547 26.2366L8.78616 23.8107L12.1048 21.8773C12.4443 22.2151 12.8688 22.455 13.3334 22.5713V26.3899L11.5288 28.1946C11.2761 28.4561 11.2797 28.872 11.5369 29.1291C11.7941 29.3862 12.2098 29.3898 12.4714 29.1372L13.3334 28.2752V29.3325C13.3334 29.7007 13.6319 29.9991 14 29.9991C14.3682 29.9991 14.6667 29.7006 14.6667 29.3325V28.2752L15.5287 29.1372C15.7902 29.3898 16.2061 29.3862 16.4632 29.1291C16.7204 28.8719 16.724 28.4561 16.4713 28.1946L14.6667 26.3899V22.5713C15.1306 22.4537 15.5541 22.213 15.8926 21.8747L20.3486 24.4746C18.9163 26.5901 18.3684 29.1817 18.822 31.6958C17.295 32.3361 15.6559 32.6659 14.0001 32.6659V32.6659ZM14.0001 21.3329C13.2637 21.3329 12.6668 20.736 12.6668 19.9996C12.6668 19.2632 13.2637 18.6662 14.0001 18.6662C14.7365 18.6662 15.3334 19.2632 15.3334 19.9996C15.3334 20.736 14.7365 21.3329 14.0001 21.3329ZM28.6665 38.6658C24.613 38.6663 21.1007 35.857 20.2105 31.9024C19.3204 27.9478 21.2904 23.9045 24.9532 22.1682C25.1847 22.058 25.3325 21.8246 25.3332 21.5682V4.66654C25.3354 2.82658 26.8265 1.33552 28.6665 1.33325C30.4783 1.40169 31.9314 2.8547 31.9998 4.66654V21.5662C32.0005 21.8226 32.1483 22.0559 32.3798 22.1662C36.045 23.9012 38.0172 27.9459 37.1268 31.9021C36.2364 35.8584 32.7217 38.6683 28.6665 38.6658V38.6658Z" fill="#2563EB"/>
<path d="M30.6665 22.9429V14.6663C30.6521 13.5678 29.7651 12.6808 28.6665 12.6664C27.562 12.6664 26.6665 13.5618 26.6665 14.6663V22.9428C23.1454 23.941 20.8992 27.3826 21.4031 31.0076C21.907 34.6326 25.0066 37.3312 28.6665 37.3312C32.3264 37.3312 35.426 34.6326 35.9299 31.0076C36.4337 27.3826 34.1876 23.941 30.6665 22.9429V22.9429ZM28.6665 35.9992C25.5841 36.0024 23.0008 33.6692 22.691 30.6023C22.3812 27.5354 24.4457 24.7328 27.4665 24.1195C27.777 24.0561 27.9999 23.783 27.9999 23.4662V14.6663C27.9999 14.2981 28.2983 13.9997 28.6665 13.9997C29.0288 14.0137 29.3191 14.3042 29.3331 14.6663V23.4662C29.333 23.783 29.556 24.0561 29.8665 24.1195C32.8873 24.7329 34.9518 27.5355 34.642 30.6023C34.3322 33.6692 31.7489 36.0024 28.6665 35.9992V35.9992Z" fill="#2563EB"/>
<path fill-rule="evenodd" clip-rule="evenodd" d="M29.5998 25.4261C29.2389 25.3524 28.8868 25.5853 28.8132 25.9461C28.7395 26.307 28.9723 26.6591 29.3332 26.7327C30.883 27.0536 31.9957 28.4167 31.9997 29.9993C31.9997 30.3675 32.2983 30.6659 32.6664 30.6659C33.0346 30.6659 33.333 30.3675 33.333 29.9993C33.3278 27.7836 31.7698 25.8749 29.5998 25.4261Z" fill="#2563EB"/>
<path fill-rule="evenodd" clip-rule="evenodd" d="M39.3329 2.6666H35.333C34.9648 2.6666 34.6664 2.9651 34.6664 3.33322C34.6664 3.70134 34.9649 3.99985 35.333 3.99985H39.3329C39.7011 3.99985 39.9995 3.70134 39.9995 3.33322C39.9995 2.9651 39.7011 2.6666 39.3329 2.6666Z" fill="#2563EB"/>
<path fill-rule="evenodd" clip-rule="evenodd" d="M35.333 6.6665H37.9996C38.3678 6.6665 38.6662 6.36807 38.6662 5.99988C38.6662 5.63168 38.3678 5.33325 37.9996 5.33325H35.333C34.9648 5.33325 34.6664 5.63176 34.6664 5.99988C34.6664 6.36807 34.9648 6.6665 35.333 6.6665Z" fill="#2563EB"/>
<path fill-rule="evenodd" clip-rule="evenodd" d="M39.3329 7.99985H35.333C34.9648 7.99985 34.6664 8.29836 34.6664 8.66648C34.6664 9.03467 34.9649 9.33311 35.333 9.33311H39.3329C39.7011 9.33311 39.9995 9.0346 39.9995 8.66648C39.9995 8.29836 39.7011 7.99985 39.3329 7.99985Z" fill="#2563EB"/>
<path fill-rule="evenodd" clip-rule="evenodd" d="M35.333 11.9998H37.9996C38.3678 11.9998 38.6662 11.7012 38.6662 11.3331C38.6662 10.9649 38.3678 10.6665 37.9996 10.6665H35.333C34.9648 10.6665 34.6664 10.965 34.6664 11.3331C34.6664 11.7012 34.9648 11.9998 35.333 11.9998Z" fill="#2563EB"/>
<path fill-rule="evenodd" clip-rule="evenodd" d="M39.3329 13.3331H35.333C34.9648 13.3331 34.6664 13.6316 34.6664 13.9997C34.6664 14.3678 34.9649 14.6663 35.333 14.6663H39.3329C39.7011 14.6663 39.9995 14.3679 39.9995 13.9997C39.9995 13.6315 39.7011 13.3331 39.3329 13.3331Z" fill="#2563EB"/>
<path fill-rule="evenodd" clip-rule="evenodd" d="M35.333 17.333H37.9996C38.3678 17.333 38.6662 17.0345 38.6662 16.6664C38.6662 16.2983 38.3678 15.9998 37.9996 15.9998H35.333C34.9648 15.9998 34.6664 16.2982 34.6664 16.6664C34.6664 17.0346 34.9648 17.333 35.333 17.333Z" fill="#2563EB"/>
<path fill-rule="evenodd" clip-rule="evenodd" d="M39.3329 18.6663H35.333C34.9648 18.6663 34.6664 18.9648 34.6664 19.3329C34.6664 19.7011 34.9649 19.9995 35.333 19.9995H39.3329C39.7011 19.9995 39.9995 19.7011 39.9995 19.3329C39.9995 18.9648 39.7011 18.6663 39.3329 18.6663Z" fill="#2563EB"/>
</svg>
