<svg width="40" height="40" viewBox="0 0 40 40" fill="none" xmlns="http://www.w3.org/2000/svg">
<g clip-path="url(#clip0_571_713)">
<path d="M23.553 18.5622L30.9667 20.7426C32.0323 21.0576 33.1824 20.6976 33.8783 19.8314L35.7181 20.616C35.9372 20.7096 36.1896 20.6792 36.3802 20.5362C36.5708 20.3933 36.6706 20.1595 36.6422 19.923C36.6137 19.6864 36.4612 19.483 36.2421 19.3895L34.4303 18.6169C34.6817 17.2126 33.8331 15.845 32.4632 15.4466L27.8885 14.1975L28.2011 12.9597C28.5552 11.747 28.4906 10.4504 28.0178 9.27888C30.4757 8.90417 32.208 6.66807 31.9567 4.19458C31.7054 1.72109 29.5588 -0.121005 27.0758 0.00624297C24.5929 0.133491 22.6457 2.18524 22.6485 4.67154C22.6473 5.41129 22.8237 6.14056 23.1632 6.79789C21.8358 6.94975 20.6076 7.57529 19.7043 8.55968L17.1387 11.26L8.31722 7.50256L8.58382 6.96928C8.69029 6.7561 8.6749 6.50239 8.54359 6.30366C8.41228 6.10494 8.18481 5.99136 7.94703 6.00574C7.70925 6.02011 7.49717 6.16025 7.3907 6.37342L7.08809 6.97935L5.579 6.33811C5.24029 6.19383 4.84878 6.35139 4.70443 6.69009C4.56015 7.0288 4.71771 7.42031 5.05641 7.56466L6.48754 8.17388L6.05424 9.0404C5.88966 9.36988 6.02339 9.77038 6.35288 9.93496C6.68236 10.0996 7.08285 9.96582 7.24744 9.63633L7.71402 8.69779L16.1555 12.292L12.0708 16.5921C10.2394 18.5164 10.1642 21.5154 11.8968 23.5291C12.8863 24.6697 14.3197 25.3281 15.8296 25.3355H18.1246L15.131 30.2122L6.07205 26.2479C5.05797 25.8573 3.91766 26.348 3.50405 27.3529C3.09043 28.3578 3.55505 29.509 4.55023 29.9454L26.4093 39.5174C27.1929 39.8348 28.0301 39.9986 28.8756 40C29.7513 39.9995 30.618 39.8227 31.4239 39.4801C32.0831 39.2008 32.5432 38.5911 32.631 37.8807C32.7188 37.1702 32.4209 36.4669 31.8495 36.0356C31.2781 35.6043 30.52 35.5107 29.8608 35.7899C29.2439 36.0576 28.5451 36.0654 27.9224 35.8113L23.3484 33.8082L23.6463 33.3416C24.0558 32.6775 24.168 31.872 23.9555 31.1212C23.7547 30.4556 23.2773 29.9086 22.645 29.6194H22.6384L24.7147 25.8292C25.4121 24.6242 25.4873 23.1572 24.9167 21.8873C24.346 20.6173 23.1992 19.6995 21.8352 19.4208L22.8484 18.2376C23.0657 18.3805 23.3032 18.4899 23.553 18.5622V18.5622ZM27.3145 1.33864C29.1552 1.33864 30.6474 2.83086 30.6474 4.67154C30.6474 6.51223 29.1552 8.00445 27.3145 8.00445C27.2372 8.00445 27.1632 7.99515 27.0879 7.98843C26.8439 7.76214 26.5725 7.56732 26.2801 7.40851C25.8316 7.18675 25.358 7.01974 24.8696 6.91124C24.2985 6.30546 23.9808 5.50409 23.9817 4.67154C23.9838 2.83172 25.4747 1.34083 27.3145 1.33864ZM20.6555 9.49346C21.894 8.02819 23.9995 7.65067 25.6701 8.59429C27.4651 9.5408 27.1365 11.7359 26.9086 12.6337L26.5473 14.0662C26.4051 14.6642 26.7606 15.2678 27.3525 15.4334L32.1098 16.7325C32.4844 16.8434 32.7974 17.1025 32.9763 17.4497C33.163 17.7861 33.2041 18.1841 33.0903 18.5516C32.8428 19.2712 32.0758 19.6716 31.3439 19.4635L23.9256 17.2825C23.6793 17.2116 23.4605 17.0672 23.2984 16.8685L23.2924 16.8639L23.2877 16.8552C22.9833 16.5048 22.8892 16.0186 23.0411 15.5801L24.3816 11.5472C24.4976 11.1975 24.3081 10.82 23.9583 10.704C23.6086 10.588 23.231 10.7775 23.115 11.1273L22.3358 13.4703L18.449 11.8172L20.6555 9.49346ZM30.3874 37.0157C30.5512 36.9467 30.7358 36.946 30.9001 37.0137C31.0645 37.0814 31.1949 37.2119 31.2626 37.3763C31.3324 37.5391 31.3344 37.723 31.2684 37.8872C31.2024 38.0516 31.0736 38.1829 30.9107 38.2521C29.6408 38.7923 28.2082 38.8055 26.9286 38.2887L5.06688 28.7162C4.90245 28.6498 4.77145 28.5202 4.70318 28.3565C4.63491 28.1928 4.63506 28.0086 4.70357 27.845C4.76754 27.6818 4.89471 27.5513 5.05618 27.483C5.13882 27.4478 5.22764 27.4297 5.31747 27.4297C5.39769 27.4294 5.47714 27.4448 5.55142 27.475L27.4058 37.039C28.3614 37.4335 29.436 37.425 30.3854 37.0156H30.3874V37.0157ZM20.1488 19.3362H15.9827C15.6146 19.3362 15.3162 19.6347 15.3162 20.0027C15.3162 20.3708 15.6147 20.6693 15.9827 20.6693H20.9687C22.0414 20.6693 23.0321 21.2433 23.5655 22.1741C24.099 23.1048 24.0933 24.2498 23.5511 25.1753L21.4114 29.0788L20.8181 28.8208C20.5997 28.7256 20.3471 28.754 20.1554 28.8956C19.9637 29.037 19.8621 29.2701 19.8888 29.5068C19.9156 29.7436 20.0665 29.9481 20.2849 30.0434L21.4254 30.5393C21.4294 30.5393 21.4321 30.5454 21.4368 30.5467L22.0906 30.8287C22.3747 30.9556 22.5889 31.2007 22.6766 31.4993C22.7791 31.8854 22.7189 32.2967 22.51 32.6371L22.11 33.267L16.3628 30.752L19.689 25.3354H20.6489C21.017 25.3354 21.3154 25.037 21.3154 24.6689C21.3154 24.3007 21.017 24.0023 20.6489 24.0023H15.8295C14.7102 23.9902 13.6488 23.5028 12.9099 22.6618C11.6239 21.1651 11.6815 18.9374 13.0433 17.5092L17.4707 12.8491L21.918 14.7422L21.7801 15.1561C21.5452 15.8437 21.6075 16.5981 21.9521 17.2379L20.1488 19.3362Z" fill="#2563EB"/>
</g>
<defs>
<clipPath id="clip0_571_713">
<rect width="40" height="40" fill="white"/>
</clipPath>
</defs>
</svg>
