<svg width="40" height="40" viewBox="0 0 40 40" fill="none" xmlns="http://www.w3.org/2000/svg">
<g clip-path="url(#clip0_571_2002)">
<path d="M36.6666 20C34.8725 19.9601 33.3831 21.3768 33.3333 23.1707C33.6299 27.6594 33.9999 33.246 33.9999 38.1934V38.6667C33.9999 39.4031 34.5969 40.0001 35.3333 40.0001H38C38.7364 40.0001 39.3334 39.4031 39.3334 38.6667V38.1934C39.3334 33.246 39.702 27.66 40 23.1707C40 23.1547 40 23.1394 40 23.1241C39.9274 21.3476 38.4441 19.9574 36.6666 20V20ZM36.6666 21.3334C37.7023 21.2908 38.5861 22.0752 38.6666 23.1087C38.4406 26.5313 38.174 30.5853 38.0587 34.5213C37.2487 33.8595 36.0847 33.8595 35.2747 34.5213C35.1594 30.5773 34.892 26.5213 34.6667 23.13C34.7335 22.0867 35.6223 21.2884 36.6666 21.3334V21.3334ZM35.3334 38.6666V38.2666L35.7273 36.1927C35.7854 35.7181 36.1883 35.3616 36.6663 35.3616C37.1444 35.3616 37.5473 35.7182 37.6053 36.1927L38 38.2666V38.6666H35.3334Z" fill="#2563EB"/>
<path fill-rule="evenodd" clip-rule="evenodd" d="M14 20H16.6666C17.0348 20 17.3333 19.7016 17.3333 19.3334C17.3333 18.9652 17.0348 18.6667 16.6666 18.6667H14C13.6318 18.6667 13.3334 18.9652 13.3334 19.3334C13.3334 19.7016 13.6318 20 14 20Z" fill="#2563EB"/>
<path fill-rule="evenodd" clip-rule="evenodd" d="M16 20.6666H14.6666C14.2984 20.6666 14 20.9651 14 21.3333C14 21.7015 14.2985 21.9999 14.6666 21.9999H16C16.3682 21.9999 16.6666 21.7015 16.6666 21.3333C16.6666 20.9651 16.3682 20.6666 16 20.6666Z" fill="#2563EB"/>
<path d="M1.33336 40H30C30.7364 40 31.3334 39.403 31.3334 38.6666V38.1933C31.3334 33.2459 31.702 27.6599 32 23.1706C32 23.1546 32 23.1393 32 23.124C31.9274 21.3476 30.4441 19.9574 28.6666 20C28.0723 20.0045 27.4892 20.1624 26.974 20.4587L25.5853 14.9334C26.372 13.5227 26.0124 11.7491 24.7387 10.756C25.1198 10.3808 25.3341 9.86813 25.3334 9.33336V8C25.3286 3.58367 21.7496 0.00476563 17.3334 0H13.3334C8.91703 0.00476563 5.33812 3.58367 5.33336 8V9.33336C5.3332 9.8675 5.54742 10.3793 5.92805 10.7541C4.6532 11.7473 4.29359 13.5222 5.08141 14.9334L3.42672 21.5247C3.19867 22.4391 3.40375 23.4077 3.98289 24.1512C4.56203 24.8947 5.45086 25.3306 6.39336 25.3334H10.9434C10.6223 25.8889 10.1872 26.3702 9.66672 26.7454L3.96273 28.818C2.87867 29.2113 0 30.258 0 36.6666V38.6666C0 39.403 0.596953 40 1.33336 40V40ZM6 13.3393C6.00289 12.4956 6.53711 11.7454 7.33336 11.4666V15.2093C6.53797 14.9309 6.00398 14.182 6 13.3393V13.3393ZM21 26.7453C20.4796 26.3699 20.0445 25.8887 19.7234 25.3333H24.2734C24.6813 25.3315 25.0848 25.248 25.46 25.088C25.53 26.1706 25.6007 27.2966 25.6666 28.448L21 26.7453ZM25.3334 23.1707C25.3427 23.31 25.352 23.4594 25.3613 23.6007C25.0568 23.8584 24.6709 24.0002 24.272 24.0007H19.3434C19.3297 23.6311 19.3748 23.2616 19.4767 22.906C20.0238 22.4997 20.5311 22.0425 20.992 21.5407C22.1896 20.138 22.979 18.4334 23.2741 16.6127C23.7155 16.5282 24.1349 16.3545 24.5067 16.102L25.8574 21.4907C25.5216 21.9871 25.3394 22.5714 25.3334 23.1707ZM23.3334 15.2107V11.4667C24.1312 11.7425 24.6664 12.4939 24.6664 13.338C24.6664 14.1822 24.1312 14.9336 23.3334 15.2094V15.2107ZM22 16C22 16.3682 21.7016 16.6666 21.3334 16.6666H18.3334C17.9139 16.6656 17.5192 16.4682 17.2667 16.1333L16.6494 15.3099C16.3386 14.8959 15.8511 14.6521 15.3334 14.6521C14.8156 14.6521 14.3281 14.8958 14.0173 15.3099L13.4 16.1333C13.1475 16.4682 12.7527 16.6655 12.3334 16.6666H9.33336C8.96516 16.6666 8.66672 16.3681 8.66672 16V11.3334H22V16ZM9.33336 18H12.3334C13.1723 17.9981 13.9619 17.6034 14.4667 16.9334L15.0834 16.1113C15.1426 16.033 15.2352 15.9869 15.3334 15.9869C15.4316 15.9869 15.5241 16.033 15.5834 16.1113L16.2 16.9334C16.7048 17.6034 17.4945 17.9981 18.3334 18H21.3334C21.4052 17.9966 21.4769 17.9895 21.548 17.9787C21.2052 18.9605 20.678 19.868 19.9947 20.652C19.016 21.7473 16.7927 23.3334 15.3334 23.3334C13.8741 23.3334 11.6507 21.7473 10.672 20.652C9.98875 19.868 9.46156 18.9606 9.11867 17.9787C9.18984 17.9895 9.26148 17.9966 9.33336 18V18ZM12.6607 23.8527C13.4738 24.3335 14.3902 24.6127 15.3334 24.6666C16.2765 24.6126 17.1929 24.3335 18.006 23.8527C18.0342 25.3531 18.7641 26.7535 19.978 27.636C19.6731 29.9884 18.1662 32.0126 16.0001 32.9794V32C16.0001 31.6318 15.7016 31.3334 15.3334 31.3334C14.9653 31.3334 14.6668 31.6319 14.6668 32V32.9793C12.5005 32.0126 10.9933 29.9884 10.6881 27.6359C11.9022 26.7537 12.6324 25.3533 12.6607 23.8527V23.8527ZM16 38.6666V34.444C18.7077 33.4363 20.6928 31.0882 21.236 28.2506L25.7453 29.8959C25.8913 32.6666 26 35.5212 26 38.1933V38.6666H16ZM27.3334 38.6666V38.2666L27.7273 36.1927C27.7841 35.717 28.1876 35.3588 28.6666 35.3588C29.1457 35.3588 29.5492 35.717 29.6059 36.1927L30 38.2666V38.6666H27.3334ZM28.6666 21.3334C29.7023 21.2908 30.5861 22.0752 30.6666 23.1087C30.4406 26.5313 30.174 30.5853 30.0587 34.5213C29.2487 33.8595 28.0847 33.8595 27.2747 34.5213C27.1594 30.5773 26.892 26.5213 26.6667 23.13C26.7335 22.0867 27.6223 21.2884 28.6666 21.3334V21.3334ZM6.66664 8C6.6707 4.31977 9.65305 1.33734 13.3333 1.33336H17.3333C21.0135 1.33742 23.9959 4.31977 23.9999 8V9.33336C23.9999 9.70156 23.7015 10 23.3333 10H7.33328C6.96508 10 6.66664 9.70148 6.66664 9.33336V8V8ZM6.39336 24C5.86102 23.9988 5.35891 23.7526 5.03203 23.3324C4.70523 22.9122 4.59008 22.3649 4.72 21.8487L6.16203 16.1013C6.53422 16.3535 6.95383 16.5273 7.39539 16.612C7.69047 18.4327 8.47984 20.1373 9.67742 21.54C10.1384 22.0419 10.6457 22.499 11.1927 22.9053C11.2947 23.2609 11.3397 23.6303 11.3261 24H6.39336ZM1.33336 36.6666C1.33336 31.192 3.49469 30.4059 4.44734 30.06L9.4307 28.2493C9.97344 31.0873 11.9587 33.4361 14.6667 34.444V38.6666H6.66672V34.6666C6.66672 34.2984 6.36828 34 6.00008 34C5.63188 34 5.33344 34.2985 5.33344 34.6666V38.6666H1.33344V36.6666H1.33336Z" fill="#2563EB"/>
<path fill-rule="evenodd" clip-rule="evenodd" d="M13.3334 4H17.3334C17.7016 4 18 3.70148 18 3.33336C18 2.96523 17.7015 2.66672 17.3334 2.66672H13.3334C12.9652 2.66672 12.6667 2.96523 12.6667 3.33336C12.6667 3.70148 12.9652 4 13.3334 4V4Z" fill="#2563EB"/>
</g>
<defs>
<clipPath id="clip0_571_2002">
<rect width="40" height="40" fill="white"/>
</clipPath>
</defs>
</svg>
