<svg width="40" height="40" viewBox="0 0 40 40" fill="none" xmlns="http://www.w3.org/2000/svg">
<g clip-path="url(#clip0_571_698)">
<path d="M19.054 20C18.1044 20.0004 17.3344 20.7697 17.3333 21.7193V23.826V24.126C17.3333 24.3067 17.3453 24.4867 17.356 24.666H14.128C13.4984 24.6652 12.9008 24.9432 12.496 25.4253C12.0959 25.8976 11.9251 26.5226 12.0293 27.1327C12.414 29.504 14.1147 32.2727 17.6407 32.2727C19.4613 32.2412 21.0836 33.4168 21.6207 35.1567C21.634 35.2133 21.646 35.2753 21.6593 35.3327H17.6C17.1677 35.335 16.7545 35.5112 16.4535 35.8216C16.1525 36.132 15.9891 36.5504 16 36.9826C15.9996 37.4677 16.2205 37.9265 16.6 38.2286L18.3773 39.6493C18.6612 39.8764 19.0139 40.0001 19.3773 40H36.2C36.5148 40.0008 36.8228 39.908 37.0847 39.7333L39.2953 38.2606C39.8786 37.8681 40.1372 37.1409 39.9329 36.4682C39.7285 35.7956 39.109 35.3351 38.406 35.3333H34.3433C34.7511 33.2846 35.5844 31.3443 36.7893 29.638C37.9953 28.0526 38.6541 26.1186 38.6667 24.1267V23.8267V21.72C38.6659 20.7712 37.8975 20.0018 36.9487 20H19.054ZM17.6413 30.94C14.1747 30.94 13.4553 27.5913 13.3453 26.912C13.305 26.6875 13.3679 26.4569 13.5167 26.284C13.6683 26.1034 13.8922 25.9994 14.128 26H17.5433C17.8344 27.3195 18.4047 28.5614 19.216 29.642C19.6821 30.2738 20.0841 30.9504 20.416 31.662C19.5722 31.1778 18.6141 30.9285 17.6413 30.94V30.94ZM38.6667 36.9333C38.6668 37.0211 38.623 37.1032 38.55 37.152L36.34 38.624C36.2985 38.6515 36.2498 38.6663 36.2 38.6666H19.3747C19.3152 38.6667 19.2575 38.6462 19.2113 38.6086L17.4333 37.1873C17.3597 37.1227 17.3223 37.026 17.3333 36.9287C17.3335 36.8584 17.3618 36.7912 17.4119 36.7419C17.462 36.6927 17.5298 36.6656 17.6 36.6666H38.406C38.476 36.6672 38.5429 36.6956 38.5919 36.7457C38.6408 36.7958 38.6678 36.8633 38.6667 36.9333V36.9333ZM37.3333 21.7193V23.3333H34.844C34.4758 23.3333 34.1773 23.6318 34.1773 24C34.1773 24.3682 34.4758 24.6667 34.844 24.6667H37.3107C37.1907 26.1807 36.6391 27.6285 35.7213 28.8387C34.349 30.7801 33.4135 32.9958 32.9793 35.3333H23.024C22.5896 32.9972 21.6544 30.7829 20.2827 28.8427C19.3638 27.6314 18.8113 26.1822 18.6907 24.6667H31.6853C32.0535 24.6667 32.352 24.3682 32.352 24C32.352 23.6318 32.0535 23.3333 31.6853 23.3333H18.6667V21.7193C18.6699 21.507 18.8417 21.3358 19.054 21.3333H36.9487C37.16 21.3373 37.3301 21.508 37.3333 21.7193Z" fill="#2563EB"/>
<path d="M7.98667 25.4753C7.98667 25.4273 8 25.382 8 25.3333V2C8 1.63181 8.29848 1.33333 8.66667 1.33333H34.6667C35.0349 1.33333 35.3333 1.63181 35.3333 2V18C35.3333 18.3682 35.6318 18.6667 36 18.6667C36.3682 18.6667 36.6667 18.3682 36.6667 18V2C36.6667 0.895431 35.7712 0 34.6667 0H8.66667C7.5621 0 6.66667 0.895431 6.66667 2V10.6667H2C0.895431 10.6667 0 11.5621 0 12.6667V25.3333C-3.70666e-06 27.5396 1.78639 29.3293 3.99267 29.3333H4H10C10.3682 29.3333 10.6667 29.0349 10.6667 28.6667C10.6667 28.2985 10.3682 28 10 28H6.97867C7.54881 27.3572 7.89543 26.547 7.96667 25.6907C7.97533 25.6193 7.982 25.548 7.98667 25.4753V25.4753ZM1.33333 25.3333V12.6667C1.33333 12.2985 1.63181 12 2 12H6.66672L6.66667 25.188C6.67295 26.2233 6.11874 27.181 5.218 27.6913L5.19867 27.702C5.08887 27.7584 4.97499 27.8066 4.858 27.846C4.79133 27.8693 4.72467 27.892 4.65133 27.9127C4.578 27.9333 4.492 27.948 4.41 27.9613C4.31787 27.9754 4.22508 27.9848 4.132 27.9893C3.42562 28.0294 2.73265 27.7847 2.208 27.31C1.65106 26.8037 1.33347 26.086 1.33333 25.3333Z" fill="#2563EB"/>
<path d="M10.6667 9.33334H18.6667C19.0349 9.33334 19.3333 9.03487 19.3333 8.66668V4.00001C19.3333 3.63182 19.0349 3.33334 18.6667 3.33334H10.6667C10.2985 3.33334 10 3.63182 10 4.00001V8.66668C10 9.03487 10.2985 9.33334 10.6667 9.33334ZM11.3333 4.66668H18V8.00001H11.3333V4.66668Z" fill="#2563EB"/>
<path d="M20 11.3333H10.6667C10.2985 11.3333 10 11.6318 10 12C10 12.3682 10.2985 12.6667 10.6667 12.6667H20C20.3682 12.6667 20.6667 12.3682 20.6667 12C20.6667 11.6318 20.3682 11.3333 20 11.3333Z" fill="#2563EB"/>
<path d="M20 14H10.6667C10.2985 14 10 14.2985 10 14.6667C10 15.0349 10.2985 15.3333 10.6667 15.3333H20C20.3682 15.3333 20.6667 15.0349 20.6667 14.6667C20.6667 14.2985 20.3682 14 20 14Z" fill="#2563EB"/>
<path d="M20 16.6667H10.6667C10.2985 16.6667 10 16.9651 10 17.3333C10 17.7015 10.2985 18 10.6667 18H20C20.3682 18 20.6667 17.7015 20.6667 17.3333C20.6667 16.9651 20.3682 16.6667 20 16.6667Z" fill="#2563EB"/>
<path d="M32.6667 3.33334H23.3334C22.9652 3.33334 22.6667 3.63182 22.6667 4.00001C22.6667 4.3682 22.9652 4.66668 23.3334 4.66668H32.6667C33.0349 4.66668 33.3333 4.3682 33.3333 4.00001C33.3333 3.63182 33.0349 3.33334 32.6667 3.33334Z" fill="#2563EB"/>
<path d="M33.3333 6.66667C33.3333 6.29848 33.0349 6 32.6667 6H23.3334C22.9652 6 22.6667 6.29848 22.6667 6.66667C22.6667 7.03486 22.9652 7.33333 23.3334 7.33333H32.6667C33.0349 7.33333 33.3333 7.03486 33.3333 6.66667Z" fill="#2563EB"/>
<path d="M26.4507 12.3787C26.9946 11.9759 27.3208 11.3434 27.3333 10.6667C27.3333 10.2985 27.0349 10 26.6667 10C26.2985 10 26 10.2985 26 10.6667C26 10.9713 25.8667 11.102 25.55 11.396C24.9961 11.7908 24.6672 12.4291 24.6672 13.1093C24.6672 13.7896 24.9961 14.4278 25.55 14.8227C25.8707 15.1167 26.0007 15.248 26.0007 15.556C26.0007 15.864 25.8674 15.994 25.55 16.2893C25.0065 16.6919 24.6803 17.3237 24.6667 18C24.6667 18.3682 24.9652 18.6667 25.3334 18.6667C25.7015 18.6667 26 18.3682 26 18C26 17.694 26.1333 17.5627 26.4507 17.2667C27.0046 16.8714 27.3334 16.2328 27.3334 15.5523C27.3334 14.8718 27.0046 14.2333 26.4507 13.838C26.13 13.544 26 13.4127 26 13.1047C26 12.7967 26.1333 12.6727 26.4507 12.3787Z" fill="#2563EB"/>
<path d="M30.4507 12.3787C30.9946 11.9759 31.3208 11.3434 31.3333 10.6667C31.3333 10.2985 31.0349 10 30.6667 10C30.2985 10 30 10.2985 30 10.6667C30 10.9713 29.8667 11.102 29.55 11.396C28.9961 11.7908 28.6672 12.4291 28.6672 13.1093C28.6672 13.7896 28.9961 14.4278 29.55 14.8227C29.8707 15.1167 30.0007 15.248 30.0007 15.556C30.0007 15.864 29.8674 15.994 29.55 16.2893C29.0065 16.6919 28.6803 17.3237 28.6667 18C28.6667 18.3682 28.9652 18.6667 29.3334 18.6667C29.7015 18.6667 30 18.3682 30 18C30 17.694 30.1333 17.5627 30.4507 17.2667C31.0046 16.8714 31.3335 16.2328 31.3335 15.5523C31.3335 14.8718 31.0046 14.2333 30.4507 13.838C30.13 13.544 30 13.4127 30 13.1047C30 12.7967 30.1333 12.6727 30.4507 12.3787Z" fill="#2563EB"/>
</g>
<defs>
<clipPath id="clip0_571_698">
<rect width="40" height="40" fill="white"/>
</clipPath>
</defs>
</svg>
