<svg width="240" height="64" viewBox="0 0 240 64" fill="none" xmlns="http://www.w3.org/2000/svg">
<g clip-path="url(#clip0_515_6265)">
<path d="M29.5337 33.7011C29.5922 36.973 30.0476 40.2257 30.8899 43.3879C30.8899 43.3879 31.4636 47.6352 35.8823 51.1001C37.7899 52.6872 41.0312 54.5501 46.5378 56.1521L52.2679 53.2833C52.2679 53.2833 46.6794 47.1955 39.9955 44.6174C40.5104 39.3453 39.7196 34.0275 37.693 29.1334C36.5157 22.8518 34.4069 18.5077 32.015 15.4973C31.0911 15.7507 28.9153 16.3393 26.7245 16.7417C24.735 17.0472 19.9289 17.2857 18.8857 12.7254C18.7173 13.0343 18.5307 13.3329 18.3268 13.6196C16.7471 15.7432 14.1317 15.3706 13.5281 15.244L13.4834 15.1695C13.7451 15.2144 14.0139 15.194 14.2658 15.1098C18.8335 13.5525 18.8857 7.53923 18.8857 7.53923C18.3268 0.758467 14.847 -0.128249 12.6265 0.0133275C12.2033 0.0494005 11.7842 0.124228 11.3747 0.236869C10.9126 0.381499 10.4659 0.571178 10.0409 0.803175L10.1675 0.900043L9.95891 0.847883C5.80103 3.28449 6.85913 7.21882 7.40308 8.60478C8.39412 7.80003 10.6742 6.36936 15.0929 5.53481L15.3612 5.48265C15.5292 5.77626 15.6737 6.08272 15.7933 6.39917C16.1957 7.50943 16.7024 9.54366 15.4133 10.3931C15.4133 10.3931 13.923 11.5108 11.6876 9.91623C11.6876 9.91623 11.5759 12.487 9.76517 12.4572C10.5102 13.3895 11.4287 14.1689 12.47 14.7522C11.6727 16.0934 9.93655 19.5211 8.68472 25.5343C6.36986 27.6532 4.49604 30.2082 3.17069 33.0528C3.17069 33.0528 0.562701 36.2494 2.06788 37.8142L5.19002 34.7741L5.07825 34.6772C5.95751 34.1034 11.2033 30.5715 12.4253 28.12C13.8612 26.5348 15.0358 24.7314 15.9051 22.7773C19.8916 29.4016 26.9332 35.1392 26.9332 35.1392C26.9332 35.1392 27.5367 36.7785 28.5725 38.9245C28.3415 37.1436 28.2372 35.5192 28.1925 34.4537L29.5337 33.7011Z" fill="white"/>
<path d="M22.1717 15.7581C24.8468 16.2052 32.0821 14.089 32.0821 14.089C34.6007 15.2589 42.2458 14.6926 42.2458 14.6926H46.5527C46.0907 12.7477 42.5811 12.0846 42.5811 12.0846C33.5351 8.82831 23.5801 8.65693 20.145 8.70164C19.9825 10.0138 19.6048 11.2902 19.0273 12.4795C19.5414 14.1113 20.6591 15.5048 22.1717 15.7581Z" fill="white"/>
<path d="M41.4261 43.7604C47.879 46.5845 53.013 52.1731 53.244 52.3817L53.6017 52.7692L55.5838 51.8452C52.0994 47.2736 47.0927 44.1015 41.4708 42.9035C41.4559 43.2314 41.441 43.522 41.4261 43.7604Z" fill="white"/>
<path d="M45.5616 58.6558C41.9965 57.8083 38.2634 57.997 34.8018 59.1997C33.3116 59.7362 30.0777 61.07 30.875 62.8286C31.0152 63.1101 31.2264 63.3502 31.4878 63.5253C31.7491 63.7004 32.0515 63.8044 32.3652 63.827C42.4172 64.8404 53.9519 61.7854 60.2409 53.5516C58.7911 54.753 57.1873 55.7554 55.472 56.5321C52.7522 57.8361 48.6242 59.3786 45.5616 58.6558Z" fill="white"/>
<path d="M62.603 49.4906C62.603 49.4906 62.603 49.4906 62.603 49.4533C62.5687 49.2196 62.4793 48.9974 62.3422 48.805C62.1863 48.5898 61.9593 48.4367 61.7014 48.3729H61.6567C61.2244 48.2723 60.7703 48.3361 60.3825 48.5517V48.5517L60.3005 48.6039C59.1679 49.3043 58.6537 51.4056 58.1918 52.5158C57.997 52.9869 57.7627 53.4405 57.4913 53.872L59.3542 52.6127L59.4287 52.5531C60.4644 51.808 61.597 51.0628 62.603 50.3177C62.6544 50.0444 62.6544 49.7639 62.603 49.4906V49.4906Z" fill="white"/>
<path d="M40.1221 17.5464C38.7343 17.6845 37.3739 18.0233 36.0835 18.5524L35.8003 18.6418C36.335 19.6831 36.8126 20.7527 37.231 21.8459L37.4247 21.7416C38.3968 21.3095 39.4255 21.0185 40.4798 20.8772C41.5284 20.7394 42.5906 20.7394 43.6392 20.8772C45.7373 21.176 47.7701 21.8259 49.6525 22.7997C51.4145 23.6565 53.0805 24.6981 54.6225 25.9069C55.3677 26.4732 56.0085 27.0395 56.6046 27.6133C57.2007 28.187 57.767 28.8055 58.2663 29.3569C59.2946 30.4746 60.1589 31.4805 60.8221 32.3375C61.4853 33.1944 61.9696 33.9246 62.3124 34.4313L62.7818 35.2137L62.4838 34.3493C62.1782 33.538 61.8275 32.7444 61.4331 31.9723C60.7936 30.7824 60.0896 29.6282 59.3244 28.5149C58.3585 27.0224 57.2316 25.6405 55.9638 24.3943C54.4377 22.915 52.7535 21.6081 50.9416 20.4972C48.856 19.222 46.5716 18.3052 44.1831 17.7849C42.8467 17.5208 41.4803 17.4406 40.1221 17.5464V17.5464Z" fill="#E0F2FE"/>
<path d="M22.8722 33.4775C22.4176 34.409 21.9557 35.3255 21.4862 36.1973C20.966 37.172 20.3965 38.1196 19.7798 39.0363C19.2031 39.9028 18.5682 40.7294 17.8797 41.5101C17.5444 41.9051 17.2091 42.2553 16.8738 42.5608L16.2926 43.0824L16.0318 43.3134L15.7486 43.5444C15.0383 44.1459 14.2918 44.7033 13.5132 45.2135C12.1166 46.1007 10.6367 46.8494 9.09455 47.4489C7.88202 47.917 6.63678 48.2956 5.36885 48.5815C4.3033 48.8125 3.45385 48.9392 2.86519 49.0062L1.95612 49.1031L2.85773 49.2372C3.72312 49.3389 4.59466 49.3788 5.46572 49.3565C6.8323 49.3393 8.19336 49.1795 9.52673 48.8796C10.3582 48.7049 11.1792 48.4835 11.9857 48.2164C12.8792 47.9047 13.7548 47.544 14.6086 47.1359C15.5458 46.6898 16.4498 46.1768 17.3134 45.601L17.6487 45.3774L17.999 45.1241L18.6249 44.6546C19.072 44.2821 19.5489 43.9095 19.9587 43.4997C21.7008 41.8391 23.2053 39.946 24.4295 37.8739C24.8319 37.2256 25.2119 36.5624 25.577 35.8918C25.0331 35.4671 24.0644 34.6176 22.8722 33.4775Z" fill="#E0F2FE"/>
</g>
<path d="M79.22 25V8.8H83.18C84.5533 8.8 85.62 8.98 86.38 9.34C87.1533 9.68667 87.7 10.24 88.02 11C88.34 11.7467 88.5 12.7067 88.5 13.88V19.78C88.5 20.98 88.34 21.9667 88.02 22.74C87.7 23.5133 87.16 24.0867 86.4 24.46C85.6533 24.82 84.6067 25 83.26 25H79.22ZM82.52 22.7H83.22C83.8333 22.7 84.2667 22.6067 84.52 22.42C84.7867 22.22 84.9533 21.9333 85.02 21.56C85.0867 21.1733 85.12 20.7 85.12 20.14V13.46C85.12 12.9 85.0733 12.4533 84.98 12.12C84.9 11.7733 84.7267 11.52 84.46 11.36C84.2067 11.2 83.7867 11.12 83.2 11.12H82.52V22.7ZM96.2048 25.22C95.0182 25.22 94.0782 25.0067 93.3848 24.58C92.6915 24.1533 92.1915 23.5467 91.8848 22.76C91.5915 21.96 91.4448 21.0067 91.4448 19.9V13.86C91.4448 12.7533 91.5915 11.8067 91.8848 11.02C92.1915 10.2333 92.6915 9.63333 93.3848 9.22C94.0782 8.80667 95.0182 8.6 96.2048 8.6C97.4048 8.6 98.3515 8.81333 99.0448 9.24C99.7515 9.65333 100.252 10.2533 100.545 11.04C100.852 11.8133 101.005 12.7533 101.005 13.86V19.9C101.005 21.0067 100.852 21.96 100.545 22.76C100.252 23.5467 99.7515 24.1533 99.0448 24.58C98.3515 25.0067 97.4048 25.22 96.2048 25.22ZM96.2048 22.84C96.6315 22.84 96.9448 22.7467 97.1448 22.56C97.3448 22.36 97.4782 22.1 97.5448 21.78C97.6115 21.4467 97.6448 21.0933 97.6448 20.72V13.06C97.6448 12.6867 97.6115 12.34 97.5448 12.02C97.4782 11.7 97.3448 11.4467 97.1448 11.26C96.9448 11.06 96.6315 10.96 96.2048 10.96C95.8048 10.96 95.5048 11.06 95.3048 11.26C95.1048 11.4467 94.9715 11.7 94.9048 12.02C94.8382 12.34 94.8048 12.6867 94.8048 13.06V20.72C94.8048 21.0933 94.8315 21.4467 94.8848 21.78C94.9515 22.1 95.0848 22.36 95.2848 22.56C95.4848 22.7467 95.7915 22.84 96.2048 22.84ZM104.148 25L104.428 8.8H107.928L109.928 19.02L112.068 8.8H115.448L115.728 25H113.328L113.068 14.02L111.008 25H108.948L106.788 13.94L106.568 25H104.148ZM118.315 25L121.455 8.8H125.115L128.235 25H125.175L124.595 21.44H122.035L121.415 25H118.315ZM122.335 19.42H124.275L123.295 12.88L122.335 19.42ZM130.916 25V8.8H134.196V25H130.916ZM137.677 25V8.8H139.977L143.577 17.24V8.8H146.297V25H144.097L140.497 16.04V25H137.677ZM149.751 25V8.8H156.591V11.04H153.051V15.42H156.051V17.72H153.051V25H149.751ZM158.264 25V22.06H161.144V25H158.264ZM168.693 25.22C167.493 25.22 166.539 24.9933 165.833 24.54C165.139 24.0867 164.653 23.46 164.373 22.66C164.093 21.8467 163.953 20.9067 163.953 19.84V14.02C163.953 12.9 164.093 11.94 164.373 11.14C164.653 10.3267 165.139 9.7 165.833 9.26C166.539 8.82 167.493 8.6 168.693 8.6C169.853 8.6 170.759 8.79333 171.413 9.18C172.079 9.56667 172.546 10.1133 172.813 10.82C173.093 11.5267 173.233 12.3467 173.233 13.28V14.64H170.033V13.12C170.033 12.7467 170.013 12.4 169.973 12.08C169.933 11.7467 169.819 11.48 169.633 11.28C169.459 11.0667 169.153 10.96 168.713 10.96C168.273 10.96 167.953 11.0667 167.753 11.28C167.553 11.4933 167.426 11.7733 167.373 12.12C167.319 12.4533 167.293 12.8267 167.293 13.24V20.6C167.293 21.0533 167.326 21.4533 167.393 21.8C167.473 22.1333 167.613 22.3933 167.813 22.58C168.026 22.7533 168.326 22.84 168.713 22.84C169.139 22.84 169.439 22.74 169.613 22.54C169.799 22.3267 169.913 22.0467 169.953 21.7C170.006 21.3533 170.033 20.9867 170.033 20.6V19.02H173.233V20.36C173.233 21.3067 173.099 22.1467 172.833 22.88C172.566 23.6 172.106 24.1733 171.453 24.6C170.799 25.0133 169.879 25.22 168.693 25.22ZM180.767 25.22C179.581 25.22 178.641 25.0067 177.947 24.58C177.254 24.1533 176.754 23.5467 176.447 22.76C176.154 21.96 176.007 21.0067 176.007 19.9V13.86C176.007 12.7533 176.154 11.8067 176.447 11.02C176.754 10.2333 177.254 9.63333 177.947 9.22C178.641 8.80667 179.581 8.6 180.767 8.6C181.967 8.6 182.914 8.81333 183.607 9.24C184.314 9.65333 184.814 10.2533 185.107 11.04C185.414 11.8133 185.567 12.7533 185.567 13.86V19.9C185.567 21.0067 185.414 21.96 185.107 22.76C184.814 23.5467 184.314 24.1533 183.607 24.58C182.914 25.0067 181.967 25.22 180.767 25.22ZM180.767 22.84C181.194 22.84 181.507 22.7467 181.707 22.56C181.907 22.36 182.041 22.1 182.107 21.78C182.174 21.4467 182.207 21.0933 182.207 20.72V13.06C182.207 12.6867 182.174 12.34 182.107 12.02C182.041 11.7 181.907 11.4467 181.707 11.26C181.507 11.06 181.194 10.96 180.767 10.96C180.367 10.96 180.067 11.06 179.867 11.26C179.667 11.4467 179.534 11.7 179.467 12.02C179.401 12.34 179.367 12.6867 179.367 13.06V20.72C179.367 21.0933 179.394 21.4467 179.447 21.78C179.514 22.1 179.647 22.36 179.847 22.56C180.047 22.7467 180.354 22.84 180.767 22.84ZM188.711 25L188.991 8.8H192.491L194.491 19.02L196.631 8.8H200.011L200.291 25H197.891L197.631 14.02L195.571 25H193.511L191.351 13.94L191.131 25H188.711Z" fill="white"/>
<path d="M82.0312 39.0098H79.8691L79.8574 38.1016H81.8203C82.1445 38.1016 82.4277 38.0469 82.6699 37.9375C82.9121 37.8281 83.0996 37.6719 83.2324 37.4688C83.3691 37.2617 83.4375 37.0156 83.4375 36.7305C83.4375 36.418 83.377 36.1641 83.2559 35.9688C83.1387 35.7695 82.957 35.625 82.7109 35.5352C82.4688 35.4414 82.1602 35.3945 81.7852 35.3945H80.1211V43H78.9902V34.4688H81.7852C82.2227 34.4688 82.6133 34.5137 82.957 34.6035C83.3008 34.6895 83.5918 34.8262 83.8301 35.0137C84.0723 35.1973 84.2559 35.4316 84.3809 35.7168C84.5059 36.002 84.5684 36.3438 84.5684 36.7422C84.5684 37.0938 84.4785 37.4121 84.2988 37.6973C84.1191 37.9785 83.8691 38.209 83.5488 38.3887C83.2324 38.5684 82.8613 38.6836 82.4355 38.7344L82.0312 39.0098ZM81.9785 43H79.4238L80.0625 42.0801H81.9785C82.3379 42.0801 82.6426 42.0176 82.8926 41.8926C83.1465 41.7676 83.3398 41.5918 83.4727 41.3652C83.6055 41.1348 83.6719 40.8633 83.6719 40.5508C83.6719 40.2344 83.6152 39.9609 83.502 39.7305C83.3887 39.5 83.2109 39.3223 82.9688 39.1973C82.7266 39.0723 82.4141 39.0098 82.0312 39.0098H80.4199L80.4316 38.1016H82.6348L82.875 38.4297C83.2852 38.4648 83.6328 38.582 83.918 38.7812C84.2031 38.9766 84.4199 39.2266 84.5684 39.5312C84.7207 39.8359 84.7969 40.1719 84.7969 40.5391C84.7969 41.0703 84.6797 41.5195 84.4453 41.8867C84.2148 42.25 83.8887 42.5273 83.4668 42.7188C83.0449 42.9062 82.5488 43 81.9785 43ZM88.8398 42.2266C89.0977 42.2266 89.3359 42.1738 89.5547 42.0684C89.7734 41.9629 89.9531 41.8184 90.0938 41.6348C90.2344 41.4473 90.3145 41.2344 90.334 40.9961H91.3652C91.3457 41.3711 91.2188 41.7207 90.9844 42.0449C90.7539 42.3652 90.4512 42.625 90.0762 42.8242C89.7012 43.0195 89.2891 43.1172 88.8398 43.1172C88.3633 43.1172 87.9473 43.0332 87.5918 42.8652C87.2402 42.6973 86.9473 42.4668 86.7129 42.1738C86.4824 41.8809 86.3086 41.5449 86.1914 41.166C86.0781 40.7832 86.0215 40.3789 86.0215 39.9531V39.707C86.0215 39.2812 86.0781 38.8789 86.1914 38.5C86.3086 38.1172 86.4824 37.7793 86.7129 37.4863C86.9473 37.1934 87.2402 36.9629 87.5918 36.7949C87.9473 36.627 88.3633 36.543 88.8398 36.543C89.3359 36.543 89.7695 36.6445 90.1406 36.8477C90.5117 37.0469 90.8027 37.3203 91.0137 37.668C91.2285 38.0117 91.3457 38.4023 91.3652 38.8398H90.334C90.3145 38.5781 90.2402 38.3418 90.1113 38.1309C89.9863 37.9199 89.8145 37.752 89.5957 37.627C89.3809 37.498 89.1289 37.4336 88.8398 37.4336C88.5078 37.4336 88.2285 37.5 88.002 37.6328C87.7793 37.7617 87.6016 37.9375 87.4688 38.1602C87.3398 38.3789 87.2461 38.623 87.1875 38.8926C87.1328 39.1582 87.1055 39.4297 87.1055 39.707V39.9531C87.1055 40.2305 87.1328 40.5039 87.1875 40.7734C87.2422 41.043 87.334 41.2871 87.4629 41.5059C87.5957 41.7246 87.7734 41.9004 87.9961 42.0332C88.2227 42.1621 88.5039 42.2266 88.8398 42.2266ZM95.2148 43.1172C94.7734 43.1172 94.373 43.043 94.0137 42.8945C93.6582 42.7422 93.3516 42.5293 93.0938 42.2559C92.8398 41.9824 92.6445 41.6582 92.5078 41.2832C92.3711 40.9082 92.3027 40.498 92.3027 40.0527V39.8066C92.3027 39.291 92.3789 38.832 92.5312 38.4297C92.6836 38.0234 92.8906 37.6797 93.1523 37.3984C93.4141 37.1172 93.7109 36.9043 94.043 36.7598C94.375 36.6152 94.7188 36.543 95.0742 36.543C95.5273 36.543 95.918 36.6211 96.2461 36.7773C96.5781 36.9336 96.8496 37.1523 97.0605 37.4336C97.2715 37.7109 97.4277 38.0391 97.5293 38.418C97.6309 38.793 97.6816 39.2031 97.6816 39.6484V40.1348H92.9473V39.25H96.5977V39.168C96.582 38.8867 96.5234 38.6133 96.4219 38.3477C96.3242 38.082 96.168 37.8633 95.9531 37.6914C95.7383 37.5195 95.4453 37.4336 95.0742 37.4336C94.8281 37.4336 94.6016 37.4863 94.3945 37.5918C94.1875 37.6934 94.0098 37.8457 93.8613 38.0488C93.7129 38.252 93.5977 38.5 93.5156 38.793C93.4336 39.0859 93.3926 39.4238 93.3926 39.8066V40.0527C93.3926 40.3535 93.4336 40.6367 93.5156 40.9023C93.6016 41.1641 93.7246 41.3945 93.8848 41.5938C94.0488 41.793 94.2461 41.9492 94.4766 42.0625C94.7109 42.1758 94.9766 42.2324 95.2734 42.2324C95.6562 42.2324 95.9805 42.1543 96.2461 41.998C96.5117 41.8418 96.7441 41.6328 96.9434 41.3711L97.5996 41.8926C97.4629 42.0996 97.2891 42.2969 97.0781 42.4844C96.8672 42.6719 96.6074 42.8242 96.2988 42.9414C95.9941 43.0586 95.6328 43.1172 95.2148 43.1172ZM106.02 36.6602V37.5566H103.09V43H102.006V36.6602H106.02ZM106.559 39.9004V39.7656C106.559 39.3086 106.625 38.8848 106.758 38.4941C106.891 38.0996 107.082 37.7578 107.332 37.4688C107.582 37.1758 107.885 36.9492 108.24 36.7891C108.596 36.625 108.994 36.543 109.436 36.543C109.881 36.543 110.281 36.625 110.637 36.7891C110.996 36.9492 111.301 37.1758 111.551 37.4688C111.805 37.7578 111.998 38.0996 112.131 38.4941C112.264 38.8848 112.33 39.3086 112.33 39.7656V39.9004C112.33 40.3574 112.264 40.7812 112.131 41.1719C111.998 41.5625 111.805 41.9043 111.551 42.1973C111.301 42.4863 110.998 42.7129 110.643 42.877C110.291 43.0371 109.893 43.1172 109.447 43.1172C109.002 43.1172 108.602 43.0371 108.246 42.877C107.891 42.7129 107.586 42.4863 107.332 42.1973C107.082 41.9043 106.891 41.5625 106.758 41.1719C106.625 40.7812 106.559 40.3574 106.559 39.9004ZM107.643 39.7656V39.9004C107.643 40.2168 107.68 40.5156 107.754 40.7969C107.828 41.0742 107.939 41.3203 108.088 41.5352C108.24 41.75 108.43 41.9199 108.656 42.0449C108.883 42.166 109.146 42.2266 109.447 42.2266C109.744 42.2266 110.004 42.166 110.227 42.0449C110.453 41.9199 110.641 41.75 110.789 41.5352C110.938 41.3203 111.049 41.0742 111.123 40.7969C111.201 40.5156 111.24 40.2168 111.24 39.9004V39.7656C111.24 39.4531 111.201 39.1582 111.123 38.8809C111.049 38.5996 110.936 38.3516 110.783 38.1367C110.635 37.918 110.447 37.7461 110.221 37.6211C109.998 37.4961 109.736 37.4336 109.436 37.4336C109.139 37.4336 108.877 37.4961 108.65 37.6211C108.428 37.7461 108.24 37.918 108.088 38.1367C107.939 38.3516 107.828 38.5996 107.754 38.8809C107.68 39.1582 107.643 39.4531 107.643 39.7656ZM114.773 37.8789V45.4375H113.684V36.6602H114.68L114.773 37.8789ZM119.045 39.7773V39.9004C119.045 40.3613 118.99 40.7891 118.881 41.1836C118.771 41.5742 118.611 41.9141 118.4 42.2031C118.193 42.4922 117.938 42.7168 117.633 42.877C117.328 43.0371 116.979 43.1172 116.584 43.1172C116.182 43.1172 115.826 43.0508 115.518 42.918C115.209 42.7852 114.947 42.5918 114.732 42.3379C114.518 42.084 114.346 41.7793 114.217 41.4238C114.092 41.0684 114.006 40.668 113.959 40.2227V39.5664C114.006 39.0977 114.094 38.6777 114.223 38.3066C114.352 37.9355 114.521 37.6191 114.732 37.3574C114.947 37.0918 115.207 36.8906 115.512 36.7539C115.816 36.6133 116.168 36.543 116.566 36.543C116.965 36.543 117.318 36.6211 117.627 36.7773C117.936 36.9297 118.195 37.1484 118.406 37.4336C118.617 37.7188 118.775 38.0605 118.881 38.459C118.99 38.8535 119.045 39.293 119.045 39.7773ZM117.955 39.9004V39.7773C117.955 39.4609 117.922 39.1641 117.855 38.8867C117.789 38.6055 117.686 38.3594 117.545 38.1484C117.408 37.9336 117.232 37.7656 117.018 37.6445C116.803 37.5195 116.547 37.457 116.25 37.457C115.977 37.457 115.738 37.5039 115.535 37.5977C115.336 37.6914 115.166 37.8184 115.025 37.9785C114.885 38.1348 114.77 38.3145 114.68 38.5176C114.594 38.7168 114.529 38.9238 114.486 39.1387V40.6562C114.564 40.9297 114.674 41.1875 114.814 41.4297C114.955 41.668 115.143 41.8613 115.377 42.0098C115.611 42.1543 115.906 42.2266 116.262 42.2266C116.555 42.2266 116.807 42.166 117.018 42.0449C117.232 41.9199 117.408 41.75 117.545 41.5352C117.686 41.3203 117.789 41.0742 117.855 40.7969C117.922 40.5156 117.955 40.2168 117.955 39.9004ZM124.729 39.4082V40.2871H121.377V39.4082H124.729ZM121.605 36.6602V43H120.521V36.6602H121.605ZM125.607 36.6602V43H124.518V36.6602H125.607ZM127.066 39.9004V39.7656C127.066 39.3086 127.133 38.8848 127.266 38.4941C127.398 38.0996 127.59 37.7578 127.84 37.4688C128.09 37.1758 128.393 36.9492 128.748 36.7891C129.104 36.625 129.502 36.543 129.943 36.543C130.389 36.543 130.789 36.625 131.145 36.7891C131.504 36.9492 131.809 37.1758 132.059 37.4688C132.312 37.7578 132.506 38.0996 132.639 38.4941C132.771 38.8848 132.838 39.3086 132.838 39.7656V39.9004C132.838 40.3574 132.771 40.7812 132.639 41.1719C132.506 41.5625 132.312 41.9043 132.059 42.1973C131.809 42.4863 131.506 42.7129 131.15 42.877C130.799 43.0371 130.4 43.1172 129.955 43.1172C129.51 43.1172 129.109 43.0371 128.754 42.877C128.398 42.7129 128.094 42.4863 127.84 42.1973C127.59 41.9043 127.398 41.5625 127.266 41.1719C127.133 40.7812 127.066 40.3574 127.066 39.9004ZM128.15 39.7656V39.9004C128.15 40.2168 128.188 40.5156 128.262 40.7969C128.336 41.0742 128.447 41.3203 128.596 41.5352C128.748 41.75 128.938 41.9199 129.164 42.0449C129.391 42.166 129.654 42.2266 129.955 42.2266C130.252 42.2266 130.512 42.166 130.734 42.0449C130.961 41.9199 131.148 41.75 131.297 41.5352C131.445 41.3203 131.557 41.0742 131.631 40.7969C131.709 40.5156 131.748 40.2168 131.748 39.9004V39.7656C131.748 39.4531 131.709 39.1582 131.631 38.8809C131.557 38.5996 131.443 38.3516 131.291 38.1367C131.143 37.918 130.955 37.7461 130.729 37.6211C130.506 37.4961 130.244 37.4336 129.943 37.4336C129.646 37.4336 129.385 37.4961 129.158 37.6211C128.936 37.7461 128.748 37.918 128.596 38.1367C128.447 38.3516 128.336 38.5996 128.262 38.8809C128.188 39.1582 128.15 39.4531 128.15 39.7656ZM138.34 36.6602V37.5566H135.275V36.6602H138.34ZM139.295 36.6602V43H138.211V36.6602H139.295ZM135.012 36.6602H136.102L135.938 39.7188C135.91 40.1914 135.865 40.6094 135.803 40.9727C135.744 41.332 135.662 41.6406 135.557 41.8984C135.455 42.1562 135.326 42.3672 135.17 42.5312C135.018 42.6914 134.834 42.8105 134.619 42.8887C134.404 42.9629 134.156 43 133.875 43H133.535V42.0449L133.77 42.0273C133.938 42.0156 134.08 41.9766 134.197 41.9102C134.318 41.8438 134.42 41.7461 134.502 41.6172C134.584 41.4844 134.65 41.3145 134.701 41.1074C134.756 40.9004 134.797 40.6543 134.824 40.3691C134.855 40.084 134.879 39.752 134.895 39.373L135.012 36.6602ZM141.932 38.8398H143.836C144.348 38.8398 144.779 38.9297 145.131 39.1094C145.482 39.2852 145.748 39.5293 145.928 39.8418C146.111 40.1504 146.203 40.502 146.203 40.8965C146.203 41.1895 146.152 41.4648 146.051 41.7227C145.949 41.9766 145.797 42.1992 145.594 42.3906C145.395 42.582 145.146 42.7324 144.85 42.8418C144.557 42.9473 144.219 43 143.836 43H141.141V36.6602H142.225V42.1094H143.836C144.148 42.1094 144.398 42.0527 144.586 41.9395C144.773 41.8262 144.908 41.6797 144.99 41.5C145.072 41.3203 145.113 41.1328 145.113 40.9375C145.113 40.7461 145.072 40.5586 144.99 40.375C144.908 40.1914 144.773 40.0391 144.586 39.918C144.398 39.793 144.148 39.7305 143.836 39.7305H141.932V38.8398ZM148.459 36.6602V43H147.375V36.6602H148.459ZM152.279 40.2402L149.877 36.6602H151.184L152.824 39.2852H154.09L153.932 40.2402H152.279ZM152.871 40.1289L151.031 43H149.66L152.186 39.3438L152.871 40.1289ZM154.646 36.6602V43H153.562V36.6602H154.646ZM158.344 36.6602L155.941 40.2402H154.289L154.119 39.2852H155.391L157.031 36.6602H158.344ZM157.184 43L155.338 40.1289L156.035 39.3438L158.555 43H157.184ZM163.857 39.4082V40.2871H160.506V39.4082H163.857ZM160.734 36.6602V43H159.65V36.6602H160.734ZM164.736 36.6602V43H163.646V36.6602H164.736ZM167.373 38.8398H169.277C169.789 38.8398 170.221 38.9297 170.572 39.1094C170.924 39.2852 171.189 39.5293 171.369 39.8418C171.553 40.1504 171.645 40.502 171.645 40.8965C171.645 41.1895 171.594 41.4648 171.492 41.7227C171.391 41.9766 171.238 42.1992 171.035 42.3906C170.836 42.582 170.588 42.7324 170.291 42.8418C169.998 42.9473 169.66 43 169.277 43H166.582V36.6602H167.666V42.1094H169.277C169.59 42.1094 169.84 42.0527 170.027 41.9395C170.215 41.8262 170.35 41.6797 170.432 41.5C170.514 41.3203 170.555 41.1328 170.555 40.9375C170.555 40.7461 170.514 40.5586 170.432 40.375C170.35 40.1914 170.215 40.0391 170.027 39.918C169.84 39.793 169.59 39.7305 169.277 39.7305H167.373V38.8398ZM173.9 36.6602V43H172.816V36.6602H173.9ZM178.43 43.1172C177.988 43.1172 177.588 43.043 177.229 42.8945C176.873 42.7422 176.566 42.5293 176.309 42.2559C176.055 41.9824 175.859 41.6582 175.723 41.2832C175.586 40.9082 175.518 40.498 175.518 40.0527V39.8066C175.518 39.291 175.594 38.832 175.746 38.4297C175.898 38.0234 176.105 37.6797 176.367 37.3984C176.629 37.1172 176.926 36.9043 177.258 36.7598C177.59 36.6152 177.934 36.543 178.289 36.543C178.742 36.543 179.133 36.6211 179.461 36.7773C179.793 36.9336 180.064 37.1523 180.275 37.4336C180.486 37.7109 180.643 38.0391 180.744 38.418C180.846 38.793 180.896 39.2031 180.896 39.6484V40.1348H176.162V39.25H179.812V39.168C179.797 38.8867 179.738 38.6133 179.637 38.3477C179.539 38.082 179.383 37.8633 179.168 37.6914C178.953 37.5195 178.66 37.4336 178.289 37.4336C178.043 37.4336 177.816 37.4863 177.609 37.5918C177.402 37.6934 177.225 37.8457 177.076 38.0488C176.928 38.252 176.812 38.5 176.73 38.793C176.648 39.0859 176.607 39.4238 176.607 39.8066V40.0527C176.607 40.3535 176.648 40.6367 176.73 40.9023C176.816 41.1641 176.939 41.3945 177.1 41.5938C177.264 41.793 177.461 41.9492 177.691 42.0625C177.926 42.1758 178.191 42.2324 178.488 42.2324C178.871 42.2324 179.195 42.1543 179.461 41.998C179.727 41.8418 179.959 41.6328 180.158 41.3711L180.814 41.8926C180.678 42.0996 180.504 42.2969 180.293 42.4844C180.082 42.6719 179.822 42.8242 179.514 42.9414C179.209 43.0586 178.848 43.1172 178.43 43.1172ZM186.316 36.6602V43H185.232V36.6602H186.316ZM190.477 36.6602L187.471 40.293H185.953L185.789 39.3438H187.031L189.158 36.6602H190.477ZM189.311 43L186.979 40.1289L187.676 39.3438L190.688 43H189.311ZM193.412 42.3438L195.176 36.6602H196.336L193.793 43.9785C193.734 44.1348 193.656 44.3027 193.559 44.4824C193.465 44.666 193.344 44.8398 193.195 45.0039C193.047 45.168 192.867 45.3008 192.656 45.4023C192.449 45.5078 192.201 45.5605 191.912 45.5605C191.826 45.5605 191.717 45.5488 191.584 45.5254C191.451 45.502 191.357 45.4824 191.303 45.4668L191.297 44.5879C191.328 44.5918 191.377 44.5957 191.443 44.5996C191.514 44.6074 191.562 44.6113 191.59 44.6113C191.836 44.6113 192.045 44.5781 192.217 44.5117C192.389 44.4492 192.533 44.3418 192.65 44.1895C192.771 44.041 192.875 43.8359 192.961 43.5742L193.412 42.3438ZM192.117 36.6602L193.764 41.582L194.045 42.7246L193.266 43.123L190.934 36.6602H192.117ZM198.398 37.8789V45.4375H197.309V36.6602H198.305L198.398 37.8789ZM202.67 39.7773V39.9004C202.67 40.3613 202.615 40.7891 202.506 41.1836C202.396 41.5742 202.236 41.9141 202.025 42.2031C201.818 42.4922 201.562 42.7168 201.258 42.877C200.953 43.0371 200.604 43.1172 200.209 43.1172C199.807 43.1172 199.451 43.0508 199.143 42.918C198.834 42.7852 198.572 42.5918 198.357 42.3379C198.143 42.084 197.971 41.7793 197.842 41.4238C197.717 41.0684 197.631 40.668 197.584 40.2227V39.5664C197.631 39.0977 197.719 38.6777 197.848 38.3066C197.977 37.9355 198.146 37.6191 198.357 37.3574C198.572 37.0918 198.832 36.8906 199.137 36.7539C199.441 36.6133 199.793 36.543 200.191 36.543C200.59 36.543 200.943 36.6211 201.252 36.7773C201.561 36.9297 201.82 37.1484 202.031 37.4336C202.242 37.7188 202.4 38.0605 202.506 38.459C202.615 38.8535 202.67 39.293 202.67 39.7773ZM201.58 39.9004V39.7773C201.58 39.4609 201.547 39.1641 201.48 38.8867C201.414 38.6055 201.311 38.3594 201.17 38.1484C201.033 37.9336 200.857 37.7656 200.643 37.6445C200.428 37.5195 200.172 37.457 199.875 37.457C199.602 37.457 199.363 37.5039 199.16 37.5977C198.961 37.6914 198.791 37.8184 198.65 37.9785C198.51 38.1348 198.395 38.3145 198.305 38.5176C198.219 38.7168 198.154 38.9238 198.111 39.1387V40.6562C198.189 40.9297 198.299 41.1875 198.439 41.4297C198.58 41.668 198.768 41.8613 199.002 42.0098C199.236 42.1543 199.531 42.2266 199.887 42.2266C200.18 42.2266 200.432 42.166 200.643 42.0449C200.857 41.9199 201.033 41.75 201.17 41.5352C201.311 41.3203 201.414 41.0742 201.48 40.7969C201.547 40.5156 201.58 40.2168 201.58 39.9004ZM203.766 39.9004V39.7656C203.766 39.3086 203.832 38.8848 203.965 38.4941C204.098 38.0996 204.289 37.7578 204.539 37.4688C204.789 37.1758 205.092 36.9492 205.447 36.7891C205.803 36.625 206.201 36.543 206.643 36.543C207.088 36.543 207.488 36.625 207.844 36.7891C208.203 36.9492 208.508 37.1758 208.758 37.4688C209.012 37.7578 209.205 38.0996 209.338 38.4941C209.471 38.8848 209.537 39.3086 209.537 39.7656V39.9004C209.537 40.3574 209.471 40.7812 209.338 41.1719C209.205 41.5625 209.012 41.9043 208.758 42.1973C208.508 42.4863 208.205 42.7129 207.85 42.877C207.498 43.0371 207.1 43.1172 206.654 43.1172C206.209 43.1172 205.809 43.0371 205.453 42.877C205.098 42.7129 204.793 42.4863 204.539 42.1973C204.289 41.9043 204.098 41.5625 203.965 41.1719C203.832 40.7812 203.766 40.3574 203.766 39.9004ZM204.85 39.7656V39.9004C204.85 40.2168 204.887 40.5156 204.961 40.7969C205.035 41.0742 205.146 41.3203 205.295 41.5352C205.447 41.75 205.637 41.9199 205.863 42.0449C206.09 42.166 206.354 42.2266 206.654 42.2266C206.951 42.2266 207.211 42.166 207.434 42.0449C207.66 41.9199 207.848 41.75 207.996 41.5352C208.145 41.3203 208.256 41.0742 208.33 40.7969C208.408 40.5156 208.447 40.2168 208.447 39.9004V39.7656C208.447 39.4531 208.408 39.1582 208.33 38.8809C208.256 38.5996 208.143 38.3516 207.99 38.1367C207.842 37.918 207.654 37.7461 207.428 37.6211C207.205 37.4961 206.943 37.4336 206.643 37.4336C206.346 37.4336 206.084 37.4961 205.857 37.6211C205.635 37.7461 205.447 37.918 205.295 38.1367C205.146 38.3516 205.035 38.5996 204.961 38.8809C204.887 39.1582 204.85 39.4531 204.85 39.7656ZM211.98 37.8789V45.4375H210.891V36.6602H211.887L211.98 37.8789ZM216.252 39.7773V39.9004C216.252 40.3613 216.197 40.7891 216.088 41.1836C215.979 41.5742 215.818 41.9141 215.607 42.2031C215.4 42.4922 215.145 42.7168 214.84 42.877C214.535 43.0371 214.186 43.1172 213.791 43.1172C213.389 43.1172 213.033 43.0508 212.725 42.918C212.416 42.7852 212.154 42.5918 211.939 42.3379C211.725 42.084 211.553 41.7793 211.424 41.4238C211.299 41.0684 211.213 40.668 211.166 40.2227V39.5664C211.213 39.0977 211.301 38.6777 211.43 38.3066C211.559 37.9355 211.729 37.6191 211.939 37.3574C212.154 37.0918 212.414 36.8906 212.719 36.7539C213.023 36.6133 213.375 36.543 213.773 36.543C214.172 36.543 214.525 36.6211 214.834 36.7773C215.143 36.9297 215.402 37.1484 215.613 37.4336C215.824 37.7188 215.982 38.0605 216.088 38.459C216.197 38.8535 216.252 39.293 216.252 39.7773ZM215.162 39.9004V39.7773C215.162 39.4609 215.129 39.1641 215.062 38.8867C214.996 38.6055 214.893 38.3594 214.752 38.1484C214.615 37.9336 214.439 37.7656 214.225 37.6445C214.01 37.5195 213.754 37.457 213.457 37.457C213.184 37.457 212.945 37.5039 212.742 37.5977C212.543 37.6914 212.373 37.8184 212.232 37.9785C212.092 38.1348 211.977 38.3145 211.887 38.5176C211.801 38.7168 211.736 38.9238 211.693 39.1387V40.6562C211.771 40.9297 211.881 41.1875 212.021 41.4297C212.162 41.668 212.35 41.8613 212.584 42.0098C212.818 42.1543 213.113 42.2266 213.469 42.2266C213.762 42.2266 214.014 42.166 214.225 42.0449C214.439 41.9199 214.615 41.75 214.752 41.5352C214.893 41.3203 214.996 41.0742 215.062 40.7969C215.129 40.5156 215.162 40.2168 215.162 39.9004ZM219.75 36.6602V43H218.66V36.6602H219.75ZM221.877 36.6602V37.5391H216.574V36.6602H221.877ZM223.834 38.8398H225.738C226.25 38.8398 226.682 38.9297 227.033 39.1094C227.385 39.2852 227.65 39.5293 227.83 39.8418C228.014 40.1504 228.105 40.502 228.105 40.8965C228.105 41.1895 228.055 41.4648 227.953 41.7227C227.852 41.9766 227.699 42.1992 227.496 42.3906C227.297 42.582 227.049 42.7324 226.752 42.8418C226.459 42.9473 226.121 43 225.738 43H223.043V36.6602H224.127V42.1094H225.738C226.051 42.1094 226.301 42.0527 226.488 41.9395C226.676 41.8262 226.811 41.6797 226.893 41.5C226.975 41.3203 227.016 41.1328 227.016 40.9375C227.016 40.7461 226.975 40.5586 226.893 40.375C226.811 40.1914 226.676 40.0391 226.488 39.918C226.301 39.793 226.051 39.7305 225.738 39.7305H223.834V38.8398ZM230.361 36.6602V43H229.277V36.6602H230.361ZM82.4707 57.5586L84.627 52.6602H85.6699L82.8457 59H82.0957L79.2832 52.6602H80.3262L82.4707 57.5586ZM80.0098 52.6602V59H78.9258V52.6602H80.0098ZM84.8965 59V52.6602H85.9863V59H84.8965ZM88.9043 57.2832L91.8281 52.6602H92.918V59H91.8281V54.377L88.9043 59H87.8262V52.6602H88.9043V57.2832ZM95.7422 53.8789V61.4375H94.6523V52.6602H95.6484L95.7422 53.8789ZM100.014 55.7773V55.9004C100.014 56.3613 99.959 56.7891 99.8496 57.1836C99.7402 57.5742 99.5801 57.9141 99.3691 58.2031C99.1621 58.4922 98.9062 58.7168 98.6016 58.877C98.2969 59.0371 97.9473 59.1172 97.5527 59.1172C97.1504 59.1172 96.7949 59.0508 96.4863 58.918C96.1777 58.7852 95.916 58.5918 95.7012 58.3379C95.4863 58.084 95.3145 57.7793 95.1855 57.4238C95.0605 57.0684 94.9746 56.668 94.9277 56.2227V55.5664C94.9746 55.0977 95.0625 54.6777 95.1914 54.3066C95.3203 53.9355 95.4902 53.6191 95.7012 53.3574C95.916 53.0918 96.1758 52.8906 96.4805 52.7539C96.7852 52.6133 97.1367 52.543 97.5352 52.543C97.9336 52.543 98.2871 52.6211 98.5957 52.7773C98.9043 52.9297 99.1641 53.1484 99.375 53.4336C99.5859 53.7188 99.7441 54.0605 99.8496 54.459C99.959 54.8535 100.014 55.293 100.014 55.7773ZM98.9238 55.9004V55.7773C98.9238 55.4609 98.8906 55.1641 98.8242 54.8867C98.7578 54.6055 98.6543 54.3594 98.5137 54.1484C98.377 53.9336 98.2012 53.7656 97.9863 53.6445C97.7715 53.5195 97.5156 53.457 97.2188 53.457C96.9453 53.457 96.707 53.5039 96.5039 53.5977C96.3047 53.6914 96.1348 53.8184 95.9941 53.9785C95.8535 54.1348 95.7383 54.3145 95.6484 54.5176C95.5625 54.7168 95.498 54.9238 95.4551 55.1387V56.6562C95.5332 56.9297 95.6426 57.1875 95.7832 57.4297C95.9238 57.668 96.1113 57.8613 96.3457 58.0098C96.5801 58.1543 96.875 58.2266 97.2305 58.2266C97.5234 58.2266 97.7754 58.166 97.9863 58.0449C98.2012 57.9199 98.377 57.75 98.5137 57.5352C98.6543 57.3203 98.7578 57.0742 98.8242 56.7969C98.8906 56.5156 98.9238 56.2168 98.9238 55.9004ZM105.135 57.916V54.6523C105.135 54.4023 105.084 54.1855 104.982 54.002C104.885 53.8145 104.736 53.6699 104.537 53.5684C104.338 53.4668 104.092 53.416 103.799 53.416C103.525 53.416 103.285 53.4629 103.078 53.5566C102.875 53.6504 102.715 53.7734 102.598 53.9258C102.484 54.0781 102.428 54.2422 102.428 54.418H101.344C101.344 54.1914 101.402 53.9668 101.52 53.7441C101.637 53.5215 101.805 53.3203 102.023 53.1406C102.246 52.957 102.512 52.8125 102.82 52.707C103.133 52.5977 103.48 52.543 103.863 52.543C104.324 52.543 104.73 52.6211 105.082 52.7773C105.438 52.9336 105.715 53.1699 105.914 53.4863C106.117 53.7988 106.219 54.1914 106.219 54.6641V57.6172C106.219 57.8281 106.236 58.0527 106.271 58.291C106.311 58.5293 106.367 58.7344 106.441 58.9062V59H105.311C105.256 58.875 105.213 58.709 105.182 58.502C105.15 58.291 105.135 58.0957 105.135 57.916ZM105.322 55.1562L105.334 55.918H104.238C103.93 55.918 103.654 55.9434 103.412 55.9941C103.17 56.041 102.967 56.1133 102.803 56.2109C102.639 56.3086 102.514 56.4316 102.428 56.5801C102.342 56.7246 102.299 56.8945 102.299 57.0898C102.299 57.2891 102.344 57.4707 102.434 57.6348C102.523 57.7988 102.658 57.9297 102.838 58.0273C103.021 58.1211 103.246 58.168 103.512 58.168C103.844 58.168 104.137 58.0977 104.391 57.957C104.645 57.8164 104.846 57.6445 104.994 57.4414C105.146 57.2383 105.229 57.041 105.24 56.8496L105.703 57.3711C105.676 57.5352 105.602 57.7168 105.48 57.916C105.359 58.1152 105.197 58.3066 104.994 58.4902C104.795 58.6699 104.557 58.8203 104.279 58.9414C104.006 59.0586 103.697 59.1172 103.354 59.1172C102.924 59.1172 102.547 59.0332 102.223 58.8652C101.902 58.6973 101.652 58.4727 101.473 58.1914C101.297 57.9062 101.209 57.5879 101.209 57.2363C101.209 56.8965 101.275 56.5977 101.408 56.3398C101.541 56.0781 101.732 55.8613 101.982 55.6895C102.232 55.5137 102.533 55.3809 102.885 55.291C103.236 55.2012 103.629 55.1562 104.062 55.1562H105.322ZM113.877 56.2109H111.797L111.785 55.3438H113.484C113.82 55.3438 114.1 55.3105 114.322 55.2441C114.549 55.1777 114.719 55.0781 114.832 54.9453C114.945 54.8125 115.002 54.6484 115.002 54.4531C115.002 54.3008 114.969 54.168 114.902 54.0547C114.84 53.9375 114.744 53.8418 114.615 53.7676C114.486 53.6895 114.326 53.6328 114.135 53.5977C113.947 53.5586 113.727 53.5391 113.473 53.5391H112.084V59H111V52.6602H113.473C113.875 52.6602 114.236 52.6953 114.557 52.7656C114.881 52.8359 115.156 52.9434 115.383 53.0879C115.613 53.2285 115.789 53.4082 115.91 53.627C116.031 53.8457 116.092 54.1035 116.092 54.4004C116.092 54.5918 116.053 54.7734 115.975 54.9453C115.896 55.1172 115.781 55.2695 115.629 55.4023C115.477 55.5352 115.289 55.6445 115.066 55.7305C114.844 55.8125 114.588 55.8652 114.299 55.8887L113.877 56.2109ZM113.877 59H111.404L111.943 58.1211H113.877C114.178 58.1211 114.428 58.084 114.627 58.0098C114.826 57.9316 114.975 57.8223 115.072 57.6816C115.174 57.5371 115.225 57.3652 115.225 57.166C115.225 56.9668 115.174 56.7969 115.072 56.6562C114.975 56.5117 114.826 56.4023 114.627 56.3281C114.428 56.25 114.178 56.2109 113.877 56.2109H112.23L112.242 55.3438H114.299L114.691 55.6719C115.039 55.6992 115.334 55.7852 115.576 55.9297C115.818 56.0742 116.002 56.2578 116.127 56.4805C116.252 56.6992 116.314 56.9375 116.314 57.1953C116.314 57.4922 116.258 57.7539 116.145 57.9805C116.035 58.207 115.875 58.3965 115.664 58.5488C115.453 58.6973 115.197 58.8105 114.896 58.8887C114.596 58.9629 114.256 59 113.877 59ZM120.457 55.9004V55.7656C120.457 55.3086 120.523 54.8848 120.656 54.4941C120.789 54.0996 120.98 53.7578 121.23 53.4688C121.48 53.1758 121.783 52.9492 122.139 52.7891C122.494 52.625 122.893 52.543 123.334 52.543C123.779 52.543 124.18 52.625 124.535 52.7891C124.895 52.9492 125.199 53.1758 125.449 53.4688C125.703 53.7578 125.896 54.0996 126.029 54.4941C126.162 54.8848 126.229 55.3086 126.229 55.7656V55.9004C126.229 56.3574 126.162 56.7812 126.029 57.1719C125.896 57.5625 125.703 57.9043 125.449 58.1973C125.199 58.4863 124.896 58.7129 124.541 58.877C124.189 59.0371 123.791 59.1172 123.346 59.1172C122.9 59.1172 122.5 59.0371 122.145 58.877C121.789 58.7129 121.484 58.4863 121.23 58.1973C120.98 57.9043 120.789 57.5625 120.656 57.1719C120.523 56.7812 120.457 56.3574 120.457 55.9004ZM121.541 55.7656V55.9004C121.541 56.2168 121.578 56.5156 121.652 56.7969C121.727 57.0742 121.838 57.3203 121.986 57.5352C122.139 57.75 122.328 57.9199 122.555 58.0449C122.781 58.166 123.045 58.2266 123.346 58.2266C123.643 58.2266 123.902 58.166 124.125 58.0449C124.352 57.9199 124.539 57.75 124.688 57.5352C124.836 57.3203 124.947 57.0742 125.021 56.7969C125.1 56.5156 125.139 56.2168 125.139 55.9004V55.7656C125.139 55.4531 125.1 55.1582 125.021 54.8809C124.947 54.5996 124.834 54.3516 124.682 54.1367C124.533 53.918 124.346 53.7461 124.119 53.6211C123.896 53.4961 123.635 53.4336 123.334 53.4336C123.037 53.4336 122.775 53.4961 122.549 53.6211C122.326 53.7461 122.139 53.918 121.986 54.1367C121.838 54.3516 121.727 54.5996 121.652 54.8809C121.578 55.1582 121.541 55.4531 121.541 55.7656ZM128.309 52.6602H129.393L129.299 55.0332C129.275 55.6348 129.207 56.1543 129.094 56.5918C128.98 57.0293 128.836 57.4023 128.66 57.7109C128.484 58.0156 128.287 58.2715 128.068 58.4785C127.854 58.6855 127.631 58.8594 127.4 59H126.861L126.891 58.1152L127.113 58.1094C127.242 57.957 127.367 57.8008 127.488 57.6406C127.609 57.4766 127.721 57.2832 127.822 57.0605C127.924 56.834 128.008 56.5586 128.074 56.2344C128.145 55.9062 128.189 55.5059 128.209 55.0332L128.309 52.6602ZM128.578 52.6602H132.393V59H131.309V53.6621H128.578V52.6602ZM126.615 58.1094H133.207V60.8691H132.123V59H127.699V60.8691H126.609L126.615 58.1094ZM138.709 55.4082V56.2871H135.357V55.4082H138.709ZM135.586 52.6602V59H134.502V52.6602H135.586ZM139.588 52.6602V59H138.498V52.6602H139.588ZM141.047 55.9004V55.7656C141.047 55.3086 141.113 54.8848 141.246 54.4941C141.379 54.0996 141.57 53.7578 141.82 53.4688C142.07 53.1758 142.373 52.9492 142.729 52.7891C143.084 52.625 143.482 52.543 143.924 52.543C144.369 52.543 144.77 52.625 145.125 52.7891C145.484 52.9492 145.789 53.1758 146.039 53.4688C146.293 53.7578 146.486 54.0996 146.619 54.4941C146.752 54.8848 146.818 55.3086 146.818 55.7656V55.9004C146.818 56.3574 146.752 56.7812 146.619 57.1719C146.486 57.5625 146.293 57.9043 146.039 58.1973C145.789 58.4863 145.486 58.7129 145.131 58.877C144.779 59.0371 144.381 59.1172 143.936 59.1172C143.49 59.1172 143.09 59.0371 142.734 58.877C142.379 58.7129 142.074 58.4863 141.82 58.1973C141.57 57.9043 141.379 57.5625 141.246 57.1719C141.113 56.7812 141.047 56.3574 141.047 55.9004ZM142.131 55.7656V55.9004C142.131 56.2168 142.168 56.5156 142.242 56.7969C142.316 57.0742 142.428 57.3203 142.576 57.5352C142.729 57.75 142.918 57.9199 143.145 58.0449C143.371 58.166 143.635 58.2266 143.936 58.2266C144.232 58.2266 144.492 58.166 144.715 58.0449C144.941 57.9199 145.129 57.75 145.277 57.5352C145.426 57.3203 145.537 57.0742 145.611 56.7969C145.689 56.5156 145.729 56.2168 145.729 55.9004V55.7656C145.729 55.4531 145.689 55.1582 145.611 54.8809C145.537 54.5996 145.424 54.3516 145.271 54.1367C145.123 53.918 144.936 53.7461 144.709 53.6211C144.486 53.4961 144.225 53.4336 143.924 53.4336C143.627 53.4336 143.365 53.4961 143.139 53.6211C142.916 53.7461 142.729 53.918 142.576 54.1367C142.428 54.3516 142.316 54.5996 142.242 54.8809C142.168 55.1582 142.131 55.4531 142.131 55.7656ZM151.822 57.5586L153.979 52.6602H155.021L152.197 59H151.447L148.635 52.6602H149.678L151.822 57.5586ZM149.361 52.6602V59H148.277V52.6602H149.361ZM154.248 59V52.6602H155.338V59H154.248ZM163.705 57.5586L165.861 52.6602H166.904L164.08 59H163.33L160.518 52.6602H161.561L163.705 57.5586ZM161.244 52.6602V59H160.16V52.6602H161.244ZM166.131 59V52.6602H167.221V59H166.131ZM171.598 59.1172C171.156 59.1172 170.756 59.043 170.396 58.8945C170.041 58.7422 169.734 58.5293 169.477 58.2559C169.223 57.9824 169.027 57.6582 168.891 57.2832C168.754 56.9082 168.686 56.498 168.686 56.0527V55.8066C168.686 55.291 168.762 54.832 168.914 54.4297C169.066 54.0234 169.273 53.6797 169.535 53.3984C169.797 53.1172 170.094 52.9043 170.426 52.7598C170.758 52.6152 171.102 52.543 171.457 52.543C171.91 52.543 172.301 52.6211 172.629 52.7773C172.961 52.9336 173.232 53.1523 173.443 53.4336C173.654 53.7109 173.811 54.0391 173.912 54.418C174.014 54.793 174.064 55.2031 174.064 55.6484V56.1348H169.33V55.25H172.98V55.168C172.965 54.8867 172.906 54.6133 172.805 54.3477C172.707 54.082 172.551 53.8633 172.336 53.6914C172.121 53.5195 171.828 53.4336 171.457 53.4336C171.211 53.4336 170.984 53.4863 170.777 53.5918C170.57 53.6934 170.393 53.8457 170.244 54.0488C170.096 54.252 169.98 54.5 169.898 54.793C169.816 55.0859 169.775 55.4238 169.775 55.8066V56.0527C169.775 56.3535 169.816 56.6367 169.898 56.9023C169.984 57.1641 170.107 57.3945 170.268 57.5938C170.432 57.793 170.629 57.9492 170.859 58.0625C171.094 58.1758 171.359 58.2324 171.656 58.2324C172.039 58.2324 172.363 58.1543 172.629 57.998C172.895 57.8418 173.127 57.6328 173.326 57.3711L173.982 57.8926C173.846 58.0996 173.672 58.2969 173.461 58.4844C173.25 58.6719 172.99 58.8242 172.682 58.9414C172.377 59.0586 172.016 59.1172 171.598 59.1172ZM177.867 58.2266C178.125 58.2266 178.363 58.1738 178.582 58.0684C178.801 57.9629 178.98 57.8184 179.121 57.6348C179.262 57.4473 179.342 57.2344 179.361 56.9961H180.393C180.373 57.3711 180.246 57.7207 180.012 58.0449C179.781 58.3652 179.479 58.625 179.104 58.8242C178.729 59.0195 178.316 59.1172 177.867 59.1172C177.391 59.1172 176.975 59.0332 176.619 58.8652C176.268 58.6973 175.975 58.4668 175.74 58.1738C175.51 57.8809 175.336 57.5449 175.219 57.166C175.105 56.7832 175.049 56.3789 175.049 55.9531V55.707C175.049 55.2812 175.105 54.8789 175.219 54.5C175.336 54.1172 175.51 53.7793 175.74 53.4863C175.975 53.1934 176.268 52.9629 176.619 52.7949C176.975 52.627 177.391 52.543 177.867 52.543C178.363 52.543 178.797 52.6445 179.168 52.8477C179.539 53.0469 179.83 53.3203 180.041 53.668C180.256 54.0117 180.373 54.4023 180.393 54.8398H179.361C179.342 54.5781 179.268 54.3418 179.139 54.1309C179.014 53.9199 178.842 53.752 178.623 53.627C178.408 53.498 178.156 53.4336 177.867 53.4336C177.535 53.4336 177.256 53.5 177.029 53.6328C176.807 53.7617 176.629 53.9375 176.496 54.1602C176.367 54.3789 176.273 54.623 176.215 54.8926C176.16 55.1582 176.133 55.4297 176.133 55.707V55.9531C176.133 56.2305 176.16 56.5039 176.215 56.7734C176.27 57.043 176.361 57.2871 176.49 57.5059C176.623 57.7246 176.801 57.9004 177.023 58.0332C177.25 58.1621 177.531 58.2266 177.867 58.2266ZM184.195 52.6602V59H183.105V52.6602H184.195ZM186.322 52.6602V53.5391H181.02V52.6602H186.322ZM189.551 59.1172C189.109 59.1172 188.709 59.043 188.35 58.8945C187.994 58.7422 187.688 58.5293 187.43 58.2559C187.176 57.9824 186.98 57.6582 186.844 57.2832C186.707 56.9082 186.639 56.498 186.639 56.0527V55.8066C186.639 55.291 186.715 54.832 186.867 54.4297C187.02 54.0234 187.227 53.6797 187.488 53.3984C187.75 53.1172 188.047 52.9043 188.379 52.7598C188.711 52.6152 189.055 52.543 189.41 52.543C189.863 52.543 190.254 52.6211 190.582 52.7773C190.914 52.9336 191.186 53.1523 191.396 53.4336C191.607 53.7109 191.764 54.0391 191.865 54.418C191.967 54.793 192.018 55.2031 192.018 55.6484V56.1348H187.283V55.25H190.934V55.168C190.918 54.8867 190.859 54.6133 190.758 54.3477C190.66 54.082 190.504 53.8633 190.289 53.6914C190.074 53.5195 189.781 53.4336 189.41 53.4336C189.164 53.4336 188.938 53.4863 188.73 53.5918C188.523 53.6934 188.346 53.8457 188.197 54.0488C188.049 54.252 187.934 54.5 187.852 54.793C187.77 55.0859 187.729 55.4238 187.729 55.8066V56.0527C187.729 56.3535 187.77 56.6367 187.852 56.9023C187.938 57.1641 188.061 57.3945 188.221 57.5938C188.385 57.793 188.582 57.9492 188.812 58.0625C189.047 58.1758 189.312 58.2324 189.609 58.2324C189.992 58.2324 190.316 58.1543 190.582 57.998C190.848 57.8418 191.08 57.6328 191.279 57.3711L191.936 57.8926C191.799 58.0996 191.625 58.2969 191.414 58.4844C191.203 58.6719 190.943 58.8242 190.635 58.9414C190.33 59.0586 189.969 59.1172 189.551 59.1172Z" fill="#E5E7EB"/>
<defs>
<clipPath id="clip0_515_6265">
<rect width="64" height="64" fill="white"/>
</clipPath>
</defs>
</svg>
