<svg width="16" height="16" viewBox="0 0 16 16" fill="none" xmlns="http://www.w3.org/2000/svg">
<path fill-rule="evenodd" clip-rule="evenodd" d="M8.00057 14V14C7.82336 14.001 7.65305 13.9315 7.52723 13.8067L2.34723 8.62001V8.62001C0.994933 7.25358 0.994933 5.05311 2.34723 3.68668V3.68668C3.71066 2.3271 5.91714 2.3271 7.28057 3.68668L8.00057 4.40668L8.72057 3.68668V3.68668C10.084 2.3271 12.2905 2.3271 13.6539 3.68668V3.68668C15.0062 5.05311 15.0062 7.25358 13.6539 8.62001L8.4739 13.8067V13.8067C8.34809 13.9315 8.17777 14.001 8.00057 14V14ZM4.81498 4.00002V4.00002C4.24494 3.99744 3.69758 4.22311 3.29498 4.62669L3.29498 4.62669C2.45679 5.4693 2.4568 6.83075 3.29498 7.67336L8.00165 12.3867L12.7083 7.67336V7.67336C13.5465 6.83075 13.5465 5.4693 12.7083 4.62669V4.62669C11.8552 3.82073 10.5214 3.82073 9.66832 4.62669L8.47498 5.82669V5.82669C8.2157 6.0881 7.7936 6.08983 7.53218 5.83055C7.53089 5.82927 7.5296 5.82798 7.52832 5.82669L6.33498 4.62669V4.62669C5.93239 4.22311 5.38503 3.99744 4.81499 4.00002L4.81498 4.00002Z" fill="white"/>
</svg>
