<svg width="32" height="32" viewBox="0 0 32 32" fill="none" xmlns="http://www.w3.org/2000/svg">
<g clip-path="url(#clip0_837_581)">
<path d="M0.857504 16.6314C1.02671 16.8642 1.28328 17.0181 1.56827 17.058C1.61888 17.0659 1.67006 17.0699 1.7213 17.0702C1.95487 17.0701 2.18181 16.9925 2.36646 16.8495L3.20357 16.2054V30.4004C3.20357 31.2838 3.91978 32 4.80319 32H27.1979C28.0813 32 28.7975 31.2838 28.7975 30.4004V16.2054L29.6346 16.8495C29.8619 17.0246 30.1504 17.1002 30.4344 17.0591C30.7184 17.0179 30.9736 16.8637 31.142 16.6313L31.7861 15.7499C32.1327 15.2717 32.0385 14.6048 31.5728 14.2415L30.1252 13.1276C30.5322 12.1191 30.4783 10.983 29.9774 10.0176C29.4766 9.05221 28.5788 8.35388 27.5199 8.10587C27.2667 8.04714 27.0561 7.87193 26.9526 7.63342C26.7228 7.08905 26.3646 6.60848 25.9086 6.2327C25.4267 5.82767 24.8517 5.54842 24.2354 5.42008C23.993 5.35634 23.7925 5.18613 23.6904 4.95725C23.5579 4.69162 23.3985 4.44025 23.2148 4.20705C22.5516 3.39037 21.5982 2.86187 20.5541 2.73222C20.2825 2.67923 20.0531 2.49858 19.9377 2.24702C19.8114 1.99583 19.6589 1.7587 19.4829 1.53944C18.6295 0.507246 17.3382 -0.0608062 16.0006 0.00761503C14.363 -0.0917363 12.8208 0.78393 12.0671 2.24121C11.9512 2.49627 11.7189 2.67948 11.4439 2.73284C10.3997 2.86281 9.44633 3.39193 8.78368 4.2093C8.6001 4.44275 8.4407 4.69431 8.30804 4.96006C8.20607 5.18751 8.00674 5.35665 7.7658 5.4202C7.15107 5.54767 6.57752 5.82536 6.09632 6.22857C5.64037 6.60679 5.28089 7.08799 5.04751 7.63249C4.94516 7.86799 4.73833 8.04189 4.4887 8.10225C3.80968 8.25546 3.18895 8.60044 2.70032 9.09614C1.63963 10.1509 1.31439 11.7387 1.87489 13.1256L0.427231 14.2442C-0.0384081 14.6076 -0.132698 15.2744 0.213969 15.7527L0.857504 16.6314ZM27.7311 30.4004C27.7311 30.6949 27.4924 30.9336 27.1979 30.9336H4.80325C4.50876 30.9336 4.27007 30.6948 4.27007 30.4004V15.3848L16.0006 6.35867L27.7311 15.3848V30.4004ZM2.67038 11.7382C2.66739 11.0294 2.95013 10.3494 3.45476 9.85171C3.80343 9.49754 4.24682 9.25129 4.73177 9.14256C5.31226 9.00404 5.79333 8.59969 6.02959 8.05164C6.19498 7.6616 6.45236 7.3175 6.77978 7.04869C7.12676 6.75651 7.54079 6.55499 7.98481 6.46214C8.54761 6.33517 9.02 5.95507 9.2645 5.43251C9.36304 5.23343 9.48226 5.04523 9.62017 4.87102C10.113 4.26548 10.8228 3.87632 11.5984 3.78647C12.2143 3.68643 12.7428 3.2924 13.0146 2.73072C13.5872 1.62923 14.7629 0.976884 16.0006 1.07405C17.0133 1.01106 17.996 1.43134 18.6501 2.20709C18.7809 2.36993 18.8943 2.5462 18.9881 2.73284C19.2592 3.29358 19.7864 3.68718 20.4011 3.78753C21.1767 3.87694 21.8869 4.26548 22.3804 4.87046C22.5183 5.04454 22.6377 5.2325 22.7365 5.43139C22.9809 5.9547 23.4531 6.33592 24.0162 6.4642C24.4616 6.55668 24.8772 6.7582 25.2256 7.05075C25.5512 7.31731 25.8071 7.65892 25.9715 8.04626C26.2079 8.59776 26.6915 9.00478 27.2752 9.14363C27.9809 9.30671 28.5893 9.75111 28.9593 10.3738C29.3294 10.9964 29.4288 11.7432 29.2348 12.441L16.971 3.00321C16.3992 2.56438 15.604 2.56438 15.0323 3.00321L2.76855 12.441C2.70425 12.2122 2.67126 11.9758 2.67038 11.7382V11.7382ZM15.6807 3.84995C15.8686 3.7028 16.1326 3.7028 16.3205 3.84995L30.9256 15.1203L30.2863 16.0039L16.3258 5.26293C16.1341 5.11534 15.8671 5.11534 15.6753 5.26293L1.71967 16.0038L1.07983 15.0883L15.6807 3.84995Z" fill="#2563EB"/>
<path d="M11.7349 12.2714V17.6034H6.93602C6.64153 17.6034 6.40283 17.8421 6.40283 18.1366C6.40283 18.4311 6.64159 18.6698 6.93602 18.6698H25.065C25.3595 18.6698 25.5982 18.4311 25.5982 18.1366C25.5982 17.8421 25.3594 17.6034 25.065 17.6034H20.2662V12.2714C20.2662 11.6824 19.7887 11.205 19.1997 11.205H12.8012C12.2123 11.205 11.7349 11.6824 11.7349 12.2714V12.2714ZM16.5337 12.2714H18.8052L16.5337 16.1638V12.2714ZM15.4673 16.1638L13.1958 12.2714H15.4673V16.1638ZM12.8013 13.711L15.0722 17.6034H12.8013V13.711ZM16.9288 17.6034L19.1997 13.711V17.6034H16.9288Z" fill="#2563EB"/>
<path d="M25.065 21.3359C25.065 20.7469 24.5876 20.2695 23.9986 20.2695H20.7994C20.2104 20.2695 19.7329 20.7469 19.7329 21.3359V25.0683H18.6665V21.3359C18.6665 20.7469 18.189 20.2695 17.6001 20.2695H14.4008C13.8118 20.2695 13.3344 20.7469 13.3344 21.3359V25.0683H12.268V21.3359C12.268 20.7469 11.7905 20.2695 11.2015 20.2695H8.00229C7.41331 20.2695 6.93586 20.7469 6.93586 21.3359V25.0683H5.86961C5.57512 25.0683 5.33643 25.307 5.33643 25.6015C5.33643 25.896 5.57518 26.1347 5.86961 26.1347H6.4028V28.2675C6.4028 28.8565 6.88025 29.3339 7.46923 29.3339H24.5319C25.1208 29.3339 25.5983 28.8565 25.5983 28.2675V26.1347H26.1315C26.426 26.1347 26.6647 25.896 26.6647 25.6015C26.6647 25.307 26.426 25.0683 26.1315 25.0683H25.065V21.3359ZM13.8677 26.1348H15.4673V28.2676H10.1353V26.1348H13.8677ZM16.5338 26.1348H21.8658V28.2676H16.5338V26.1348ZM14.401 21.3359H17.6002V25.0683H16.5338C16.5338 24.7738 16.295 24.5351 16.0006 24.5351C15.7061 24.5351 15.4674 24.7739 15.4674 25.0683H14.401V21.3359ZM8.00248 21.3359H11.2017V25.0683H10.1353C10.1353 24.7738 9.89653 24.5351 9.6021 24.5351C9.3076 24.5351 9.06891 24.7739 9.06891 25.0683H8.00248V21.3359ZM7.46923 26.1348H9.06885V28.2676H7.46923V26.1348ZM24.5319 28.2676H22.9322V26.1348H24.5319V28.2676ZM22.9322 25.0683C22.9322 24.7738 22.6935 24.5351 22.399 24.5351C22.1046 24.5351 21.8659 24.7739 21.8659 25.0683H20.7994V21.3359H23.9987V25.0683H22.9322Z" fill="#2563EB"/>
</g>
<defs>
<clipPath id="clip0_837_581">
<rect width="32" height="32" fill="white"/>
</clipPath>
</defs>
</svg>
