<svg width="32" height="32" viewBox="0 0 32 32" fill="none" xmlns="http://www.w3.org/2000/svg">
<path d="M30.4 0H1.6C0.716375 0 0 0.716375 0 1.6V25.0667C0 25.9503 0.716375 26.6667 1.6 26.6667H10.8704L9.80375 28.8H8C7.11638 28.8 6.4 29.5164 6.4 30.4C6.4 31.2836 7.11638 32 8 32H24C24.8836 32 25.6 31.2837 25.6 30.4C25.6 29.5163 24.8836 28.8 24 28.8H22.1963L21.1296 26.6667H30.4C31.2836 26.6667 32 25.9503 32 25.0667V1.6C32 0.716375 31.2837 0 30.4 0V0ZM1.6 1.06669H30.4C30.6946 1.06669 30.9333 1.3055 30.9333 1.6V22.4H1.06669V1.6C1.06669 1.30544 1.30544 1.06669 1.6 1.06669V1.06669ZM24.5333 30.4C24.5333 30.6946 24.2946 30.9333 24 30.9333H8C7.70544 30.9333 7.46669 30.6946 7.46669 30.4C7.46669 30.1054 7.7055 29.8667 8 29.8667H24C24.2946 29.8667 24.5333 30.1054 24.5333 30.4ZM21.0037 28.8H10.9963L12.0629 26.6667H19.9371L21.0037 28.8ZM30.4 25.6H1.6C1.30544 25.6 1.06669 25.3612 1.06669 25.0667V23.4667H30.9334V25.0667C30.9333 25.3612 30.6946 25.6 30.4 25.6Z" fill="#2563EB"/>
<path d="M2.66661 20.8H29.3333C29.6279 20.8 29.8666 20.5612 29.8666 20.2667C29.8666 19.9721 29.6278 19.7334 29.3333 19.7334H29.0752L25.8255 15.1547C27.4666 13.2443 29.7445 9.93388 29.2693 6.68481C28.9037 4.06038 26.6496 2.11338 23.9999 2.13332H23.9685C21.7712 2.16457 19.8165 3.53631 19.0399 5.592L18.0842 4.248C17.8593 3.91313 17.4772 3.71838 17.074 3.73331C16.6699 3.74006 16.2955 3.94713 16.0751 4.28588L11.217 11.7915L10.6303 10.8091C10.4154 10.4463 10.0264 10.222 9.60467 10.2177C9.18192 10.2129 8.78655 10.4261 8.5583 10.7819L2.90605 19.7333H2.66661C2.37205 19.7333 2.1333 19.9721 2.1333 20.2666C2.1333 20.5611 2.37205 20.8 2.66661 20.8V20.8ZM23.9765 3.2H23.9999C26.1182 3.18469 27.9201 4.741 28.2132 6.83894C28.73 10.3744 25.2458 14.2806 24.1658 15.3941C24.129 15.45 24.0665 15.4836 23.9997 15.4836C23.9328 15.4836 23.8704 15.45 23.8335 15.3941C22.601 14.1237 19.7333 10.8187 19.7333 7.5765C19.709 5.20131 21.6016 3.24931 23.9765 3.2ZM16.9695 4.86719C16.9962 4.82556 17.0422 4.80025 17.0917 4.8C17.1402 4.79931 17.1857 4.82319 17.2127 4.86344L18.706 6.96C18.6815 7.16463 18.6684 7.37044 18.6666 7.57656C18.6697 7.95094 18.7031 8.32438 18.7664 8.69338L18.2037 9.071L17.8229 8.68488C17.3994 8.27931 16.7317 8.27931 16.3082 8.68488L15.9349 9.06356L14.7615 8.28169L16.9695 4.86719ZM9.45699 11.3536C9.48455 11.3094 9.53336 11.2828 9.58555 11.2837C9.6383 11.2832 9.68717 11.3111 9.71355 11.3568L10.5669 12.7814L8.93755 15.1664C8.82017 15.3234 8.7983 15.5321 8.88067 15.71C8.96305 15.8879 9.1363 16.0062 9.33192 16.0182C9.52755 16.0302 9.71405 15.934 9.81755 15.7676L11.6394 13.1009V13.0961L11.6453 13.0891L14.1765 9.17875L15.3312 9.94731C15.7554 10.2344 16.3234 10.1807 16.6864 9.81931L17.0629 9.43531L17.4501 9.82731C17.6524 10.0244 17.9239 10.1343 18.2064 10.1334C18.4147 10.1344 18.6184 10.0715 18.7898 9.95319L19.0234 9.7985C19.8687 12.5857 22.0186 15.0545 23.0687 16.1366C23.3121 16.3902 23.6484 16.5336 23.9999 16.5334C24.3514 16.5337 24.6878 16.3903 24.9311 16.1366C24.9812 16.0833 25.0378 16.0236 25.0911 15.9665L27.7674 19.7334H4.16736L9.45699 11.3536Z" fill="#2563EB"/>
<path d="M24 10.6667C25.7674 10.6667 27.2001 9.23401 27.2001 7.46669C27.2001 5.69938 25.7674 4.26669 24 4.26669C22.2327 4.26669 20.8 5.69938 20.8 7.46669C20.8018 9.23326 22.2335 10.6649 24 10.6667ZM24 5.33332C25.1782 5.33332 26.1334 6.28844 26.1334 7.46663C26.1334 8.64482 25.1782 9.60001 24 9.60001C22.8219 9.60001 21.8667 8.64488 21.8667 7.46669C21.8667 6.28851 22.8219 5.33332 24 5.33332V5.33332Z" fill="#2563EB"/>
</svg>
