<svg width="12" height="8" viewBox="0 0 12 8" fill="none" xmlns="http://www.w3.org/2000/svg">
<path fill-rule="evenodd" clip-rule="evenodd" d="M9.05383 3.3413L7.52715 1.81769V1.81104C7.26048 1.5449 7.26048 1.12575 7.52715 0.86627C7.78715 0.600139 8.20715 0.600139 8.47381 0.86627L11.1405 3.52758C11.2977 3.68047 11.3599 3.89662 11.3269 4.10099C11.3014 4.2787 11.2047 4.43432 11.067 4.53802L8.46669 7.13308C8.34002 7.25284 8.16669 7.32602 7.99335 7.32602L8.00002 7.33334C7.82002 7.33334 7.64669 7.26015 7.52669 7.14039C7.26002 6.88092 7.26002 6.45511 7.52002 6.19563V6.18898L9.04009 4.67196H1.33366C0.960326 4.67196 0.666992 4.37256 0.666992 4.00663C0.666992 3.63405 0.960326 3.3413 1.33366 3.3413H9.05383Z" fill="white"/>
</svg>
