<svg width="24" height="24" viewBox="0 0 24 24" fill="none" xmlns="http://www.w3.org/2000/svg">
<path fill-rule="evenodd" clip-rule="evenodd" d="M9 2C6.23858 2 4 4.23858 4 7C4 9.76142 6.23858 12 9 12C11.7614 12 14 9.76142 14 7C14 4.23858 11.7614 2 9 2ZM9 4C10.6569 4 12 5.34315 12 7C12 8.65685 10.6569 10 9 10C7.34315 10 6 8.65685 6 7C6 5.34315 7.34315 4 9 4ZM15.9954 18.7831C15.8818 16.1223 13.6888 14 11 14H7L6.78311 14.0046C4.12231 14.1182 2 16.3112 2 19V21L2.00673 21.1166C2.06449 21.614 2.48716 22 3 22C3.55228 22 4 21.5523 4 21V19L4.00509 18.8237C4.09634 17.2489 5.40232 16 7 16H11L11.1763 16.0051C12.7511 16.0963 14 17.4023 14 19V21L14.0067 21.1166C14.0645 21.614 14.4872 22 15 22C15.5523 22 16 21.5523 16 21V19L15.9954 18.7831ZM15.0312 2.88196C15.1682 2.34694 15.713 2.02426 16.248 2.16125C18.4604 2.72771 20.0078 4.72124 20.0078 7.005C20.0078 9.28876 18.4604 11.2823 16.248 11.8487C15.713 11.9857 15.1682 11.6631 15.0312 11.128C14.8943 10.593 15.2169 10.0482 15.752 9.91125C17.0794 9.57137 18.0078 8.37526 18.0078 7.005C18.0078 5.63474 17.0794 4.43863 15.752 4.09875C15.2169 3.96176 14.8943 3.41699 15.0312 2.88196ZM18.25 14.1817C17.7152 14.0437 17.1698 14.3653 17.0317 14.9C16.8937 15.4348 17.2153 15.9802 17.75 16.1182C19.0684 16.4586 19.9922 17.6442 20 19.0057L20 21L20.0067 21.1166C20.0645 21.614 20.4872 22 21 22C21.5523 22 22 21.5523 22 21V19L21.9936 18.7735C21.8836 16.5948 20.374 14.7301 18.25 14.1817Z" fill="#10B981"/>
</svg>
