<svg width="100" height="100" viewBox="0 0 100 100" fill="none" xmlns="http://www.w3.org/2000/svg">
<g clip-path="url(#clip0_815_1951)">
<path d="M7.64521 74.9846L11.0028 74.748C21.4454 74.0114 31.3099 73.3182 41.6726 73.3182H42.6507L42.1625 73.8064C41.7294 74.2248 41.5556 74.8442 41.7081 75.4269C41.8606 76.0094 42.3156 76.4646 42.8981 76.6169C43.4808 76.7694 44.1002 76.5956 44.5186 76.1625L47.3613 73.3182H56.6692C68.4315 73.3182 81.7002 74.2397 92.486 74.9844C96.8393 74.7142 100.176 71.0107 99.9927 66.6529C100.181 62.2498 96.7719 58.5241 92.3694 58.3215C79.8873 59.1896 67.7617 59.9693 56.6776 59.9877L47.358 59.9777L44.5253 57.145C44.1068 56.7119 43.4874 56.5381 42.9047 56.6906C42.3223 56.8431 41.8673 57.2981 41.7148 57.8805C41.5623 58.463 41.7361 59.0826 42.1692 59.5011L42.6423 59.9742H41.6726C31.3617 59.9576 21.4139 59.2943 10.9513 58.5595L7.53039 58.3213C3.17084 58.581 -0.174295 62.2897 0.0155052 66.6527C-0.161017 71.0545 3.24543 74.7739 7.64521 74.9846ZM36.9385 64.3037L41.919 63.3039H45.005V69.9858H41.8392L36.9385 69.0059C35.8171 68.7815 35.0099 67.7968 35.0099 66.6531C35.0099 65.5095 35.8171 64.5247 36.9385 64.3004V64.3037ZM61.4028 69.0094L56.669 69.9526V63.3541L61.4046 64.3005C62.526 64.5249 63.3333 65.5096 63.3333 66.6533C63.3333 67.797 62.526 68.7817 61.4046 69.0061L61.4028 69.0094ZM53.3363 69.9858H48.3375V63.3123H53.3363V69.9858ZM92.4774 61.6543C94.9973 61.9091 96.8535 64.1279 96.6598 66.6531C96.8428 69.1334 95.0596 71.3259 92.5942 71.652C84.4644 71.0871 74.8283 70.4206 65.4636 70.1307C67.0656 68.0846 67.0656 65.2099 65.4636 63.1639C74.1283 62.8958 83.2346 62.2993 92.4774 61.6543ZM7.41362 61.6543L10.7162 61.8843C18.2795 62.4158 25.5194 62.8841 32.9078 63.1323C31.2775 65.1857 31.2691 68.0895 32.8879 70.1523C25.5345 70.3972 18.2996 70.8955 10.7697 71.4237L7.53879 71.652C5.021 71.3913 3.16537 69.1778 3.34814 66.6531C3.15541 64.1699 4.94329 61.9718 7.41362 61.6543Z" fill="#2563EB"/>
<path d="M7.64533 98.3127L11.003 98.0761C21.4455 97.3395 31.3101 96.6463 41.6727 96.6463H42.6508L42.1627 97.1345C41.7295 97.553 41.5558 98.1723 41.7083 98.755C41.8608 99.3375 42.3157 99.7927 42.8982 99.945C43.4809 100.097 44.1003 99.9237 44.5188 99.4906L47.3615 96.6463H56.6693C68.4317 96.6463 81.7003 97.5678 92.4861 98.3125C96.8394 98.0423 100.176 94.3389 99.9928 89.9811C100.181 85.578 96.7721 81.8523 92.3696 81.6496C79.8874 82.5177 67.7619 83.2974 56.6777 83.3158L47.3582 83.3058L44.5254 80.4731C44.1069 80.04 43.4875 79.8662 42.9049 80.0187C42.3224 80.1712 41.8674 80.6262 41.7149 81.2087C41.5624 81.7911 41.7362 82.4107 42.1693 82.8292L42.6424 83.3023H41.3544C31.0917 83.3023 21.3073 82.6158 10.9563 81.8876L7.53032 81.6494C3.23267 82.0819 -0.0296724 85.7141 0.000203549 90.0332C0.0300795 94.3527 3.34221 97.9396 7.64533 98.3127ZM36.9387 87.6318L41.9192 86.632H45.0052V93.3139H41.8393L36.9387 92.334C35.8172 92.1097 35.01 91.1249 35.01 89.9813C35.01 88.8376 35.8172 87.8528 36.9387 87.6285V87.6318ZM61.403 92.3374L56.6691 93.2805V86.682L61.4047 87.6285C62.5262 87.8528 63.3334 88.8376 63.3334 89.9813C63.3334 91.1249 62.5262 92.1097 61.4047 92.334L61.403 92.3374ZM53.3365 93.3139H48.3376V86.6488H53.3365V93.3139ZM92.4775 84.9824C94.8741 85.422 96.6237 87.4971 96.6522 89.9332C96.6807 92.3696 94.9799 94.4847 92.5943 94.9801C84.4645 94.4152 74.8284 93.7488 65.4638 93.4588C67.0658 91.4128 67.0658 88.538 65.4638 86.492C74.1284 86.2237 83.2347 85.6274 92.4775 84.9824ZM7.41375 84.9824L10.7163 85.2124C18.2679 85.7439 25.5196 86.2456 32.8913 86.4854C31.2747 88.538 31.2747 91.4311 32.8913 93.4838C25.5379 93.7286 18.3031 94.227 10.7731 94.7552L7.53891 94.9801C5.142 94.5427 3.39045 92.469 3.35998 90.0326C3.32933 87.5965 5.02835 85.4796 7.41375 84.9824Z" fill="#2563EB"/>
<path d="M3.31448 26.3741L25.0095 34.4057V46.6579C25.0095 53.1365 47.446 53.323 50.0038 53.323C52.5616 53.323 74.9981 53.1363 74.9981 46.6579V34.4057L84.9958 30.7047V36.9301C82.9777 37.5499 81.4839 39.2581 81.1383 41.3408L80.3436 46.1096C80.1825 47.076 80.4547 48.0644 81.0879 48.8119C81.7212 49.5594 82.6514 49.9906 83.6311 49.9904H89.693C90.6727 49.9906 91.6029 49.5594 92.2362 48.8119C92.8694 48.0644 93.1416 47.076 92.9805 46.1096L92.1858 41.339C91.8394 39.2571 90.3458 37.55 88.3283 36.9301V29.4701L96.6896 26.3758C98.671 25.6547 99.9899 23.7714 99.9899 21.6627C99.9899 19.5542 98.671 17.6706 96.6896 16.9495L51.78 0.316554C50.6328 -0.10503 49.3731 -0.10503 48.2257 0.316554L3.3178 16.9479C1.33642 17.669 0.0175781 19.5524 0.0175781 21.6611C0.0175781 23.7698 1.33642 25.6532 3.3178 26.3743H3.31448V26.3741ZM89.6963 46.6577H83.6311L84.4243 41.8889C84.6086 40.7968 85.5545 39.9971 86.662 39.9971C87.7696 39.9971 88.7155 40.7968 88.8998 41.8889L89.6963 46.6577ZM71.6655 42.992C65.3187 40.1026 51.945 39.9927 50.0038 39.9927C48.0627 39.9927 34.689 40.1026 28.3422 42.992V26.8089C29.3419 25.5258 37.1985 23.3297 50.0038 23.3297C62.8091 23.3297 70.6657 25.5258 71.6655 26.8089V42.992ZM50.0038 49.9904C37.6732 49.9904 29.9201 47.9541 28.4804 46.6577C29.9201 45.3614 37.6666 43.3251 50.0038 43.3251C62.341 43.3251 70.0875 45.3614 71.5272 46.6577C70.0875 47.9541 62.3342 49.9904 50.0038 49.9904ZM96.6598 21.6634C96.6691 22.3799 96.2155 23.0206 95.5368 23.2498L88.3285 25.9175V17.4062L95.5401 20.0722C96.2194 20.303 96.6719 20.9462 96.6598 21.6634ZM4.47242 20.0755L49.3821 3.4426C49.7834 3.2983 50.2223 3.2983 50.6234 3.4426L84.9956 16.1647V27.1438L74.9979 30.8447V26.6623C74.9979 20.1837 52.5614 19.9972 50.0036 19.9972C47.4458 19.9972 25.0093 20.1839 25.0093 26.6623V30.8514L4.46754 23.2482C3.8005 23.0075 3.35607 22.3744 3.35607 21.6652C3.35607 20.956 3.8005 20.3229 4.46754 20.0822L4.47242 20.0755Z" fill="#2563EB"/>
</g>
<defs>
<clipPath id="clip0_815_1951">
<rect width="100" height="100" fill="white"/>
</clipPath>
</defs>
</svg>
