<svg width="100" height="100" viewBox="0 0 100 100" fill="none" xmlns="http://www.w3.org/2000/svg">
<path d="M95.0002 0H28.3336C25.5721 0 23.3336 2.23867 23.3336 5V6.6666H21.667C18.9057 6.6666 16.667 8.90527 16.667 11.6666V51.6666C16.667 54.4279 18.9057 56.6666 21.667 56.6666H88.3336C91.0949 56.6666 93.3336 54.4279 93.3336 51.6666V50H95.0002C97.7616 50 100 47.7615 100 45V5C100 2.23867 97.7617 0 95.0002 0V0ZM90.0002 51.6666C90.0002 52.5871 89.2541 53.3332 88.3336 53.3332H21.6668C20.7463 53.3332 20.0002 52.5871 20.0002 51.6666V11.6666C20.0002 10.7461 20.7463 10 21.6668 10H88.3334C89.2539 10 90 10.7463 90 11.6666V51.6666H90.0002ZM96.6668 45C96.6668 45.9205 95.9207 46.6666 95.0002 46.6666H93.3336V11.6666C93.3336 8.90527 91.0949 6.6666 88.3336 6.6666H26.6668V5C26.6668 4.07949 27.4131 3.3334 28.3334 3.3334H95.0002C95.9207 3.3334 96.6668 4.07969 96.6668 5V45Z" fill="#2563EB"/>
<path d="M85.0001 20C82.2388 20 80.0001 17.7613 80.0001 15C80.0001 14.0795 79.2538 13.3334 78.3335 13.3334H31.6667C30.7462 13.3334 30.0001 14.0797 30.0001 15C30.0001 17.7613 27.7614 20 25.0001 20C24.0796 20 23.3335 20.7461 23.3335 21.6666V41.6666C23.3335 42.5871 24.0796 43.3332 25.0001 43.3332C27.7616 43.3332 30.0001 45.5719 30.0001 48.3332C30.0001 49.2537 30.7464 49.9998 31.6667 49.9998H78.3333C79.2538 49.9998 79.9999 49.2537 79.9999 48.3332C79.9999 45.5719 82.2386 43.3332 84.9999 43.3332C85.9204 43.3332 86.6665 42.5869 86.6665 41.6666V21.6666C86.6667 20.7463 85.9206 20 85.0001 20V20ZM83.3335 40.1666C80.0626 40.8394 77.5063 43.3957 76.8335 46.6666H33.1667C32.4938 43.3957 29.9376 40.8394 26.6667 40.1666V23.1666C29.9376 22.4937 32.4938 19.9375 33.1667 16.6666H76.8333C77.5061 19.9375 80.0624 22.4937 83.3333 23.1666V40.1666H83.3335Z" fill="#2563EB"/>
<path d="M55 21.6666C49.4772 21.6666 45 26.1438 45 31.6666C45 37.1895 49.4772 41.6666 55 41.6666C60.5229 41.6666 65 37.1895 65 31.6666C64.9945 26.1461 60.5205 21.6723 55 21.6666V21.6666ZM55 38.3334C51.3182 38.3334 48.3334 35.3487 48.3334 31.6668C48.3334 27.985 51.3182 25 55 25C58.6818 25 61.6666 27.9848 61.6666 31.6666C61.6666 35.3485 58.6818 38.3334 55 38.3334Z" fill="#2563EB"/>
<path d="M35 26.6666C32.2385 26.6666 30 28.9053 30 31.6666C30 34.428 32.2387 36.6666 35 36.6666C37.7613 36.6666 40 34.428 40 31.6666C40 28.9053 37.7615 26.6666 35 26.6666ZM35 33.3334C34.0795 33.3334 33.3334 32.5871 33.3334 31.6668C33.3334 30.7463 34.0797 30.0002 35 30.0002C35.9203 30.0002 36.6666 30.7465 36.6666 31.6668C36.6666 32.5871 35.9205 33.3334 35 33.3334Z" fill="#2563EB"/>
<path d="M75 26.6666C72.2387 26.6666 70 28.9053 70 31.6666C70 34.428 72.2387 36.6666 75 36.6666C77.7613 36.6666 80 34.428 80 31.6666C80 28.9053 77.7613 26.6666 75 26.6666ZM75 33.3334C74.0795 33.3334 73.3334 32.5871 73.3334 31.6668C73.3334 30.7463 74.0797 30.0002 75 30.0002C75.9203 30.0002 76.6666 30.7465 76.6666 31.6668C76.6666 32.5871 75.9205 33.3334 75 33.3334Z" fill="#2563EB"/>
<path d="M5 99.9999H11.6666C13.7779 99.9912 15.6563 98.6572 16.36 96.6665H46.6666H55.0482C57.1508 96.606 59.1484 95.7347 60.6232 94.2349L81.4232 73.0581C84.0217 70.4249 83.9934 66.1839 81.3602 63.5855C78.899 61.157 74.994 61.0007 72.3465 63.2247L58.7898 74.5747C57.4619 72.74 55.3314 71.6574 53.0666 71.6663H36.0832C35.7365 71.6804 35.3955 71.5757 35.1166 71.3697C32.741 69.4017 29.7514 68.3275 26.6666 68.3329C23.1605 68.2818 19.674 68.8617 16.3732 70.0447C15.6857 68.0298 13.7955 66.6732 11.6666 66.6663H5C2.23867 66.6663 0 68.905 0 71.6663V94.9999C0 97.7615 2.23867 99.9999 5 99.9999V99.9999ZM32.9883 73.9349C33.8658 74.637 34.9596 75.0134 36.0832 74.9999H53.0666C54.6629 74.9765 56.0854 76.0029 56.5666 77.5249C56.6215 77.7271 56.6557 77.9343 56.6684 78.1433C56.7188 79.0683 56.3846 79.9732 55.7451 80.6433C55.1166 81.3023 54.2439 81.6726 53.3334 81.6667H35C34.0795 81.6667 33.3334 82.4128 33.3334 83.3333C33.3334 84.2538 34.0797 84.9999 35 84.9999H53.3334C57.0152 85.0054 60.0045 82.0251 60.01 78.3431C60.0102 78.2187 60.0068 78.0941 60 77.9699C60 77.9515 60 77.9331 60 77.9148L74.5 65.7781C75.9211 64.5876 78.0383 64.7747 79.2287 66.1958C79.2303 66.1978 79.2318 66.1995 79.2334 66.2015C80.3316 67.532 80.26 69.474 79.0668 70.7199L58.2699 91.8867C57.408 92.7736 56.2359 93.2921 55 93.3333H16.6666V73.5117C19.842 72.2306 23.2432 71.6031 26.6666 71.6667C28.9762 71.6495 31.2166 72.4535 32.9883 73.9349V73.9349ZM3.3334 71.6665C3.3334 70.746 4.07969 69.9999 5 69.9999H11.6666C12.5871 69.9999 13.3332 70.746 13.3332 71.6665V94.9999C13.3332 95.9204 12.5869 96.6665 11.6666 96.6665H5C4.07949 96.6665 3.3334 95.9204 3.3334 94.9999V71.6665Z" fill="#2563EB"/>
</svg>
