<svg width="100" height="100" viewBox="0 0 100 100" fill="none" xmlns="http://www.w3.org/2000/svg">
<path d="M69.077 8.42277C69.077 3.77851 65.2985 0 60.6542 0C56.01 0 52.2314 3.77851 52.2314 8.42277C52.2314 9.20638 52.4091 11.9662 52.678 16.1434C53.2002 24.2553 53.9974 36.6419 54.32 47.0781C53.5406 47.1834 52.9391 47.8494 52.9391 48.6577C52.9391 49.4947 53.5838 50.1798 54.4036 50.2468C54.4414 51.9889 54.4629 53.6545 54.4629 55.2047C54.4629 57.8883 54.3997 60.6168 54.2951 63.3153C53.958 72 53.1897 80.359 52.6817 85.8807C52.4108 88.8258 52.2317 90.7715 52.2317 91.577C52.2317 96.2215 56.0102 99.9998 60.6544 99.9998C65.2987 99.9998 69.0772 96.2213 69.0772 91.577C69.0772 90.7715 68.8983 88.8258 68.6272 85.8807C68.1191 80.3592 67.3508 72.0009 67.0142 63.3266C67.0145 63.3183 67.0136 63.3128 67.0134 63.3068C66.9089 60.6113 66.8459 57.8858 66.8459 55.2049C66.8459 53.6547 66.8674 51.9892 66.9053 50.247C67.7251 50.1802 68.3698 49.4949 68.3698 48.6579C68.3698 47.8496 67.7683 47.1834 66.9887 47.0783C67.3113 36.6421 68.1085 24.2555 68.6306 16.1436C68.8993 11.9662 69.077 9.2066 69.077 8.42277ZM60.6542 3.19149C63.5389 3.19149 65.8855 5.5383 65.8855 8.42277C65.8855 9.10383 65.6913 12.1198 65.4455 15.9385C64.9206 24.0921 64.1189 36.5487 63.7961 47.0621H62.2498V42.2749C62.2498 41.3936 61.5353 40.6792 60.654 40.6792C59.7727 40.6792 59.0583 41.3936 59.0583 42.2749V47.0621H57.5119C57.1891 36.5487 56.3874 24.0923 55.8627 15.9385C55.617 12.12 55.4227 9.10383 55.4227 8.42277C55.4227 5.5383 57.7695 3.19149 60.6542 3.19149ZM63.7636 61.7285H62.25V55.0411C62.25 54.1598 61.5355 53.4453 60.6542 53.4453C59.7729 53.4453 59.0585 54.1598 59.0585 55.0411V61.7285H57.5446C57.614 59.5526 57.654 57.3653 57.654 55.2049C57.654 53.6545 57.6327 51.9915 57.5955 50.2536H60.6521C60.6561 50.2536 63.7127 50.2536 63.7127 50.2536C63.6755 51.9913 63.6542 53.6545 63.6542 55.2049C63.6542 57.3653 63.6942 59.5526 63.7636 61.7285ZM60.6542 96.8085C57.7695 96.8085 55.4229 94.4617 55.4229 91.5772C55.4229 90.9181 55.6155 88.8243 55.8595 86.1732C56.3421 80.9277 57.0585 73.1413 57.4229 64.92H63.8857C64.2502 73.1413 64.9666 80.9277 65.4491 86.1732C65.693 88.8241 65.8857 90.9181 65.8857 91.5772C65.8855 94.4617 63.5387 96.8085 60.6542 96.8085Z" fill="#2563EB"/>
<path d="M85.7586 20.5351H84.5484V11.2858C85.1354 11.0502 85.5505 10.4766 85.5505 9.80534C85.5505 8.92406 84.836 8.20959 83.9547 8.20959H76.9396C76.0583 8.20959 75.3439 8.92406 75.3439 9.80534C75.3439 10.4766 75.759 11.05 76.346 11.2858V20.5351H75.1358C74.2545 20.5351 73.54 21.2496 73.54 22.1309C73.54 23.0121 74.2545 23.7266 75.1358 23.7266H78.8513V82.6194H76.9396C76.0583 82.6194 75.3439 83.3339 75.3439 84.2151C75.3439 85.0964 76.0583 85.8109 76.9396 85.8109H78.8513V90.1947C78.8513 91.076 79.5658 91.7905 80.4471 91.7905C81.3284 91.7905 82.0428 91.076 82.0428 90.1947V85.8109H83.9547C84.836 85.8109 85.5505 85.0964 85.5505 84.2151C85.5505 83.3339 84.836 82.6194 83.9547 82.6194H82.0428V23.7266H85.7586C86.6399 23.7266 87.3543 23.0121 87.3543 22.1309C87.3543 21.2496 86.6399 20.5351 85.7586 20.5351ZM79.5375 11.4011H81.3569V20.5351H79.5375V11.4011Z" fill="#2563EB"/>
<path d="M47.7686 8.42277C47.7686 3.77851 43.9901 0 39.3456 0C34.7012 0 30.9229 3.77851 30.9229 8.42277C30.9229 9.20638 31.1005 11.9662 31.3694 16.1434C31.8916 24.2553 32.6888 36.6419 33.0114 47.0781C32.2318 47.1832 31.6303 47.8494 31.6303 48.6577C31.6303 49.4947 32.275 50.1798 33.0948 50.2468C33.1326 51.9889 33.1541 53.6545 33.1541 55.2047C33.1541 57.8855 33.0909 60.6111 32.9867 63.3066C32.9867 63.3126 32.9858 63.3181 32.9858 63.324C32.6492 72.0009 31.8809 80.359 31.3729 85.8807C31.102 88.8258 30.9229 90.7715 30.9229 91.577C30.9229 96.2215 34.7014 99.9998 39.3456 99.9998C43.9899 99.9998 47.7684 96.2213 47.7684 91.577C47.7684 90.7715 47.5894 88.8258 47.3184 85.8807C46.8105 80.359 46.042 72 45.7054 63.3253C45.6005 60.6168 45.5371 57.8883 45.5371 55.2047C45.5371 53.6545 45.5586 51.9889 45.5965 50.2468C46.416 50.1798 47.0609 49.4947 47.0609 48.6577C47.0609 47.8494 46.4594 47.1832 45.6801 47.0781C46.0024 36.6419 46.7999 24.2553 47.322 16.1434C47.5909 11.9662 47.7686 9.2066 47.7686 8.42277ZM39.3456 3.19149C42.2303 3.19149 44.5769 5.5383 44.5769 8.42277C44.5769 9.10383 44.3826 12.1198 44.1369 15.9385C43.612 24.0921 42.8105 36.5487 42.4877 47.0621H40.9414V42.2749C40.9414 41.3936 40.2269 40.6792 39.3456 40.6792C38.4643 40.6792 37.7499 41.3936 37.7499 42.2749V47.0621H36.2035C35.8807 36.5487 35.079 24.0923 34.5541 15.9385C34.3084 12.12 34.1141 9.10383 34.1141 8.42277C34.1143 5.5383 36.4611 3.19149 39.3456 3.19149ZM42.4552 61.7285H40.9414V55.0411C40.9414 54.1598 40.2269 53.4453 39.3456 53.4453C38.4643 53.4453 37.7499 54.1598 37.7499 55.0411V61.7285H36.2363C36.3056 59.5526 36.3456 57.3653 36.3456 55.2049C36.3456 53.6545 36.3243 51.9915 36.2871 50.2536H39.3437C39.3477 50.2536 42.4046 50.2536 42.4046 50.2536C42.3673 51.9913 42.346 53.6545 42.346 55.2049C42.3458 57.3653 42.3858 59.5526 42.4552 61.7285ZM39.3456 96.8085C36.4609 96.8085 34.1143 94.4617 34.1143 91.5772C34.1143 90.9181 34.3069 88.8243 34.5509 86.1732C35.0335 80.9277 35.7499 73.1413 36.1143 64.92H42.5771C42.9416 73.1413 43.658 80.9277 44.1405 86.1732C44.3843 88.8241 44.5771 90.9181 44.5771 91.5772C44.5771 94.4617 42.2303 96.8085 39.3456 96.8085Z" fill="#2563EB"/>
<path d="M24.8647 20.5351H23.6545V11.2858C24.2415 11.05 24.6566 10.4766 24.6566 9.80534C24.6566 8.92406 23.9422 8.20959 23.0609 8.20959H16.0456C15.1643 8.20959 14.4498 8.92406 14.4498 9.80534C14.4498 10.4766 14.8649 11.0502 15.452 11.2858V20.5351H14.2417C13.3605 20.5351 12.646 21.2496 12.646 22.1309C12.646 23.0121 13.3605 23.7266 14.2417 23.7266H17.9575V82.6194H16.0456C15.1643 82.6194 14.4498 83.3339 14.4498 84.2151C14.4498 85.0964 15.1643 85.8109 16.0456 85.8109H17.9575V90.1947C17.9575 91.076 18.672 91.7905 19.5532 91.7905C20.4345 91.7905 21.149 91.076 21.149 90.1947V85.8109H23.0607C23.942 85.8109 24.6564 85.0964 24.6564 84.2151C24.6564 83.3339 23.942 82.6194 23.0607 82.6194H21.149V23.7266H24.8647C25.746 23.7266 26.4605 23.0121 26.4605 22.1309C26.4605 21.2496 25.746 20.5351 24.8647 20.5351ZM18.6437 11.4011H20.463V20.5351H18.6437V11.4011Z" fill="#2563EB"/>
</svg>
