<svg width="32" height="32" viewBox="0 0 32 32" fill="none" xmlns="http://www.w3.org/2000/svg">
<path fill-rule="evenodd" clip-rule="evenodd" d="M11.7352 16H13.8683C14.1628 16 14.4016 15.7613 14.4016 15.4667C14.4016 15.1722 14.1628 14.9335 13.8683 14.9335H11.7352C11.4406 14.9335 11.2019 15.1722 11.2019 15.4667C11.2019 15.7613 11.4406 16 11.7352 16Z" fill="#2563EB"/>
<path fill-rule="evenodd" clip-rule="evenodd" d="M13.335 16.5333H12.2684C11.9738 16.5333 11.7351 16.772 11.7351 17.0665C11.7351 17.3611 11.9739 17.5998 12.2684 17.5998H13.335C13.6295 17.5998 13.8682 17.3611 13.8682 17.0665C13.8682 16.772 13.6295 16.5333 13.335 16.5333Z" fill="#2563EB"/>
<path d="M26.6671 14.9334C23.7266 14.9334 21.3343 17.5652 21.3343 20.7996C21.3343 21.1486 21.3624 21.4971 21.4186 21.8416C21.5007 22.3429 21.5689 22.8181 21.6276 23.2783C21.1876 23.032 20.7247 22.7983 20.2677 22.5851V21.3329C20.2677 20.1548 19.3127 19.1998 18.1346 19.1998H16.9614C16.9228 18.6822 16.932 18.1622 16.9886 17.6463L18.2919 16.5056C18.8701 15.999 19.2015 15.2676 19.2011 14.4988V13.2723C20.2137 13.072 21.0175 12.3014 21.2602 11.2982C21.5029 10.295 21.1402 9.24213 20.3312 8.60125C20.6326 8.30109 20.8018 7.89294 20.801 7.46748V6.40089C20.7972 2.86814 17.9343 0.005277 14.4016 0.00146484H11.2019C7.66911 0.005277 4.80625 2.86814 4.80243 6.40089V7.46748C4.80218 7.89219 4.97129 8.29947 5.27227 8.59913C4.46321 9.24007 4.1005 10.2929 4.34322 11.2961C4.58595 12.2993 5.38969 13.0699 6.40229 13.2701V14.4967C6.40235 15.2657 6.73438 15.9972 7.31314 16.5035L8.61646 17.6442C8.67271 18.1608 8.68127 18.6816 8.64209 19.1998H7.46888C6.2908 19.1998 5.33576 20.1548 5.33576 21.3329V22.5888C4.05588 23.1856 2.70825 23.9391 2.02406 24.7129C0.67793 26.0842 -0.0518165 27.9446 0.0028661 29.8655V30.3987C0.0028661 31.2823 0.719176 31.9986 1.60272 31.9986H30.4001C30.9892 31.9986 31.4667 31.5211 31.4667 30.932V26.7387C31.4822 25.0968 31.6324 23.459 31.9157 21.8416C31.9719 21.497 32 21.1486 32 20.7995C32 17.5652 29.6076 14.9334 26.6671 14.9334V14.9334ZM18.1345 20.2663C18.7236 20.2663 19.2011 20.7438 19.2011 21.3329V22.1158C18.4444 21.7958 17.8055 21.5622 17.4765 21.4444C17.3209 21.0631 17.199 20.6689 17.1123 20.2664H18.1345V20.2663ZM7.46888 12.7902V9.06734H18.1346V12.8003C18.1346 13.0948 17.8959 13.3336 17.6013 13.3336H15.2016C14.866 13.3328 14.5503 13.1748 14.3483 12.9069L13.8545 12.2483C13.6059 11.9171 13.2159 11.7221 12.8018 11.7221C12.3876 11.7221 11.9977 11.917 11.7491 12.2483L11.2552 12.9069C11.0532 13.1748 10.7375 13.3327 10.402 13.3336H8.00221C7.70767 13.3336 7.46894 13.0948 7.46894 12.8003V12.7902H7.46888ZM19.2011 12.1604V9.16545C19.8401 9.38562 20.269 9.98707 20.269 10.6629C20.269 11.3388 19.8401 11.9402 19.2011 12.1604V12.1604ZM6.40229 8.00074C6.10775 8.00074 5.86902 7.76195 5.86902 7.46748V6.40089C5.87227 3.45697 8.25793 1.07124 11.2019 1.06806H14.4016C17.3455 1.07131 19.7312 3.45697 19.7344 6.40089V7.46748C19.7344 7.76202 19.4957 8.00074 19.2011 8.00074H6.40229ZM5.3357 10.6624C5.33845 9.98794 5.76566 9.38831 6.40229 9.16545V12.1604C5.76535 11.9374 5.33801 11.3372 5.3357 10.6624ZM7.46888 14.4988V14.3021C7.63968 14.3652 7.8201 14.3984 8.00215 14.4002H10.4019C11.073 14.3987 11.7046 14.0829 12.1085 13.5469L12.6017 12.8894C12.6491 12.8267 12.7232 12.7898 12.8017 12.7898C12.8803 12.7898 12.9543 12.8267 13.0017 12.8894L13.495 13.5469C13.8988 14.0829 14.5304 14.3987 15.2015 14.4002H17.6013C17.7834 14.3984 17.9637 14.3652 18.1345 14.3021V14.4988C18.1344 14.9601 17.9351 15.3988 17.5879 15.7025L14.6549 18.2708C14.3631 18.5257 13.989 18.6662 13.6016 18.6665H12.0018C11.6144 18.6665 11.2402 18.5259 10.9486 18.2708L8.01552 15.7025C7.6683 15.3988 7.46901 14.9601 7.46888 14.4988V14.4988ZM10.2478 19.0739C10.7335 19.4985 11.3567 19.7328 12.0018 19.733H13.6016C14.2475 19.7329 14.8714 19.4988 15.3577 19.0739L15.8734 18.6222C15.8715 19.6974 16.0669 20.7638 16.4499 21.7686C16.059 22.1488 14.9925 22.9327 12.8017 22.9327C10.611 22.9327 9.54119 22.1461 9.1546 21.7675C9.53801 20.7629 9.73355 19.6964 9.73161 18.6211L10.2478 19.0739ZM6.40229 21.3329C6.40229 20.7438 6.87981 20.2663 7.46888 20.2663H8.49116C8.40442 20.6689 8.28256 21.063 8.12695 21.4443C7.79791 21.5616 7.1596 21.7984 6.40229 22.1162V21.3329ZM1.06939 30.3987V29.8655C1.01721 28.2052 1.65147 26.5968 2.82286 25.4189C3.82221 24.2894 6.90518 23.0191 8.37274 22.4891C8.86444 22.9802 10.0462 23.858 12.2684 23.9822V30.932H5.86896V29.3321C5.86896 29.0376 5.63017 28.7989 5.3357 28.7989C5.04116 28.7989 4.80243 29.0376 4.80243 29.3321V30.932H1.60272C1.30819 30.932 1.06939 30.6933 1.06939 30.3987V30.3987ZM20.801 30.932V29.3321C20.801 29.0376 20.5622 28.7989 20.2677 28.7989C19.9732 28.7989 19.7345 29.0376 19.7345 29.3321V30.932H13.335V23.9822C15.5562 23.858 16.7379 22.9807 17.228 22.4891C18.8065 23.0446 20.327 23.753 21.7678 24.6041C21.8318 25.3507 21.866 26.0551 21.866 26.7372V30.932H20.801ZM30.863 21.6699C30.5702 23.344 30.4154 25.0393 30.4001 26.7387V30.932H22.9341V26.7387C22.9189 25.0393 22.7641 23.344 22.4712 21.6699C22.4242 21.3822 22.4007 21.0911 22.4008 20.7996C22.4008 18.1529 24.3148 16 26.6671 16C29.0195 16 30.9335 18.1529 30.9335 20.7996C30.9335 21.0911 30.91 21.3822 30.863 21.6699V21.6699Z" fill="#2563EB"/>
<path fill-rule="evenodd" clip-rule="evenodd" d="M14.4016 2.13458H11.2018C10.9073 2.13458 10.6686 2.37337 10.6686 2.66785C10.6686 2.96232 10.9074 3.20111 11.2018 3.20111H14.4016C14.6961 3.20111 14.9348 2.96232 14.9348 2.66785C14.9348 2.37337 14.6961 2.13458 14.4016 2.13458V2.13458Z" fill="#2563EB"/>
</svg>
