<svg width="32" height="32" viewBox="0 0 32 32" fill="none" xmlns="http://www.w3.org/2000/svg">
<g clip-path="url(#clip0_865_1177)">
<path d="M16.0142 32C16.4482 31.9997 16.8707 31.8601 17.2194 31.6016C20.2876 29.3404 27.5454 23.1817 28.6788 14.8646C29.187 11.115 28.074 7.32637 25.6186 4.44735C23.2996 1.691 19.9026 0.0711862 16.3011 0.00431351C12.841 -0.0855583 9.49238 1.23215 7.0214 3.65594C4.57105 6.03398 3.19204 9.30555 3.20072 12.7202C3.20072 22.3129 12.0863 29.6002 14.8094 31.6038C15.1582 31.8613 15.5805 32.0002 16.0142 32ZM4.26737 12.7201C4.25994 9.59254 5.52371 6.59621 7.76857 4.41853C9.96518 2.26073 12.9244 1.05665 16.0035 1.06771C16.0946 1.06771 16.1864 1.06771 16.2776 1.0709C19.5761 1.1319 22.6872 2.61572 24.8106 5.14063C27.0693 7.78898 28.0926 11.2742 27.6244 14.7232C26.5135 22.8585 18.8951 29.0433 16.5869 30.7451C16.247 30.9977 15.7818 30.9977 15.4419 30.7451C12.8206 28.8151 4.26737 21.8137 4.26737 12.7201V12.7201Z" fill="#2563EB"/>
<path d="M26.6666 12.8007C26.6814 7.70034 23.093 3.29912 18.0941 2.28647C13.0953 1.27381 8.07691 3.93147 6.10554 8.63543C4.13418 13.3394 5.75837 18.7809 9.98553 21.6347C14.2127 24.4886 19.8669 23.9607 23.4928 20.3738C25.5221 18.3762 26.6653 15.6481 26.6666 12.8007ZM23.9589 18.1626L20.4268 11.4925L21.8667 8.75068L25.2725 15.2465C25.0016 16.2854 24.5576 17.2713 23.9589 18.1626ZM16.0003 3.201C21.2996 3.20687 25.5941 7.50135 25.5999 12.8007C25.5999 13.0385 25.5812 13.2716 25.5642 13.5057L24.1029 10.7207L22.6417 7.93365C22.4879 7.64822 22.1896 7.47041 21.8654 7.47097C21.5413 7.47154 21.2436 7.65034 21.0908 7.93627L20.4567 9.1421L19.8226 10.3501L18.3512 7.57416L16.8798 4.79238C16.7042 4.4697 16.3659 4.26921 15.9986 4.27008C15.6312 4.27096 15.2939 4.47314 15.1199 4.79663L13.6485 7.57416L12.1781 10.3511L11.5434 9.1416L10.9087 7.93258C10.755 7.64684 10.4566 7.46885 10.1322 7.46941C9.80773 7.46997 9.50993 7.64897 9.35724 7.93521L7.89704 10.7207L6.43628 13.5063C6.41922 13.27 6.40053 13.038 6.40053 12.8007C6.40647 7.50135 10.7009 3.20687 16.0003 3.201V3.201ZM18.6636 10.4412L17.6535 11.2007L16.7575 10.3047C16.3344 9.90145 15.6693 9.90145 15.2462 10.3047L14.3523 11.2007L13.339 10.4407L16.0003 5.41048L18.6636 10.4412ZM11.5737 11.4925L8.0416 18.1626C7.44294 17.2713 6.99889 16.2854 6.72802 15.2465L10.1338 8.75068L11.5737 11.4925ZM8.75995 19.0847L12.8318 11.3948L13.707 12.0503C14.1305 12.3707 14.7253 12.3307 15.1021 11.9564L16.0002 11.0604L16.8967 11.9569C17.0975 12.1572 17.37 12.2689 17.6535 12.2673C17.8831 12.268 18.1066 12.1931 18.2892 12.054L19.1698 11.3943L23.2416 19.0841C22.4107 20.0395 21.3999 20.822 20.2668 21.387V20.8003C20.2668 19.9167 19.5505 19.2004 18.6669 19.2004H13.6003C13.1585 19.2004 12.8004 18.8422 12.8004 18.4004C12.8004 17.9586 13.1585 17.6004 13.6003 17.6004H17.3335C17.829 17.6022 18.3046 17.406 18.6545 17.0554C19.1897 16.5215 19.3501 15.7176 19.0608 15.0193C18.7714 14.321 18.0894 13.8661 17.3335 13.8673H17.0669C16.7723 13.8673 16.5336 13.6284 16.5336 13.334V12.8007C16.5336 12.5061 16.2948 12.2674 16.0003 12.2674C15.7057 12.2674 15.467 12.5062 15.467 12.8007V13.334C15.467 14.2176 16.1833 14.9339 17.0669 14.9339H17.3336C17.7754 14.9339 18.1336 15.2921 18.1336 15.7339C18.1336 16.1757 17.7754 16.5338 17.3336 16.5338H13.6004C12.5695 16.5338 11.7338 17.3696 11.7338 18.4005C11.7338 19.4314 12.5695 20.2671 13.6004 20.2671H18.6669C18.9615 20.2671 19.2002 20.5059 19.2002 20.8004V21.8404C15.4853 23.1737 11.3329 22.0777 8.75995 19.0847V19.0847Z" fill="#2563EB"/>
</g>
<defs>
<clipPath id="clip0_865_1177">
<rect width="32" height="32" fill="white"/>
</clipPath>
</defs>
</svg>
