<svg width="16" height="16" viewBox="0 0 16 16" fill="none" xmlns="http://www.w3.org/2000/svg">
<path fill-rule="evenodd" clip-rule="evenodd" d="M13.3326 7.99998C13.3326 7.63179 13.631 7.33331 13.9992 7.33331C14.3674 7.33331 14.6659 7.63178 14.6659 7.99997C14.6659 11.6819 11.6811 14.6666 7.99923 14.6666C6.24833 14.6626 4.57035 13.965 3.33256 12.7266C2.08303 11.4838 1.37643 9.79684 1.36728 8.03451C1.34815 4.35267 4.31738 1.35244 7.99923 1.33331C8.53126 1.33552 9.06133 1.39814 9.57923 1.51998C9.60649 1.52481 9.63344 1.53134 9.65989 1.53952C10.0116 1.64832 10.2086 2.02167 10.0998 2.37342C9.99099 2.72516 9.61764 2.92211 9.26589 2.81331C8.85026 2.71849 8.42553 2.66931 7.99923 2.66665C6.57905 2.66208 5.21675 3.2291 4.21923 4.23998C3.22649 5.23864 2.66898 6.58939 2.66833 7.99754C2.66699 10.9431 5.05371 13.332 7.99923 13.3333C10.9447 13.3333 13.3326 10.9455 13.3326 7.99998ZM5.52679 7.52665C5.7882 7.26523 6.21204 7.26523 6.47346 7.52665L8.00012 9.02665L12.1468 4.22665C12.3863 3.97734 12.7766 3.95242 13.0458 4.16927C13.3325 4.40022 13.3777 4.8199 13.1468 5.10665L8.48012 10.44C8.3584 10.5787 8.1846 10.6608 8.00012 10.6666C7.82292 10.6677 7.6526 10.5981 7.52679 10.4733L5.52679 8.47331C5.26538 8.2119 5.26538 7.78806 5.52679 7.52665Z" fill="#059669"/>
</svg>
