<svg width="32" height="32" viewBox="0 0 32 32" fill="none" xmlns="http://www.w3.org/2000/svg">
<g clip-path="url(#clip0_865_608)">
<path d="M18.3357 5.07856L18.8763 4.16137C18.9631 4.01175 19.012 3.84315 19.0185 3.67025L31.5532 1.07679C31.746 1.04527 31.906 0.910815 31.9703 0.726366C32.0346 0.541916 31.9927 0.337118 31.8613 0.192617C31.7298 0.0481163 31.5298 -0.0127427 31.3402 0.0338222L18.8028 2.62672L18.6467 2.02007C18.5761 1.74642 18.3997 1.51198 18.1563 1.36841C17.9128 1.22485 17.6223 1.1839 17.3487 1.25462L14.2546 2.05359C13.6849 2.20059 13.3422 2.78146 13.4892 3.3511L13.5819 3.71008L0.446762 6.42563C0.254011 6.45715 0.0939678 6.59161 0.0296758 6.77605C-0.0346162 6.9605 0.00726727 7.1653 0.138723 7.3098C0.270178 7.45424 0.47017 7.51516 0.6598 7.4686L13.8545 4.74199C13.9329 4.99092 14.0998 5.20246 14.3238 5.33641L15.241 5.87759C15.4045 5.97415 15.5907 6.02527 15.7805 6.02565C15.8704 6.02546 15.9599 6.01404 16.0469 5.99157L16.5454 5.86267C16.8282 6.62007 17.2523 8.50513 15.7198 10.6756H7.47769C6.30102 10.6756 5.34712 11.6295 5.34712 12.8062V12.8408C4.6901 12.9509 4.12414 13.3659 3.82166 13.9594C3.1979 15.1797 2.15125 17.901 2.15125 22.3938C2.15125 26.8867 3.1979 29.608 3.82166 30.8304C4.18431 31.5408 4.91649 31.9861 5.71415 31.9814H26.286C27.0836 31.9861 27.8157 31.5408 28.1785 30.8304C28.8022 29.608 29.8489 26.8867 29.8489 22.3938C29.8489 17.901 28.8022 15.1797 28.1785 13.9573C27.8755 13.3645 27.3096 12.9504 26.653 12.8408V12.8062C26.653 11.6295 25.6991 10.6756 24.5224 10.6756H16.987C17.9335 9.15592 18.1525 7.29307 17.5841 5.59527L17.6843 5.56918C17.9581 5.49902 18.1926 5.32243 18.3357 5.07856V5.07856ZM27.2309 14.4414C27.8099 15.5786 28.7836 18.1236 28.7836 22.3938C28.7836 26.6641 27.8099 29.2117 27.2298 30.3462C27.048 30.6992 26.683 30.9196 26.286 30.9162H5.71409C5.3171 30.9196 4.95201 30.6992 4.77024 30.3462C4.19018 29.2117 3.2165 26.6641 3.2165 22.3938C3.2165 18.1236 4.19018 15.5759 4.77024 14.4414C4.95201 14.0885 5.3171 13.868 5.71409 13.8715H26.2859C26.6829 13.868 27.048 14.0885 27.2297 14.4414H27.2309ZM25.5876 12.8062H6.41237C6.41237 12.2178 6.88932 11.7409 7.47769 11.7409H24.5224C25.1107 11.7409 25.5876 12.2178 25.5876 12.8062ZM15.7822 4.95977L14.8644 4.4186L14.5208 3.08701L17.615 2.28804L17.9591 3.61963L17.4179 4.53788L15.7822 4.95977Z" fill="#2563EB"/>
<path d="M10.1409 14.9368H6.40113C5.968 14.9355 5.57751 15.1975 5.41465 15.5989C4.66194 17.5935 4.27999 19.709 4.28755 21.8409C4.28212 22.1269 4.39197 22.4031 4.59234 22.6073C4.79271 22.8115 5.06679 22.9265 5.35286 22.9265H10.1408C10.7292 22.9265 11.2061 22.4495 11.2061 21.8611V16.002C11.2061 15.4137 10.7292 14.9368 10.1409 14.9368ZM10.1409 21.8611H5.35286C5.3425 19.8605 5.69773 17.8749 6.40113 16.002H10.1409V21.8611Z" fill="#2563EB"/>
<path d="M21.8649 14.9368C21.2765 14.9368 20.7996 15.4137 20.7996 16.0021V21.8612C20.7996 22.4496 21.2765 22.9265 21.8649 22.9265H26.6528C26.9389 22.9266 27.213 22.8115 27.4133 22.6074C27.6137 22.4032 27.7236 22.127 27.7181 21.841C27.7258 19.7092 27.3439 17.5939 26.591 15.5994C26.4282 15.1975 26.0372 14.9351 25.6035 14.9368H21.8649V14.9368ZM26.6528 21.8611H21.8649V16.002H25.6046C26.3084 17.8748 26.6637 19.8605 26.6528 21.8611Z" fill="#2563EB"/>
<path d="M18.6632 14.9368H13.3368C12.7484 14.9368 12.2715 15.4137 12.2715 16.0021V28.7856C12.2715 29.3739 12.7484 29.8509 13.3368 29.8509H18.6632C19.2516 29.8509 19.7285 29.3739 19.7285 28.7856V16.0021C19.7285 15.4137 19.2516 14.9368 18.6632 14.9368V14.9368ZM13.3368 16.0021H15.4674V28.7856H13.3368V16.0021ZM16.5327 28.7856V16.0021H18.6632V28.7856H16.5327Z" fill="#2563EB"/>
</g>
<defs>
<clipPath id="clip0_865_608">
<rect width="32" height="32" fill="white"/>
</clipPath>
</defs>
</svg>
