<svg width="16" height="16" viewBox="0 0 16 16" fill="none" xmlns="http://www.w3.org/2000/svg">
<path fill-rule="evenodd" clip-rule="evenodd" d="M6.51934 2.51515C7.3636 1.85835 8.53125 1.82979 9.40359 2.42944L9.52066 2.51511L13.0757 5.28022C13.6318 5.71228 13.9725 6.36156 14.0154 7.05971L14.02 7.21V12.01C14.02 13.0751 13.1874 13.9458 12.1375 14.0066L12.02 14.01H4.02002C2.9549 14.01 2.08425 13.1774 2.02342 12.1275L2.02002 12.01V7.21032C2.01969 6.50616 2.32299 5.83872 2.84765 5.37629L2.96343 5.2804L6.51934 2.51515ZM8.702 3.56753C8.32763 3.27628 7.81334 3.25687 7.42023 3.50934L7.33794 3.5676L3.78194 6.33293C3.54144 6.51996 3.38973 6.79643 3.3591 7.0965L3.35335 7.21V12.01C3.35335 12.3519 3.61071 12.6337 3.94227 12.6722L4.02002 12.6767H12.02C12.3619 12.6767 12.6437 12.4193 12.6822 12.0878L12.6867 12.01V7.21C12.6867 6.90516 12.5616 6.61557 12.3437 6.40729L12.2577 6.33312L8.702 3.56753ZM11.2375 9.65568C11.0474 9.3404 10.6376 9.23898 10.3224 9.42914C9.06085 10.19 6.93805 10.19 5.67791 9.42928C5.36271 9.23899 4.95292 9.34025 4.76263 9.65545C4.57234 9.97065 4.6736 10.3804 4.9888 10.5707C6.67265 11.5873 9.32586 11.5873 11.011 10.5709C11.3263 10.3807 11.4277 9.97096 11.2375 9.65568Z" fill="#2563EB"/>
</svg>
