<svg width="16" height="16" viewBox="0 0 16 16" fill="none" xmlns="http://www.w3.org/2000/svg">
<path fill-rule="evenodd" clip-rule="evenodd" d="M7.00159 11.3333C6.82438 11.3343 6.65407 11.2648 6.52825 11.14C6.26684 10.8807 6.26511 10.4586 6.52439 10.1972C6.52567 10.1959 6.52696 10.1946 6.52825 10.1933L8.73492 7.99996L6.61492 5.7933C6.35644 5.53327 6.35644 5.11332 6.61492 4.8533V4.8533C6.8742 4.59188 7.29631 4.59015 7.55772 4.84943C7.55901 4.85071 7.5603 4.852 7.56159 4.8533L10.1349 7.51996H10.1349C10.389 7.77919 10.389 8.19407 10.1349 8.4533L7.46825 11.12C7.34739 11.2505 7.17937 11.3273 7.00159 11.3333L7.00159 11.3333Z" fill="#2563EB"/>
</svg>
