<svg width="24" height="24" viewBox="0 0 24 24" fill="none" xmlns="http://www.w3.org/2000/svg">
<path fill-rule="evenodd" clip-rule="evenodd" d="M12 2C12.5128 2 12.9355 2.38604 12.9933 2.88338L13 3V4C13 4.55228 12.5523 5 12 5C11.4872 5 11.0645 4.61396 11.0067 4.11662L11 4V3C11 2.44772 11.4477 2 12 2ZM6.2129 4.8097L6.30711 4.89289L7.00711 5.59289C7.39763 5.98342 7.39763 6.61658 7.00711 7.00711C6.64662 7.36759 6.07939 7.39532 5.6871 7.0903L5.59289 7.00711L4.89289 6.30711C4.50237 5.91658 4.50237 5.28342 4.89289 4.89289C5.22334 4.56245 5.72751 4.51161 6.1114 4.74038L6.2129 4.8097ZM4 11C4.55228 11 5 11.4477 5 12C5 12.5128 4.61396 12.9355 4.11662 12.9933L4 13H3C2.44772 13 2 12.5523 2 12C2 11.4872 2.38604 11.0645 2.88338 11.0067L3 11H4ZM7.0903 18.3129C7.39532 17.9206 7.36759 17.3534 7.00711 16.9929C6.61658 16.6024 5.98342 16.6024 5.59289 16.9929L4.89289 17.6929L4.8097 17.7871C4.50468 18.1794 4.53241 18.7466 4.89289 19.1071C5.28342 19.4976 5.91658 19.4976 6.30711 19.1071L7.00711 18.4071L7.0903 18.3129ZM18.3129 16.9097L18.4071 16.9929L19.1071 17.6929C19.4976 18.0834 19.4976 18.7166 19.1071 19.1071C18.7466 19.4676 18.1794 19.4953 17.7871 19.1903L17.6929 19.1071L16.9929 18.4071C16.6024 18.0166 16.6024 17.3834 16.9929 16.9929C17.3233 16.6624 17.8275 16.6116 18.2114 16.8404L18.3129 16.9097ZM12 19C12.5128 19 12.9355 19.386 12.9933 19.8834L13 20V21C13 21.5523 12.5523 22 12 22C11.4872 22 11.0645 21.614 11.0067 21.1166L11 21V20C11 19.4477 11.4477 19 12 19ZM22 12C22 11.4477 21.5523 11 21 11H20L19.8834 11.0067C19.386 11.0645 19 11.4872 19 12C19 12.5523 19.4477 13 20 13H21L21.1166 12.9933C21.614 12.9355 22 12.5128 22 12ZM19.1903 6.2129C19.4953 5.82061 19.4676 5.25338 19.1071 4.89289C18.7166 4.50237 18.0834 4.50237 17.6929 4.89289L16.9929 5.59289L16.9097 5.6871C16.6047 6.07939 16.6324 6.64662 16.9929 7.00711C17.3834 7.39763 18.0166 7.39763 18.4071 7.00711L19.1071 6.30711L19.1903 6.2129ZM12 7C9.23858 7 7 9.23858 7 12C7 14.7614 9.23858 17 12 17C14.7614 17 17 14.7614 17 12C17 9.23858 14.7614 7 12 7ZM12 9C13.6569 9 15 10.3431 15 12C15 13.6569 13.6569 15 12 15C10.3431 15 9 13.6569 9 12C9 10.3431 10.3431 9 12 9Z" fill="white"/>
</svg>
