<svg width="25" height="24" viewBox="0 0 25 24" fill="none" xmlns="http://www.w3.org/2000/svg">
<path fill-rule="evenodd" clip-rule="evenodd" d="M17.9 22.0001H17.9C9.39938 21.9891 2.511 15.1007 2.5 6.60011C2.5 4.0596 4.55949 2.00011 7.1 2.00011V2.00011C7.35834 1.99815 7.61625 2.02159 7.87 2.07011L7.87 2.07011C8.11531 2.10641 8.35646 2.1667 8.59 2.25011V2.25011C8.92419 2.36737 9.17143 2.65265 9.24 3.00011L10.61 9.00011C10.685 9.33103 10.5871 9.67742 10.35 9.92011C10.22 10.0601 10.21 10.0701 8.98 10.7101C9.96499 12.871 11.6932 14.6063 13.85 15.6001C14.5 14.3601 14.51 14.3501 14.65 14.2201C14.8927 13.983 15.2391 13.8851 15.57 13.9601L21.57 15.3301C21.906 15.4081 22.1782 15.6538 22.29 15.9801C22.3744 16.2175 22.438 16.4617 22.48 16.7101C22.5202 16.9614 22.5403 17.2156 22.54 17.4701V17.4701C22.5016 19.9989 20.429 22.0224 17.9 22.0001L17.9 22.0001ZM7.1 4.00011C5.66634 4.0056 4.50548 5.16645 4.5 6.60011L4.5 6.59938C4.50511 13.9977 10.5009 19.9942 17.8993 20.0001C19.333 19.9946 20.4938 18.8337 20.4993 17.4001V17.0701L15.86 16.0001L15.57 16.5501C15.12 17.4201 14.79 18.0501 13.95 17.7101C10.5942 16.5089 7.95722 13.8609 6.77004 10.5001C6.41004 9.72008 7.09004 9.36008 7.95004 8.91008L8.50004 8.64008L7.43004 4.00008L7.1 4.00011Z" fill="#2563EB"/>
</svg>
