<svg width="24" height="24" viewBox="0 0 24 24" fill="none" xmlns="http://www.w3.org/2000/svg">
<path fill-rule="evenodd" clip-rule="evenodd" d="M12.0013 21V21C11.7355 21.0016 11.4801 20.8972 11.2913 20.71L3.52134 12.93V12.93C1.49289 10.8804 1.49289 7.57967 3.52134 5.53002V5.53002C5.56648 3.49065 8.8762 3.49065 10.9213 5.53002L12.0013 6.61002L13.0813 5.53002V5.53002C15.1265 3.49065 18.4362 3.49065 20.4813 5.53002V5.53002C22.5098 7.57967 22.5098 10.8804 20.4813 12.93L12.7113 20.71V20.71C12.5226 20.8972 12.2671 21.0016 12.0013 21V21ZM7.22296 6.00003V6.00003C6.3679 5.99616 5.54685 6.33466 4.94296 6.94003L4.94296 6.94003C3.68567 8.20394 3.68568 10.2461 4.94296 11.51L12.003 18.58L19.063 11.51V11.51C20.3203 10.2461 20.3203 8.20394 19.063 6.94003V6.94003C17.7833 5.73109 15.7826 5.73109 14.503 6.94003L12.713 8.74003V8.74003C12.324 9.13216 11.6909 9.13475 11.2988 8.74583C11.2968 8.74391 11.2949 8.74197 11.293 8.74003L9.50297 6.94003V6.94003C8.89908 6.33466 8.07803 5.99616 7.22297 6.00003L7.22296 6.00003Z" fill="#2563EB"/>
</svg>
