<svg width="24" height="24" viewBox="0 0 24 24" fill="none" xmlns="http://www.w3.org/2000/svg">
<path fill-rule="evenodd" clip-rule="evenodd" d="M11.9999 15.5V15.5C11.7341 15.5015 11.4787 15.3972 11.2899 15.21L7.28994 11.21V11.21C6.89782 10.8179 6.89782 10.1821 7.28994 9.79C7.68206 9.39788 8.31782 9.39788 8.70994 9.79L11.9999 13.1L15.2999 9.92V9.92C15.6692 9.50935 16.3015 9.47584 16.7122 9.84514C17.1228 10.2145 17.1563 10.8467 16.787 11.2574C16.7539 11.2942 16.7181 11.3285 16.6799 11.36L12.6799 15.22V15.22C12.4971 15.3963 12.2539 15.4964 11.9999 15.5L11.9999 15.5Z" fill="#2563EB"/>
</svg>
