<svg width="32" height="32" viewBox="0 0 32 32" fill="none" xmlns="http://www.w3.org/2000/svg">
<path fill-rule="evenodd" clip-rule="evenodd" d="M22.1072 14.6826L19.0538 11.6353V11.622C18.5205 11.0898 18.5205 10.2515 19.0538 9.73251C19.5738 9.20025 20.4138 9.20025 20.9471 9.73251L26.2805 15.0551C26.5949 15.3609 26.7192 15.7932 26.6534 16.202C26.6022 16.5574 26.409 16.8686 26.1334 17.076L20.9329 22.2661C20.6796 22.5056 20.3329 22.652 19.9862 22.652L19.9996 22.6666C19.6396 22.6666 19.2929 22.5203 19.0529 22.2808C18.5196 21.7618 18.5196 20.9102 19.0396 20.3912V20.3779L22.0797 17.3439H6.66683C5.92016 17.3439 5.3335 16.7451 5.3335 16.0132C5.3335 15.2681 5.92016 14.6826 6.66683 14.6826H22.1072Z" fill="white"/>
</svg>
