<svg width="32" height="32" viewBox="0 0 32 32" fill="none" xmlns="http://www.w3.org/2000/svg">
<path fill-rule="evenodd" clip-rule="evenodd" d="M23.4118 28V28C23.1986 28.0009 22.9883 27.9506 22.7985 27.8533L15.9985 24.2933L9.1985 27.8533V27.8533C8.54674 28.1961 7.74054 27.9455 7.39782 27.2938C7.26006 27.0318 7.21339 26.7314 7.26516 26.44L8.5985 18.9333L3.10516 13.6H3.10516C2.75591 13.2515 2.62768 12.7386 2.77183 12.2667L2.77183 12.2667C2.92949 11.7832 3.34839 11.4316 3.85183 11.36L11.4518 10.2533L14.7985 3.41334V3.41334C15.1195 2.7506 15.9169 2.47355 16.5797 2.79453C16.8497 2.9253 17.0677 3.14332 17.1985 3.41334L20.5852 10.24L28.1852 11.3467V11.3467C28.6886 11.4182 29.1075 11.7699 29.2652 12.2533V12.2533C29.4093 12.7252 29.2811 13.2381 28.9318 13.5867L23.4385 18.92L24.7718 26.4267V26.4267C24.869 26.9371 24.6609 27.4574 24.2385 27.76V27.76C23.9971 27.9292 23.7063 28.0136 23.4118 28L23.4118 28Z" fill="#F97316"/>
</svg>
