<svg width="16" height="16" viewBox="0 0 16 16" fill="none" xmlns="http://www.w3.org/2000/svg">
<path fill-rule="evenodd" clip-rule="evenodd" d="M7.0011 11.3333C6.8239 11.3343 6.65358 11.2648 6.52777 11.14C6.26635 10.8807 6.26462 10.4586 6.5239 10.1972C6.52518 10.1959 6.52647 10.1946 6.52777 10.1933L8.73443 7.99996L6.61443 5.7933C6.35595 5.53327 6.35595 5.11332 6.61443 4.8533V4.8533C6.87371 4.59188 7.29582 4.59015 7.55723 4.84943C7.55853 4.85071 7.55981 4.852 7.5611 4.8533L10.1344 7.51996H10.1344C10.3885 7.77919 10.3885 8.19407 10.1344 8.4533L7.46776 11.12C7.3469 11.2505 7.17889 11.3273 7.0011 11.3333L7.0011 11.3333Z" fill="#4B5563"/>
</svg>
