<svg width="40" height="40" viewBox="0 0 40 40" fill="none" xmlns="http://www.w3.org/2000/svg">
<path d="M32.5104 1.59531C32.3159 0.667891 31.4994 0.0028125 30.5517 0H9.44904C8.50147 0.0028125 7.6849 0.667891 7.49037 1.59531L0.0417017 37.5953C-0.080017 38.1843 0.0698267 38.7967 0.44967 39.263C0.829514 39.7294 1.39897 40 2.00037 40H38.0004C38.6017 39.9998 39.171 39.7291 39.5506 39.2628C39.9303 38.7966 40.08 38.1842 39.9583 37.5953L32.5104 1.59531ZM18.1471 7.44398C18.3904 8.21508 18.9619 8.83945 19.7084 9.15L25.0677 11.3566L25.0824 11.3627L25.349 11.472C27.7642 12.4605 29.3397 14.8137 29.3337 17.4233C29.3337 19.374 28.3877 21.1812 26.5224 22.798C21.9554 26.7544 19.3321 32.4995 19.3337 38.542V38.6666H8.68904C8.93115 32.1104 12.4354 26.1095 18.0264 22.6766L22.0577 20.2273C23.3025 19.4376 24.0229 18.0366 23.9411 16.5647C23.9001 15.1048 23.0611 13.7852 21.7564 13.1287L16.4357 10.476C15.6156 10.0542 15.0127 9.30469 14.7764 8.41336C15.125 8.16391 15.3323 7.76203 15.3337 7.33336V6C15.333 5.89984 15.3209 5.80008 15.2977 5.70266C15.3912 5.57375 15.4938 5.45187 15.6051 5.33797L19.6097 1.33328H20.8004L18.4191 5.13797C17.9931 5.82906 17.8936 6.67281 18.1471 7.44398V7.44398ZM14.0004 6V7.33336H12.667V6H14.0004ZM1.48436 38.4213C1.35725 38.2659 1.30709 38.0613 1.34772 37.8647L8.79639 1.86469C8.85967 1.55445 9.13248 1.33164 9.44904 1.33133H17.7244L14.663 4.39469C14.56 4.50062 14.4625 4.61188 14.371 4.72805C14.251 4.68992 14.1262 4.6693 14.0003 4.66672H12.6669C12.6669 4.29852 12.3684 4.00008 12.0003 4.00008C11.6321 4.00008 11.3337 4.29859 11.3337 4.66672V10.6667C11.3337 11.0349 11.6322 11.3334 12.0003 11.3334C12.3685 11.3334 12.6669 11.0348 12.6669 10.6667V8.66672H13.463C13.7858 9.96352 14.6536 11.0573 15.843 11.6667C21.0309 14.2547 21.163 14.3194 21.163 14.3194C22.0313 14.7631 22.5865 15.6472 22.609 16.622C22.6772 17.611 22.1981 18.5578 21.361 19.0887L17.3337 21.5373C11.3464 25.2133 7.59975 31.6452 7.35576 38.6666H2.00037C1.8003 38.6665 1.61084 38.5764 1.48436 38.4213V38.4213ZM38.5171 38.4213C38.3904 38.5766 38.2008 38.6666 38.0004 38.6666H20.6671V38.542C20.6666 32.8873 23.1219 27.5112 27.3958 23.8086C29.5665 21.9252 30.6671 19.7773 30.6671 17.4233C30.6729 14.3313 28.8381 11.5325 26.0004 10.3046V8.66664H27.3338C28.0702 8.66664 28.6672 8.06969 28.6672 7.33328V6C28.6672 5.26359 28.0702 4.66664 27.3338 4.66664H26.0004C26.0004 4.29844 25.7019 4 25.3338 4C24.9657 4 24.6672 4.29852 24.6672 4.66664V9.7493L20.2158 7.91664C19.8338 7.7507 19.5416 7.42828 19.414 7.0318C19.2864 6.63531 19.3357 6.20297 19.5492 5.84531L22.3705 1.33328H30.5519C30.8684 1.33352 31.1412 1.55641 31.2045 1.86664L38.6532 37.8666C38.6931 38.0623 38.6433 38.2657 38.5172 38.4206V38.4213H38.5171ZM26.0004 7.33336V6H27.3337V7.33336H26.0004Z" fill="#2563EB"/>
<path d="M10.0003 26.6666C10.3685 26.6666 10.667 26.3682 10.667 26V22.6666H13.3336C14.07 22.6666 14.667 22.0697 14.667 21.3333V18.6666C14.667 17.9302 14.07 17.3333 13.3336 17.3333H10.667C10.667 16.9651 10.3685 16.6666 10.0003 16.6666C9.63211 16.6666 9.33367 16.9651 9.33367 17.3333V26C9.33367 26.3682 9.63211 26.6666 10.0003 26.6666ZM13.3337 18.6666V21.3333H10.667V18.6666H13.3337Z" fill="#2563EB"/>
<path d="M29.3337 28H26.667C26.667 27.6318 26.3686 27.3334 26.0004 27.3334C25.6322 27.3334 25.3337 27.6318 25.3337 28V35.6467C25.3337 36.0149 25.6323 36.3133 26.0004 36.3133C26.3685 36.3133 26.667 36.0149 26.667 35.6467V33.3333H29.3337C30.0701 33.3333 30.667 32.7363 30.667 31.9999V29.3333C30.667 28.597 30.0701 28 29.3337 28V28ZM26.667 32V29.3334H29.3337V32H26.667Z" fill="#2563EB"/>
</svg>
