<svg width="40" height="40" viewBox="0 0 40 40" fill="none" xmlns="http://www.w3.org/2000/svg">
<path d="M38 0H11.3334C10.2288 0 9.33336 0.895469 9.33336 2V2.66664H8.66672C7.56219 2.66664 6.66672 3.56211 6.66672 4.66664V20.6666C6.66672 21.7712 7.56219 22.6666 8.66672 22.6666H35.3334C36.4379 22.6666 37.3334 21.7712 37.3334 20.6666V20H38C39.1045 20 40 19.1046 40 18V2C40 0.895469 39.1046 0 38 0V0ZM36 20.6666C36 21.0348 35.7016 21.3333 35.3334 21.3333H8.66664C8.29844 21.3333 8 21.0348 8 20.6666V4.66664C8 4.29844 8.29844 4 8.66664 4H35.3333C35.7015 4 35.9999 4.29852 35.9999 4.66664V20.6666H36ZM38.6667 18C38.6667 18.3682 38.3682 18.6666 38 18.6666H37.3334V4.66664C37.3334 3.56211 36.4379 2.66664 35.3334 2.66664H10.6666V2C10.6666 1.6318 10.9652 1.33336 11.3333 1.33336H38C38.3682 1.33336 38.6667 1.63188 38.6667 2V18Z" fill="#2563EB"/>
<path d="M34 8.00002C32.8955 8.00002 32 7.10455 32 6.00002C32 5.63181 31.7015 5.33337 31.3334 5.33337H12.6666C12.2984 5.33337 12 5.63189 12 6.00002C12 7.10455 11.1045 8.00002 10 8.00002C9.6318 8.00002 9.33336 8.29845 9.33336 8.66666V16.6667C9.33336 17.0349 9.6318 17.3333 10 17.3333C11.1046 17.3333 12 18.2288 12 19.3333C12 19.7015 12.2985 19.9999 12.6666 19.9999H31.3333C31.7015 19.9999 31.9999 19.7015 31.9999 19.3333C31.9999 18.2288 32.8954 17.3333 33.9999 17.3333C34.3681 17.3333 34.6666 17.0348 34.6666 16.6667V8.66666C34.6666 8.29853 34.3682 8.00002 34 8.00002V8.00002ZM33.3334 16.0667C32.025 16.3358 31.0025 17.3583 30.7334 18.6667H13.2666C12.9975 17.3583 11.975 16.3358 10.6666 16.0667V9.26666C11.975 8.99752 12.9975 7.97502 13.2666 6.66666H30.7333C31.0024 7.97502 32.0249 8.99752 33.3333 9.26666V16.0667H33.3334Z" fill="#2563EB"/>
<path d="M22 8.66663C19.7909 8.66663 18 10.4575 18 12.6666C18 14.8758 19.7909 16.6666 22 16.6666C24.2091 16.6666 26 14.8758 26 12.6666C25.9978 10.4584 24.2082 8.66889 22 8.66663V8.66663ZM22 15.3333C20.5273 15.3333 19.3334 14.1394 19.3334 12.6667C19.3334 11.194 20.5273 9.99999 22 9.99999C23.4727 9.99999 24.6666 11.1939 24.6666 12.6666C24.6666 14.1394 23.4727 15.3333 22 15.3333Z" fill="#2563EB"/>
<path d="M14 10.6666C12.8954 10.6666 12 11.5621 12 12.6666C12 13.7712 12.8955 14.6666 14 14.6666C15.1045 14.6666 16 13.7712 16 12.6666C16 11.5621 15.1046 10.6666 14 10.6666ZM14 13.3333C13.6318 13.3333 13.3334 13.0348 13.3334 12.6667C13.3334 12.2985 13.6319 12.0001 14 12.0001C14.3681 12.0001 14.6666 12.2986 14.6666 12.6667C14.6666 13.0348 14.3682 13.3333 14 13.3333Z" fill="#2563EB"/>
<path d="M30 10.6666C28.8955 10.6666 28 11.5621 28 12.6666C28 13.7712 28.8955 14.6666 30 14.6666C31.1045 14.6666 32 13.7712 32 12.6666C32 11.5621 31.1045 10.6666 30 10.6666ZM30 13.3333C29.6318 13.3333 29.3334 13.0348 29.3334 12.6667C29.3334 12.2985 29.6319 12.0001 30 12.0001C30.3681 12.0001 30.6666 12.2986 30.6666 12.6667C30.6666 13.0348 30.3682 13.3333 30 13.3333Z" fill="#2563EB"/>
<path d="M2 40H4.66664C5.51117 39.9965 6.2625 39.4629 6.54399 38.6667H18.6666H22.0193C22.8603 38.6424 23.6594 38.2939 24.2493 37.694L32.5693 29.2233C33.6087 28.17 33.5973 26.4736 32.5441 25.4342C31.5596 24.4628 29.9976 24.4003 28.9386 25.2899L23.5159 29.8299C22.9848 29.096 22.1326 28.663 21.2266 28.6666H14.4333C14.2946 28.6722 14.1582 28.6303 14.0466 28.5479C13.0964 27.7607 11.9005 27.331 10.6666 27.3332C9.26422 27.3127 7.86961 27.5447 6.5493 28.0179C6.2743 27.212 5.5182 26.6693 4.66664 26.6666H2C0.895469 26.6666 0 27.562 0 28.6666V38C0 39.1046 0.895469 40 2 40V40ZM13.1953 29.574C13.5463 29.8549 13.9838 30.0054 14.4333 30H21.2266C21.8652 29.9906 22.4341 30.4012 22.6266 31.01C22.6486 31.0909 22.6623 31.1738 22.6673 31.2574C22.6875 31.6274 22.5538 31.9893 22.298 32.2574C22.0466 32.521 21.6976 32.6691 21.3334 32.6667H14C13.6318 32.6667 13.3334 32.9652 13.3334 33.3334C13.3334 33.7016 13.6319 34 14 34H21.3334C22.8061 34.0022 24.0018 32.8101 24.004 31.3373C24.0041 31.2875 24.0027 31.2377 24 31.188C24 31.1806 24 31.1733 24 31.166L29.8 26.3113C30.3684 25.8351 31.2153 25.9099 31.6915 26.4784C31.6921 26.4792 31.6927 26.4799 31.6934 26.4806C32.1327 27.0128 32.104 27.7896 31.6267 28.288L23.308 36.7547C22.9632 37.1095 22.4944 37.3169 22 37.3334H6.66664V29.4047C7.9368 28.8923 9.29727 28.6413 10.6666 28.6667C11.5905 28.6599 12.4866 28.9814 13.1953 29.574V29.574ZM1.33336 28.6667C1.33336 28.2985 1.63188 28 2 28H4.66664C5.03484 28 5.33328 28.2985 5.33328 28.6667V38C5.33328 38.3682 5.03477 38.6667 4.66664 38.6667H2C1.6318 38.6667 1.33336 38.3682 1.33336 38V28.6667Z" fill="#2563EB"/>
</svg>
