<svg width="32" height="32" viewBox="0 0 32 32" fill="none" xmlns="http://www.w3.org/2000/svg">
<g clip-path="url(#clip0_837_561)">
<path d="M31.3467 4.12835L21.7416 0.0836705C21.4831 -0.0255133 21.1919 -0.0280133 20.9315 0.0767332L10.6721 4.18066L1.481 0.310913C1.1517 0.172293 0.77484 0.207729 0.477162 0.405347C0.179485 0.602966 0.00055333 0.936517 0.000490832 1.29382V26.8887C-0.000446637 27.3181 0.257107 27.7059 0.653282 27.8716L10.2583 31.9163C10.5168 32.0255 10.808 32.028 11.0684 31.9232L21.3278 27.8194L30.5189 31.6891C30.8482 31.8277 31.2251 31.7923 31.5228 31.5947C31.8204 31.3971 31.9994 31.0635 31.9994 30.7062V5.11125C32.0004 4.68183 31.7428 4.29403 31.3467 4.12835V4.12835ZM1.06714 11.5964L4.5529 8.54689L4.20148 8.14528L4.63615 8.56551L6.44621 12.6401C6.56596 12.9093 6.88126 13.0304 7.15044 12.9107C7.41968 12.791 7.5408 12.4757 7.42112 12.2065L6.91338 11.0647L7.82748 10.1506L7.91173 10.1623L10.1335 14.1595V16.3018L1.06714 12.9601V11.5964ZM11.2001 5.12031L12.8001 4.48034V7.00825C12.8003 7.52967 13.0544 8.01828 13.4814 8.31771C13.9083 8.61713 14.4543 8.68969 14.9446 8.5122L17.7066 7.51436C17.9339 7.43211 18.1874 7.46986 18.3808 7.61486C18.5742 7.75985 18.6817 7.99253 18.6666 8.23377C18.6309 8.53645 18.4228 8.79094 18.1333 8.886L14.0534 10.374C13.32 10.6246 12.82 11.3052 12.8001 12.08C12.7998 13.0648 13.5967 13.864 14.5814 13.8666C14.7908 13.8661 14.9985 13.8284 15.1947 13.7552L17.7039 12.8486C17.9313 12.7652 18.1855 12.8024 18.3796 12.9472C18.5737 13.0921 18.6817 13.3252 18.6666 13.567C18.6316 13.8686 18.4251 14.1227 18.1369 14.2187L17.0469 14.6139C16.4185 14.8477 16.0013 15.4468 16 16.1173V17.5999C16 17.8944 16.2388 18.1332 16.5333 18.1332C16.8277 18.1332 17.0665 17.8944 17.0665 17.5999V16.1173C17.0645 15.8935 17.2035 15.6927 17.4137 15.616L18.5033 15.2208C19.1908 14.9807 19.6718 14.3574 19.73 13.6315C19.7671 13.0304 19.4986 12.4512 19.0159 12.091C18.5333 11.7308 17.9016 11.6383 17.3359 11.8449L14.8251 12.7516C14.7473 12.782 14.6648 12.7984 14.5813 12.8001C14.1854 12.7981 13.8658 12.4761 13.8667 12.0801C13.8887 11.7548 14.107 11.4757 14.4176 11.3762L18.4964 9.88822C19.1882 9.65147 19.6738 9.02718 19.7331 8.2984C19.7703 7.69729 19.5018 7.11806 19.0191 6.75788C18.5364 6.39771 17.9048 6.30515 17.3391 6.51177L14.5786 7.51067C14.4181 7.57054 14.2385 7.54717 14.0986 7.4483C13.953 7.34924 13.8661 7.18443 13.8667 7.00831V4.05372L20.7997 1.28051V26.8796L11.2001 30.7195V5.12031H11.2001ZM10.1335 5.11338V11.9633L8.84394 9.64229C8.67326 9.33524 8.36834 9.12606 8.02041 9.07731C7.67248 9.02856 7.32181 9.14593 7.07332 9.3943L6.44934 10.0183L5.61099 8.13196C5.46631 7.80722 5.17607 7.57042 4.82889 7.49392C4.48172 7.41742 4.11879 7.51036 3.85105 7.74423L1.06714 10.1793V1.29382L10.1335 5.11338ZM1.06714 14.0981L10.1335 17.4399V30.7061L1.06714 26.8886V14.0981ZM30.9328 30.7061L21.8664 26.8886V1.29382L30.9328 5.11131V30.7061Z" fill="#2563EB"/>
<path d="M23.5858 10.1191L28.3857 12.1398C28.715 12.2785 29.0918 12.243 29.3895 12.0454C29.6872 11.8478 29.8661 11.5142 29.8662 11.1569V6.7544C29.8663 6.3251 29.6091 5.93755 29.2134 5.77099L24.4136 3.75025C24.0842 3.61156 23.7072 3.64713 23.4095 3.84487C23.1119 4.04261 22.933 4.37629 22.9331 4.73371V9.13569C22.9329 9.56499 23.1902 9.95254 23.5858 10.1191V10.1191ZM23.9997 4.73315L28.7995 6.7544V11.1569L23.9997 9.13569V4.73265V4.73315Z" fill="#2563EB"/>
<path d="M23.5858 18.1188L28.3857 20.1396C28.715 20.2782 29.0918 20.2428 29.3895 20.0451C29.6872 19.8475 29.8661 19.514 29.8662 19.1567V14.7541C29.8663 14.3248 29.6091 13.9373 29.2134 13.7707L24.4136 11.75C24.0842 11.6113 23.7072 11.6469 23.4095 11.8446C23.1119 12.0423 22.933 12.376 22.9331 12.7334V17.1354C22.9329 17.5647 23.1902 17.9523 23.5858 18.1188V18.1188ZM23.9997 12.7329L28.7995 14.7541V19.1567L23.9997 17.1354V12.7324V12.7329Z" fill="#2563EB"/>
<path d="M23.5858 26.1186L28.3857 28.1393C28.715 28.2779 29.0918 28.2425 29.3895 28.0449C29.6872 27.8473 29.8661 27.5137 29.8662 27.1564V22.7539C29.8663 22.3246 29.6091 21.937 29.2134 21.7705L24.4136 19.7497C24.0842 19.611 23.7072 19.6466 23.4095 19.8443C23.1119 20.0421 22.933 20.3758 22.9331 20.7332V25.1352C22.9329 25.5645 23.1902 25.952 23.5858 26.1186V26.1186ZM23.9997 20.7326L28.7995 22.7539V27.1564L23.9997 25.1352V20.7321V20.7326Z" fill="#2563EB"/>
<path fill-rule="evenodd" clip-rule="evenodd" d="M2.48478 17.5679L8.35127 19.7011C8.62814 19.8019 8.93425 19.6591 9.035 19.3822C9.13574 19.1053 8.99294 18.7992 8.71607 18.6985L2.84958 16.5653C2.57271 16.4645 2.2666 16.6073 2.16585 16.8842C2.0651 17.1611 2.20785 17.4672 2.48478 17.5679V17.5679Z" fill="#2563EB"/>
<path fill-rule="evenodd" clip-rule="evenodd" d="M8.7159 21.3651L2.8494 19.2318C2.67028 19.1667 2.47004 19.202 2.32405 19.3245C2.17805 19.447 2.10855 19.6381 2.14168 19.8258C2.1748 20.0135 2.30555 20.1692 2.4846 20.2344L8.3511 22.3677C8.62796 22.4684 8.93408 22.3256 9.03482 22.0487C9.13557 21.7719 8.99276 21.4658 8.7159 21.3651Z" fill="#2563EB"/>
<path fill-rule="evenodd" clip-rule="evenodd" d="M8.7159 24.0317L2.8494 21.8985C2.67028 21.8333 2.47004 21.8687 2.32405 21.9912C2.17805 22.1136 2.10855 22.3048 2.14168 22.4924C2.1748 22.6801 2.30555 22.8359 2.4846 22.9011L8.3511 25.0343C8.62796 25.135 8.93408 24.9922 9.03482 24.7154C9.13557 24.4386 8.99276 24.1325 8.7159 24.0317Z" fill="#2563EB"/>
<path fill-rule="evenodd" clip-rule="evenodd" d="M5.51605 25.5346L2.84945 24.565C2.57258 24.4642 2.26647 24.607 2.16572 24.8839C2.06498 25.1608 2.20778 25.4669 2.48465 25.5676L5.15125 26.5372C5.33037 26.6024 5.53061 26.567 5.67661 26.4445C5.8226 26.322 5.8921 26.1309 5.85897 25.9432C5.82591 25.7555 5.69517 25.5998 5.51605 25.5346V25.5346Z" fill="#2563EB"/>
<path fill-rule="evenodd" clip-rule="evenodd" d="M13.3334 22.3997C13.3956 22.3998 13.4573 22.389 13.5158 22.3677L19.3823 20.2345C19.5614 20.1693 19.6921 20.0136 19.7252 19.8259C19.7583 19.6382 19.6887 19.4471 19.5428 19.3246C19.3968 19.202 19.1966 19.1667 19.0175 19.2319L13.151 21.3652C12.9075 21.4535 12.7627 21.704 12.8077 21.9591C12.8527 22.2141 13.0744 22.4 13.3334 22.3997V22.3997Z" fill="#2563EB"/>
<path fill-rule="evenodd" clip-rule="evenodd" d="M19.0175 21.8985L13.151 24.0317C12.8742 24.1324 12.7314 24.4386 12.8321 24.7154C12.9329 24.9923 13.239 25.1351 13.5158 25.0343L19.3823 22.9011C19.5614 22.8359 19.6922 22.6802 19.7252 22.4925C19.7584 22.3048 19.6888 22.1137 19.5429 21.9912C19.3969 21.8687 19.1966 21.8333 19.0175 21.8985Z" fill="#2563EB"/>
<path fill-rule="evenodd" clip-rule="evenodd" d="M19.0175 24.565L16.3509 25.5346C16.074 25.6354 15.9312 25.9415 16.0319 26.2184C16.1327 26.4952 16.4388 26.638 16.7157 26.5373L19.3823 25.5677C19.5614 25.5025 19.6921 25.3468 19.7252 25.1591C19.7583 24.9714 19.6888 24.7803 19.5428 24.6578C19.3968 24.5352 19.1966 24.4999 19.0175 24.565V24.565Z" fill="#2563EB"/>
</g>
<defs>
<clipPath id="clip0_837_561">
<rect width="32" height="32" fill="white"/>
</clipPath>
</defs>
</svg>
