<svg width="32" height="32" viewBox="0 0 32 32" fill="none" xmlns="http://www.w3.org/2000/svg">
<g clip-path="url(#clip0_837_226)">
<path d="M31.5931 16.3733C31.3368 16.17 31.0009 16.0966 30.6832 16.1744L29.4421 16.4736L22.2715 3.22294C22.0866 2.88131 21.7298 2.668 21.3414 2.66669H21.3382C20.9474 2.66706 20.5879 2.88025 20.4001 3.22294L19.1393 5.55037L16.4048 0.55625C16.2194 0.213562 15.8611 0 15.4715 0H15.4667C15.0758 0.0015 14.7173 0.217937 14.5339 0.563187L2.48107 22.9813L0.816003 23.3829C0.336566 23.4976 -0.00118438 23.9268 3.12145e-06 24.4198V30.9334C3.12145e-06 31.5224 0.477566 32 1.06669 32H30.9334C31.5225 32 32.0001 31.5224 32.0001 30.9333V17.2107C32.0007 16.8838 31.8506 16.5748 31.5931 16.3733V16.3733ZM25.6251 17.3952L20.9173 8.8L21.3339 8.384L22.7739 9.83094C22.9753 10.0259 23.245 10.1344 23.5253 10.1333C23.7474 10.1335 23.964 10.0635 24.144 9.93331L24.5381 9.65275L28.3691 16.7322L25.6251 17.3952ZM21.3333 3.73331L24.0272 8.71144L23.5243 9.06662L22.0891 7.62663C21.6713 7.21013 20.9954 7.21013 20.5776 7.62663L20.3835 7.82075L19.7494 6.66663L21.3333 3.73331ZM15.4667 1.06669L18.6027 6.79044L17.6576 7.46669L16.2224 6.02669C15.8046 5.60988 15.1283 5.60988 14.7104 6.02669L13.2747 7.46669L12.3749 6.82669L15.4667 1.06669ZM11.8661 7.77012L12.6523 8.33069C13.0763 8.63688 13.6595 8.59175 14.0314 8.224L15.4666 6.78131L16.9066 8.22825C17.1076 8.42425 17.3774 8.53381 17.6581 8.53331C17.8806 8.53356 18.0976 8.46338 18.2778 8.33275L19.1178 7.73331L24.5514 17.6533L20.2666 18.688V18.1333C20.2666 17.2497 19.5503 16.5333 18.6666 16.5333H12.5333C12.0915 16.5333 11.7333 16.1751 11.7333 15.7333C11.7333 15.2915 12.0915 14.9333 12.5333 14.9333H16.8C17.8309 14.9333 18.6667 14.0976 18.6667 13.0666C18.6667 12.0357 17.8309 11.2 16.8 11.2H16.5333C16.2388 11.2 16 10.9612 16 10.6667V9.06669C16 8.77213 15.7612 8.53337 15.4667 8.53337C15.1721 8.53337 14.9334 8.77219 14.9334 9.06669V10.6667C14.9334 11.5503 15.6498 12.2667 16.5334 12.2667H16.8001C17.2419 12.2667 17.6001 12.6249 17.6001 13.0667C17.6001 13.5085 17.2419 13.8667 16.8001 13.8667H12.5334C11.5024 13.8667 10.6667 14.7024 10.6667 15.7334C10.6667 16.7643 11.5024 17.6001 12.5334 17.6001H18.6667C18.9613 17.6001 19.2 17.8388 19.2 18.1334V18.9456L3.87257 22.6453L11.8661 7.77012ZM30.9333 30.9333H1.06669V24.4202L30.9334 17.2106V30.9333H30.9333Z" fill="#2563EB"/>
<path fill-rule="evenodd" clip-rule="evenodd" d="M2.6667 27.2C2.70876 27.2 2.75063 27.195 2.79151 27.1851L29.4582 20.7851C29.6486 20.7455 29.8023 20.6056 29.8595 20.4197C29.9166 20.2338 29.8681 20.0317 29.733 19.8919C29.5978 19.7522 29.3973 19.6972 29.2096 19.7482L2.54295 26.1482C2.28063 26.2116 2.10707 26.461 2.13857 26.7289C2.17007 26.9969 2.39682 27.1992 2.6667 27.2V27.2Z" fill="#2563EB"/>
</g>
<defs>
<clipPath id="clip0_837_226">
<rect width="32" height="32" fill="white"/>
</clipPath>
</defs>
</svg>
