<svg width="32" height="32" viewBox="0 0 32 32" fill="none" xmlns="http://www.w3.org/2000/svg">
<g clip-path="url(#clip0_837_548)">
<path d="M29.3333 2.13331H28.2666V1.6C28.2666 0.716375 27.5502 0 26.6666 0C25.783 0 25.0666 0.716375 25.0666 1.6V2.13331H22.9333V1.6C22.9333 0.716375 22.2169 0 21.3333 0C20.4497 0 19.7333 0.716375 19.7333 1.6V2.13331H17.6V1.6C17.6 0.716375 16.8837 0 16 0C15.1164 0 14.4 0.716375 14.4 1.6V2.13331H12.2667V1.6C12.2667 0.716375 11.5503 0 10.6667 0C9.78306 0 9.06669 0.716375 9.06669 1.6V2.13331H6.93337V1.6C6.93337 0.716375 6.217 0 5.33337 0C4.44975 0 3.73338 0.716375 3.73338 1.6V2.13331H2.66669C1.19463 2.13512 0.00175 3.328 0 4.8V29.3333C0.00175 30.8054 1.19463 31.9982 2.66669 32H29.3334C30.8054 31.9982 31.9982 30.8054 32.0001 29.3333V4.8C31.9982 3.328 30.8054 2.13512 29.3333 2.13331ZM26.1333 1.6C26.1333 1.30544 26.3721 1.06669 26.6666 1.06669C26.9612 1.06669 27.1999 1.3055 27.1999 1.6V3.73331C27.1999 4.02787 26.9612 4.26662 26.6666 4.26662C26.3721 4.26662 26.1333 4.02781 26.1333 3.73331V1.6ZM20.8 1.6C20.8 1.30544 21.0387 1.06669 21.3333 1.06669C21.6279 1.06669 21.8666 1.3055 21.8666 1.6V3.73331C21.8666 4.02787 21.6278 4.26662 21.3333 4.26662C21.0388 4.26662 20.8 4.02781 20.8 3.73331V1.6ZM15.4667 1.6C15.4667 1.30544 15.7055 1.06669 16 1.06669C16.2946 1.06669 16.5333 1.3055 16.5333 1.6V3.73331C16.5333 4.02787 16.2945 4.26662 16 4.26662C15.7054 4.26662 15.4667 4.02781 15.4667 3.73331V1.6ZM10.1333 1.6C10.1333 1.30544 10.3721 1.06669 10.6666 1.06669C10.9612 1.06669 11.1999 1.3055 11.1999 1.6V3.73331C11.1999 4.02787 10.9611 4.26662 10.6666 4.26662C10.3721 4.26662 10.1333 4.02781 10.1333 3.73331V1.6ZM4.8 1.6C4.8 1.30544 5.03881 1.06669 5.33331 1.06669C5.62781 1.06669 5.86662 1.3055 5.86662 1.6V3.73331C5.86662 4.02787 5.62781 4.26662 5.33331 4.26662C5.03881 4.26662 4.8 4.02787 4.8 3.73331V1.6ZM2.66669 3.2H3.73338V3.73331C3.73338 4.61694 4.44975 5.33331 5.33337 5.33331C6.217 5.33331 6.93337 4.61694 6.93337 3.73331V3.2H9.06669V3.73331C9.06669 4.61694 9.78306 5.33331 10.6667 5.33331C11.5504 5.33331 12.2667 4.61694 12.2667 3.73331V3.2H14.4V3.73331C14.4 4.61694 15.1164 5.33331 16 5.33331C16.8837 5.33331 17.6 4.61694 17.6 3.73331V3.2H19.7333V3.73331C19.7333 4.61694 20.4497 5.33331 21.3333 5.33331C22.2169 5.33331 22.9333 4.61694 22.9333 3.73331V3.2H25.0666V3.73331C25.0666 4.61694 25.783 5.33331 26.6666 5.33331C27.5502 5.33331 28.2666 4.61694 28.2666 3.73331V3.2H29.3333C30.2169 3.2 30.9333 3.91638 30.9333 4.8V6.4H1.06669V4.8C1.06669 3.91638 1.783 3.2 2.66669 3.2ZM29.3333 30.9333H2.66669C1.78306 30.9333 1.06669 30.2169 1.06669 29.3333V7.46669H30.9334V29.3334C30.9333 30.217 30.217 30.9333 29.3333 30.9333Z" fill="#2563EB"/>
<path d="M13.336 8.53331H13.3333C12.8393 8.51563 12.3587 8.69506 11.9972 9.03213C11.6357 9.36919 11.4232 9.83619 11.4063 10.3301C11.5781 12.8048 11.7327 15.2224 11.736 17.6V20.8C11.7397 23.2682 11.5627 25.8187 11.4048 28.1067C11.4588 29.1228 12.3192 29.9069 13.336 29.8667C14.3635 29.9006 15.225 29.0972 15.2629 28.0699C15.0827 25.4731 14.9333 23.1328 14.9333 20.8V17.6C14.9333 17.5893 14.9301 17.5797 14.9301 17.5691C14.9301 15.1082 15.1072 12.5701 15.2645 10.2907C15.2057 9.27831 14.3495 8.498 13.336 8.53331ZM13.336 9.6C13.7507 9.56219 14.1258 9.84656 14.2016 10.256C14.0752 12.0741 13.9403 14.0859 13.8896 16.1046C13.5325 15.9645 13.1357 15.9645 12.7787 16.1046C12.7307 14.1808 12.608 12.2427 12.4715 10.2913C12.528 9.86763 12.9075 9.56325 13.3333 9.60006H13.336V9.6ZM13.8693 20.8C13.8693 21.0946 13.6305 21.3333 13.336 21.3333C13.0414 21.3333 12.8027 21.0946 12.8027 20.8V17.6C12.8195 17.3216 13.0479 17.1032 13.3267 17.0989C13.6055 17.0946 13.8407 17.3057 13.8661 17.5834V17.5999L13.8693 20.8ZM13.336 28.8C12.856 28.8 12.4688 28.4869 12.4677 28.144C12.5941 26.3253 12.729 24.3131 12.7776 22.2949C13.1348 22.4351 13.5318 22.4351 13.889 22.2949C13.9343 24.1696 14.0549 26.0682 14.1978 28.104C14.1437 28.5296 13.7634 28.8366 13.336 28.8Z" fill="#2563EB"/>
<path d="M18.6693 8.53331H18.664C18.17 8.51563 17.6893 8.69506 17.3279 9.03213C16.9665 9.36919 16.7538 9.83619 16.737 10.3301C16.9088 12.8048 17.0634 15.2224 17.0667 17.6V20.8C17.0704 23.2682 16.8933 25.8187 16.7355 28.1067C16.828 29.1104 17.6749 29.8754 18.6828 29.8657C19.6907 29.8561 20.5228 29.0752 20.5962 28.0699C20.416 25.4731 20.2666 23.1328 20.2666 20.8V17.6C20.2666 17.5893 20.2634 17.5797 20.2634 17.5691C20.2634 15.1082 20.4405 12.5701 20.5978 10.2907C20.539 9.27831 19.6828 8.498 18.6693 8.53331ZM18.6667 9.6C19.0813 9.56219 19.4565 9.84656 19.5323 10.256C19.4059 12.0741 19.271 14.0859 19.2203 16.1046C18.8632 15.9645 18.4664 15.9645 18.1093 16.1046C18.0613 14.1808 17.9387 12.2427 17.8022 10.2913C17.8587 9.86644 18.2398 9.56169 18.6667 9.6ZM19.2 20.8C19.2 21.0946 18.9612 21.3333 18.6667 21.3333C18.3721 21.3333 18.1333 21.0946 18.1333 20.8V17.6C18.1502 17.3216 18.3786 17.1032 18.6574 17.0989C18.9362 17.0946 19.1713 17.3057 19.1968 17.5834V17.5999L19.2 20.8ZM18.6693 28.8C18.1893 28.8 17.8021 28.4869 17.801 28.144C17.9274 26.3253 18.0623 24.3131 18.1109 22.2949C18.4682 22.4351 18.8652 22.4351 19.2223 22.2949C19.2677 24.1696 19.3882 26.0682 19.5312 28.104C19.477 28.5296 19.0967 28.8366 18.6693 28.8Z" fill="#2563EB"/>
<path d="M9.6 9.59999C9.6 9.30543 9.36119 9.06668 9.06669 9.06668H5.86669C5.57212 9.06668 5.33337 9.30543 5.33337 9.59999C5.33337 9.89456 5.57219 10.1333 5.86669 10.1333V13.3333C5.57212 13.3333 5.33337 13.5721 5.33337 13.8666C5.33337 14.1612 5.57219 14.3999 5.86669 14.3999H6.93337V27.1999H5.86669C5.57212 27.1999 5.33337 27.4387 5.33337 27.7332C5.33337 28.0278 5.57219 28.2665 5.86669 28.2665H6.93337V29.3332C6.93337 29.6278 7.17219 29.8665 7.46669 29.8665C7.76125 29.8665 8 29.6277 8 29.3332V28.2665H9.06669C9.36125 28.2665 9.6 28.0277 9.6 27.7332C9.6 27.4387 9.36119 27.1999 9.06669 27.1999H8V14.4H9.06669C9.36125 14.4 9.6 14.1612 9.6 13.8667C9.6 13.5721 9.36119 13.3334 9.06669 13.3334V10.1334C9.36119 10.1333 9.6 9.89456 9.6 9.59999ZM8 13.3333H6.93331V10.1333H8V13.3333Z" fill="#2563EB"/>
<path d="M26.6667 9.59999C26.6667 9.30543 26.428 9.06668 26.1334 9.06668H22.9334C22.6388 9.06668 22.4001 9.30543 22.4001 9.59999C22.4001 9.89456 22.6388 10.1333 22.9334 10.1333V13.3333C22.6388 13.3333 22.4001 13.5721 22.4001 13.8666C22.4001 14.1612 22.6388 14.3999 22.9334 14.3999H24V27.1999H22.9333C22.6388 27.1999 22.4 27.4387 22.4 27.7332C22.4 28.0278 22.6388 28.2665 22.9333 28.2665H24V29.3332C24 29.6278 24.2388 29.8665 24.5333 29.8665C24.8279 29.8665 25.0667 29.6277 25.0667 29.3332V28.2665H26.1333C26.4279 28.2665 26.6666 28.0277 26.6666 27.7332C26.6666 27.4387 26.4279 27.1999 26.1333 27.1999H25.0667V14.4H26.1333C26.4279 14.4 26.6666 14.1612 26.6666 13.8667C26.6666 13.5721 26.4279 13.3334 26.1333 13.3334V10.1334C26.4279 10.1333 26.6667 9.89456 26.6667 9.59999ZM25.0667 13.3333H24V10.1333H25.0667V13.3333Z" fill="#2563EB"/>
</g>
<defs>
<clipPath id="clip0_837_548">
<rect width="32" height="32" fill="white"/>
</clipPath>
</defs>
</svg>
