<svg width="32" height="32" viewBox="0 0 32 32" fill="none" xmlns="http://www.w3.org/2000/svg">
<path d="M26.0083 1.27625C25.8527 0.534312 25.1995 0.00225 24.4414 0H7.55924C6.80117 0.00225 6.14792 0.534312 5.9923 1.27625L0.0333622 30.0763C-0.0640128 30.5474 0.0558622 31.0374 0.359737 31.4104C0.663612 31.7835 1.11917 32 1.6003 32H30.4003C30.8814 31.9999 31.3368 31.7832 31.6405 31.4102C31.9442 31.0372 32.064 30.5474 31.9667 30.0763L26.0083 1.27625ZM14.5177 5.95519C14.7124 6.57206 15.1695 7.07156 15.7667 7.32L20.0542 9.08531L20.0659 9.09013L20.2792 9.17756C22.2114 9.96844 23.4718 11.8509 23.467 13.9386C23.467 15.4992 22.7102 16.945 21.2179 18.2384C17.5643 21.4035 15.4657 25.9996 15.467 30.8336V30.9333H6.95124C7.14492 25.6883 9.9483 20.8876 14.4211 18.1413L17.6462 16.1819C18.642 15.5501 19.2183 14.4293 19.1529 13.2517C19.12 12.0838 18.4489 11.0281 17.4051 10.5029L13.1485 8.38081C12.4925 8.04338 12.0102 7.44375 11.8211 6.73069C12.1 6.53113 12.2659 6.20962 12.267 5.86669V4.8C12.2664 4.71988 12.2567 4.64006 12.2382 4.56213C12.3129 4.459 12.395 4.3615 12.484 4.27037L15.6878 1.06662H16.6404L14.7353 4.11037C14.3945 4.66325 14.3149 5.33825 14.5177 5.95519V5.95519ZM11.2003 4.8V5.86669H10.1336V4.8H11.2003ZM1.18749 30.7371C1.0858 30.6127 1.04567 30.4491 1.07817 30.2917L7.03711 1.49175C7.08774 1.24356 7.30599 1.06531 7.55924 1.06506H14.1795L11.7304 3.51575C11.648 3.6005 11.57 3.6895 11.4968 3.78244C11.4008 3.75194 11.3009 3.73544 11.2002 3.73338H10.1335C10.1335 3.43881 9.89474 3.20006 9.60024 3.20006C9.30567 3.20006 9.06692 3.43888 9.06692 3.73338V8.53337C9.06692 8.82794 9.30574 9.06669 9.60024 9.06669C9.8948 9.06669 10.1335 8.82787 10.1335 8.53337V6.93337H10.7704C11.0286 7.97081 11.7229 8.84587 12.6744 9.33337C16.8247 11.4037 16.9304 11.4555 16.9304 11.4555C17.625 11.8105 18.0692 12.5177 18.0872 13.2976C18.1417 14.0888 17.7585 14.8463 17.0888 15.2709L13.8669 17.2299C9.07711 20.1706 6.0798 25.3161 5.88461 30.9333H1.6003C1.44024 30.9332 1.28867 30.8611 1.18749 30.7371V30.7371ZM30.8137 30.7371C30.7124 30.8612 30.5606 30.9333 30.4004 30.9333H16.5337V30.8336C16.5333 26.3099 18.4975 22.0089 21.9166 19.0469C23.6532 17.5402 24.5337 15.8218 24.5337 13.9386C24.5383 11.4651 23.0705 9.226 20.8004 8.24369V6.93331H21.867C22.4562 6.93331 22.9337 6.45575 22.9337 5.86662V4.8C22.9337 4.21088 22.4562 3.73331 21.867 3.73331H20.8004C20.8004 3.43875 20.5615 3.2 20.267 3.2C19.9725 3.2 19.7337 3.43881 19.7337 3.73331V7.79944L16.1727 6.33331C15.867 6.20056 15.6333 5.94263 15.5312 5.62544C15.4291 5.30825 15.4685 4.96237 15.6394 4.67625L17.8964 1.06662H24.4415C24.6947 1.06681 24.913 1.24512 24.9636 1.49331L30.9225 30.2933C30.9545 30.4499 30.9146 30.6126 30.8137 30.7365V30.7371H30.8137ZM20.8003 5.86669V4.8H21.867V5.86669H20.8003Z" fill="#2563EB"/>
<path d="M8.00035 21.3333C8.29492 21.3333 8.53367 21.0946 8.53367 20.8V18.1333H10.667C11.2561 18.1333 11.7337 17.6558 11.7337 17.0666V14.9333C11.7337 14.3442 11.2561 13.8666 10.667 13.8666H8.53367C8.53367 13.5721 8.29492 13.3333 8.00035 13.3333C7.70579 13.3333 7.46704 13.5721 7.46704 13.8666V20.8C7.46704 21.0946 7.70579 21.3333 8.00035 21.3333ZM10.667 14.9333V17.0666H8.53373V14.9333H10.667Z" fill="#2563EB"/>
<path d="M23.467 22.4H21.3337C21.3337 22.1054 21.095 21.8667 20.8004 21.8667C20.5058 21.8667 20.2671 22.1054 20.2671 22.4V28.5173C20.2671 28.8119 20.5059 29.0506 20.8004 29.0506C21.0949 29.0506 21.3337 28.8119 21.3337 28.5173V26.6666H23.467C24.0562 26.6666 24.5337 26.1891 24.5337 25.5999V23.4666C24.5337 22.8776 24.0562 22.4 23.467 22.4V22.4ZM21.3337 25.6V23.4667H23.467V25.6H21.3337Z" fill="#2563EB"/>
</svg>
