<svg width="100" height="100" viewBox="0 0 100 100" fill="none" xmlns="http://www.w3.org/2000/svg">
<path d="M90 3.3334H83.0268C82.3228 1.34277 80.4447 0.00878906 78.3334 0H21.6666C19.5553 0.00878906 17.677 1.34277 16.9732 3.3334H10C4.47949 3.33887 0.00546875 7.81269 0 13.3334V43.3334C0.00546875 48.8539 4.47949 53.3279 10 53.3334H20.2732C23.9455 60.5807 30.1271 66.2459 37.6666 69.2734L33.9699 76.6668H33.3332C29.6514 76.6668 26.6666 79.6516 26.6666 83.3334V86.6668C22.9848 86.6668 20 89.6516 20 93.3334V95C20 97.7613 22.2387 100 25 100H75C77.7613 100 80 97.7615 80 95V93.3334C80 89.6516 77.0152 86.6668 73.3334 86.6668V83.3334C73.3334 79.6516 70.3486 76.6668 66.6668 76.6668H66.0301L62.3334 69.2734C69.8729 66.2459 76.0545 60.5807 79.7268 53.3334H90C95.5205 53.3279 99.9945 48.8539 100 43.3334V13.3334C99.9945 7.81269 95.5205 3.33887 90 3.3334V3.3334ZM83.3334 13.3334H88.3334C89.2539 13.3334 90 14.0797 90 15V41.6666C90 42.5871 89.2539 43.3332 88.3334 43.3332H82.9168C83.1816 41.6795 83.3209 40.008 83.3334 38.3332V13.3334ZM21.6666 3.3334H78.3332C79.2537 3.3334 79.9998 4.07969 79.9998 5V6.6666H20V5C20 4.07949 20.7463 3.3334 21.6666 3.3334V3.3334ZM17.0834 43.3334H11.6666C10.7461 43.3334 10 42.5871 10 41.6668V15C10 14.0795 10.7463 13.3334 11.6666 13.3334H16.6666V38.3334C16.6793 40.0082 16.8186 41.6795 17.0834 43.3334V43.3334ZM10 50C6.31816 50 3.3334 47.0152 3.3334 43.3334V13.3334C3.3334 9.65156 6.31816 6.6668 10 6.6668H16.6666V10H11.6666C8.90527 10 6.6666 12.2387 6.6666 15V41.6666C6.6666 44.4279 8.90527 46.6666 11.6666 46.6666H17.7633C18.0549 47.7955 18.4059 48.9082 18.815 50H10ZM76.6666 93.3334V95C76.6666 95.9205 75.9205 96.6666 75 96.6666H25C24.0795 96.6666 23.3334 95.9205 23.3334 95V93.3334C23.3334 91.4924 24.8258 90 26.6668 90H73.3334C75.1742 90 76.6666 91.4924 76.6666 93.3334V93.3334ZM70 83.3334V86.6668H30V83.3334C30 81.4924 31.4924 80 33.3334 80H66.6668C68.5076 80 70 81.4924 70 83.3334V83.3334ZM62.3033 76.6666H37.6967L40.85 70.36C46.8256 72.1022 53.1744 72.1022 59.15 70.36L62.3033 76.6666ZM50 68.3334C33.4395 68.3141 20.0193 54.8939 20 38.3334V10H80V38.3334C79.9807 54.8939 66.5605 68.3141 50 68.3334ZM96.6666 43.3334C96.6666 47.0152 93.6818 50 90 50H81.185C81.5939 48.9082 81.9451 47.7955 82.2367 46.6666H88.3334C91.0947 46.6666 93.3334 44.4279 93.3334 41.6666V15C93.3334 12.2387 91.0947 10 88.3334 10H83.3334V6.6666H90C93.6818 6.6666 96.6666 9.65137 96.6666 13.3332V43.3334Z" fill="#2563EB"/>
<path d="M63.6384 37.5401L63.4117 37.4034C63.1644 36.7457 62.7804 36.1483 62.2849 35.65L61.9515 35.3166C60.9654 34.3627 59.6306 33.8559 58.2599 33.9149C57.5558 33.3543 56.8816 32.7575 56.24 32.1266L52.8668 28.7549C52.2144 28.0938 51.5996 27.3965 51.0252 26.6666C51.0252 26.6332 51.0351 26.6034 51.0351 26.57C51.041 25.1862 50.4931 23.8575 49.5134 22.8799C48.9935 22.3688 48.3675 21.9778 47.68 21.735C47.6068 21.6117 47.5334 21.4868 47.4668 21.3832C46.9019 20.4571 46.2295 19.6012 45.4634 18.8332C40.7968 14.1565 33.63 13.7116 29.5017 17.8332C25.3734 21.9549 25.8216 29.1233 30.5017 33.7965C31.2654 34.5588 32.115 35.2301 33.0334 35.7965L33.3668 35.9965C34.1287 38.036 36.0796 39.3858 38.2568 39.3799C38.2902 39.3799 38.3218 39.3715 38.355 39.37C39.0796 39.9428 39.7724 40.5547 40.43 41.2034L43.8084 44.5817C44.4254 45.2078 45.0089 45.8659 45.5566 46.5534C45.4908 47.9471 46.014 49.3043 46.9982 50.2934L47.3316 50.6268C47.8296 51.1215 48.4265 51.5055 49.0834 51.7535C49.125 51.8201 49.1683 51.8951 49.2066 51.9553C49.7697 52.8793 50.4398 53.7336 51.2033 54.5002C53.5472 56.8989 56.7449 58.2727 60.0982 58.3219C62.738 58.3614 65.2834 57.3407 67.1648 55.4885C71.2916 51.3602 70.8449 44.1985 66.1648 39.5252C65.4023 38.7682 64.5544 38.1022 63.6384 37.5401V37.5401ZM59.9302 38.01C60.2431 38.3227 60.4191 38.7469 60.4191 39.1891C60.4191 39.6313 60.2433 40.0557 59.9302 40.3682L52.0336 48.2631C51.3752 48.8951 50.3353 48.8951 49.6769 48.2631L49.3435 47.9297C48.6929 47.2789 48.6929 46.2239 49.3435 45.5731L57.2402 37.6764C57.5529 37.3635 57.9771 37.1875 58.4193 37.1875C58.8617 37.1875 59.2859 37.3633 59.5984 37.6764L59.9302 38.01ZM31.8586 20.1901C34.692 17.3567 39.7318 17.81 43.1052 21.1901C43.3103 21.3951 43.4968 21.6201 43.6853 21.8451C43.0972 22.0869 42.5617 22.4407 42.1086 22.8867L34.5468 30.4467C34.1011 30.8967 33.7404 31.4235 33.4818 32.0018C33.2668 31.8201 33.0502 31.6418 32.8535 31.4451C29.4785 28.0651 29.0302 23.0184 31.8586 20.1901V20.1901ZM36.3336 34.1334C36.3363 33.6317 36.539 33.1518 36.8968 32.8L44.4586 25.2401C45.2035 24.5125 46.3951 24.5194 47.1316 25.2553C47.8681 25.9914 47.8757 27.183 47.1486 27.9284L39.5869 35.4901C38.8334 36.2067 37.6503 36.2067 36.8968 35.4901C36.5353 35.1313 36.3324 34.6428 36.3336 34.1334V34.1334ZM42.7718 38.8434C42.4701 38.5416 42.1402 38.2467 41.8152 37.9518C41.8552 37.9135 41.9035 37.8852 41.9435 37.8451L49.5052 30.2852C49.5453 30.2451 49.5718 30.1969 49.6119 30.1551C49.9068 30.4885 50.2002 30.8102 50.5035 31.1118L53.8818 34.4901C54.1818 34.7901 54.5086 35.0817 54.83 35.3735L47.04 43.1668C46.7466 42.8452 46.4566 42.5186 46.1566 42.2202L42.7718 38.8434ZM64.8019 53.1434C61.9685 55.9768 56.9287 55.5235 53.5552 52.1434C53.3703 51.9584 53.2052 51.7551 53.0353 51.5567C53.5334 51.319 53.989 51.0008 54.3835 50.6151L62.2802 42.7202C62.6662 42.3246 62.9828 41.8672 63.217 41.3668C63.417 41.5334 63.6203 41.7002 63.8052 41.8885C67.1886 45.2686 67.6369 50.3153 64.8085 53.1436H64.8019V53.1434Z" fill="#2563EB"/>
</svg>
