<svg width="100" height="100" viewBox="0 0 100 100" fill="none" xmlns="http://www.w3.org/2000/svg">
<g clip-path="url(#clip0_815_517)">
<path d="M83.883 84.2426C80.0914 80.5186 74.5972 79.108 69.4805 80.5446L66.814 67.242C66.6588 66.4487 66.357 65.6913 65.924 65.0088L61.1909 57.4442L80.4765 47.4281C83.2559 46.0089 85.0032 43.1493 84.998 40.0286C85.0003 38.6712 84.6652 37.3346 84.023 36.1387C81.8495 32.0509 76.7875 30.4785 72.6803 32.6157L58.3327 40.0653V28.3292C58.3305 26.1145 57.4501 23.991 55.8846 22.4245C55.7313 22.2727 55.5363 22.1513 55.3647 22.0112C60.1158 19.5434 62.5752 14.1568 61.328 8.95024C60.0808 3.7437 55.4477 0.056023 50.0941 0.00876005C44.7405 -0.0385029 40.0429 3.56657 38.7039 8.75025C37.3649 13.9339 39.7286 19.3631 44.4352 21.9147C43.8983 22.3311 43.4093 22.8057 42.9769 23.3297H35.0006C31.319 23.3297 28.3344 26.3143 28.3344 29.9959V38.3288C28.3344 42.0105 31.319 44.9951 35.0006 44.9951H37.2471C37.8698 46.0878 38.7228 47.0317 39.747 47.7615L41.3535 48.8847L27.8543 55.8993C25.8812 56.9208 24.3969 58.6867 23.7299 60.8061C23.063 62.9255 23.2686 65.2232 24.3012 67.1905C26.4936 71.2651 31.5477 72.8298 35.659 70.7069L38.7805 69.0853L38.7004 69.5319C38.5344 70.4333 38.1227 71.2713 37.5104 71.9535L29.9841 80.4214C25.0115 79.1933 19.7581 80.6409 16.1165 84.2428C12.5261 82.6542 8.3726 83.0118 5.10638 85.1906C1.84016 87.3694 -0.0851239 91.0671 0.0023712 94.9922C0.0023712 97.7534 2.24092 99.9919 5.00209 99.9919H94.997C97.7582 99.9919 99.9967 97.7534 99.9967 94.9922C100.084 91.0671 98.1589 87.3694 94.8927 85.1906C91.6269 83.0116 87.4734 82.6541 83.883 84.2426V84.2426ZM63.1092 66.787C63.3216 67.1237 63.4709 67.4965 63.5492 67.8869L66.3324 81.7945C65.858 82.0342 65.3969 82.299 64.9508 82.5878C63.4476 81.1651 61.7489 79.964 59.9062 79.0214L58.178 70.9452C57.9386 69.8003 57.395 68.741 56.6048 67.8787L52.4584 63.2772C52.4217 63.2253 52.3814 63.1757 52.3385 63.129L51.6719 62.3874L58.2215 58.9859L63.1092 66.787ZM51.0614 72.1384L52.0279 67.7787L54.1411 70.1253C54.5323 70.5516 54.801 71.0756 54.9194 71.6418L56.181 77.5397C54.1729 76.9538 52.0916 76.6575 49.9997 76.6597C49.4799 76.6597 48.9682 76.6964 48.4565 76.7313L49.3865 75.598C50.1947 74.5834 50.7667 73.4016 51.0614 72.1384V72.1384ZM41.667 11.6634C41.667 7.06129 45.3979 3.33045 49.9999 3.33045C54.602 3.33045 58.3329 7.06129 58.3329 11.6634C58.3329 16.2655 54.602 19.9963 49.9999 19.9963C45.4 19.9908 41.6725 16.2633 41.667 11.6634ZM36.7272 37.3736C36.1634 38.728 35.9535 40.2037 36.1173 41.6617H35.0008C33.1599 41.6617 31.6676 40.1694 31.6676 38.3285V29.9955C31.6676 28.1546 33.1599 26.6623 35.0008 26.6623H41.1137L36.7272 37.3736ZM39.8105 38.6419L44.4852 27.2242C45.3182 24.8929 47.5243 23.3348 49.9999 23.3295C51.3114 23.3816 52.5619 23.8965 53.5298 24.7827C54.4694 25.7241 54.9979 26.9992 54.9997 28.3292V41.7968L52.6664 43.0034L47.6417 39.8286C47.595 39.8002 47.5634 39.7268 47.6218 39.6135L51.5049 31.4474C51.7684 30.9086 51.7223 30.2697 51.3838 29.7746C51.0454 29.2796 50.4669 29.0044 49.8693 29.0542C49.2717 29.1042 48.7469 29.4713 48.4951 30.0156L44.6303 38.1351C43.7995 39.7338 44.3424 41.7029 45.8752 42.6499L53.1664 47.2563C53.7325 47.6121 54.1233 48.1892 54.2434 48.8472C54.3636 49.505 54.2018 50.183 53.798 50.716C53.0041 51.7097 51.5823 51.9318 50.5231 51.2277L41.667 45.0331C39.6203 43.6059 38.8471 40.9437 39.8105 38.6419V38.6419ZM34.1174 67.7469C31.6334 69.0341 28.576 68.0951 27.2428 65.6353C26.6214 64.4613 26.4976 63.0866 26.8995 61.8205C27.2977 60.5391 28.1936 59.471 29.3861 58.8556L44.437 51.041L48.6117 53.9592C51.0641 55.6763 54.4259 55.2103 56.3187 52.8911C58.2118 50.5719 57.9948 47.185 55.8213 45.1263L74.2185 35.5751C76.7041 34.2785 79.7701 35.2314 81.0831 37.7084C81.4659 38.4216 81.6657 39.2188 81.6647 40.0282C81.6665 41.9013 80.616 43.6166 78.9465 44.4662L34.1174 67.7469ZM40.0005 74.1682C41.021 73.0282 41.7067 71.6285 41.982 70.1235L42.5203 67.1436L48.6217 63.9772L49.2967 64.7271L47.8167 71.4068C47.636 72.172 47.2895 72.8884 46.8017 73.505L43.3536 77.7047C40.255 78.6879 37.4184 80.3583 35.0559 82.5912C34.5217 82.2351 33.9649 81.9139 33.3894 81.6295L40.0005 74.1682ZM94.9974 96.6587H5.00248C4.08202 96.6587 3.33597 95.9127 3.33597 94.9922C3.19399 92.7611 4.01074 90.5753 5.58096 88.984C7.15119 87.3926 9.32587 86.547 11.5587 86.6593C12.9995 86.6581 14.4164 87.027 15.6736 87.7309C16.3653 88.1188 17.2344 87.9653 17.7518 87.3643C21.9447 82.5328 29.2376 81.9564 34.1376 86.0695C34.818 86.6405 35.8267 86.5775 36.4308 85.9261C39.9294 82.1437 44.8477 79.9935 49.9999 79.9935C55.1522 79.9935 60.0707 82.1439 63.5691 85.9261C64.1732 86.5775 65.1819 86.6405 65.8623 86.0695C70.7622 81.9564 78.055 82.5328 82.2481 87.3643C82.7655 87.9655 83.6346 88.1188 84.3263 87.7309C85.5835 87.027 87.0004 86.6581 88.4411 86.6593C90.674 86.547 92.8487 87.3926 94.4189 88.984C95.9891 90.5753 96.8059 92.7611 96.6639 94.9922C96.6639 95.9125 95.9178 96.6587 94.9974 96.6587V96.6587Z" fill="#2563EB"/>
</g>
<defs>
<clipPath id="clip0_815_517">
<rect width="100" height="100" fill="white"/>
</clipPath>
</defs>
</svg>
