<svg width="100" height="100" viewBox="0 0 100 100" fill="none" xmlns="http://www.w3.org/2000/svg">
<path d="M91.6664 49.9999C87.1811 49.9001 83.4576 53.4419 83.333 57.9267C84.0746 69.1484 84.9996 83.115 84.9996 95.4833V96.6667C84.9996 98.5077 86.492 100 88.333 100H94.9998C96.8408 100 98.3332 98.5077 98.3332 96.6667V95.4833C98.3332 83.115 99.2549 69.1499 99.9998 57.9267C99.9998 57.8867 99.9998 57.8484 99.9998 57.8101C99.8184 53.3689 96.11 49.8935 91.6664 49.9999V49.9999ZM91.6664 53.3333C94.2557 53.2269 96.465 55.188 96.6664 57.7716C96.1014 66.3282 95.4348 76.4632 95.1465 86.3032C93.1215 84.6487 90.2115 84.6487 88.1865 86.3032C87.8982 76.4433 87.2299 66.3032 86.6666 57.8249C86.8336 55.2167 89.0555 53.2208 91.6664 53.3333V53.3333ZM88.3332 96.6665V95.6665L89.3182 90.4816C89.4633 89.2952 90.4705 88.4038 91.6656 88.4038C92.8607 88.4038 93.868 89.2954 94.0131 90.4816L94.9998 95.6665V96.6665H88.3332Z" fill="#2563EB"/>
<path fill-rule="evenodd" clip-rule="evenodd" d="M35.0001 50H41.6667C42.5872 50 43.3333 49.2539 43.3333 48.3333C43.3333 47.4128 42.587 46.6667 41.6667 46.6667H35.0001C34.0796 46.6667 33.3335 47.413 33.3335 48.3333C33.3335 49.2539 34.0796 50 35.0001 50Z" fill="#2563EB"/>
<path fill-rule="evenodd" clip-rule="evenodd" d="M40 51.6666H36.6666C35.7461 51.6666 35 52.4127 35 53.3332C35 54.2537 35.7463 54.9998 36.6666 54.9998H40C40.9205 54.9998 41.6666 54.2537 41.6666 53.3332C41.6666 52.4127 40.9205 51.6666 40 51.6666Z" fill="#2563EB"/>
<path d="M3.3334 100H75C76.841 100 78.3334 98.5076 78.3334 96.6666V95.4832C78.3334 83.1148 79.2551 69.1498 80 57.9266C80 57.8865 80 57.8482 80 57.81C79.8186 53.3689 76.1102 49.8936 71.6666 50C70.1809 50.0111 68.723 50.4061 67.435 51.1467L63.9633 37.3334C65.9299 33.8066 65.0311 29.3729 61.8467 26.89C62.7994 25.952 63.3352 24.6703 63.3334 23.3334V20C63.3215 8.95918 54.374 0.0119141 43.3334 0H33.3334C22.2926 0.0119141 13.3453 8.95918 13.3334 20V23.3334C13.333 24.6688 13.8686 25.9482 14.8201 26.8852C11.633 29.3684 10.734 33.8055 12.7035 37.3334L8.5668 53.8117C7.99668 56.0978 8.50937 58.5191 9.95723 60.3779C11.4051 62.2367 13.6271 63.3266 15.9834 63.3334H27.3584C26.5559 64.7223 25.468 65.9254 24.1668 66.8635L9.90684 72.0451C7.19668 73.0283 0 75.6449 0 91.6666V96.6666C0 98.5076 1.49238 100 3.3334 100V100ZM15 33.3482C15.0072 31.2391 16.3428 29.3635 18.3334 28.6666V38.0232C16.3449 37.3273 15.01 35.4549 15 33.3482V33.3482ZM52.5 66.8633C51.199 65.9248 50.1113 64.7219 49.3084 63.3332H60.6834C61.7033 63.3287 62.7119 63.1201 63.65 62.7199C63.825 65.4266 64.0018 68.2416 64.1666 71.1199L52.5 66.8633ZM63.3334 57.9268C63.3566 58.275 63.3801 58.6484 63.4033 59.0018C62.642 59.6461 61.6773 60.0004 60.6801 60.0018H48.3584C48.3242 59.0777 48.4369 58.1539 48.6918 57.265C50.0594 56.2492 51.3277 55.1063 52.4801 53.8518C55.474 50.3449 57.4475 46.0834 58.1852 41.5318C59.2887 41.3205 60.3373 40.8861 61.2668 40.2551L64.6436 53.7268C63.8041 54.9678 63.3484 56.4285 63.3334 57.9268ZM58.3334 38.0268V28.6668C60.3279 29.3563 61.666 31.2348 61.666 33.3451C61.666 35.4555 60.3279 37.334 58.3334 38.0234V38.0268ZM55 40C55 40.9205 54.2539 41.6666 53.3334 41.6666H45.8334C44.7848 41.6641 43.798 41.1705 43.1668 40.3332L41.6234 38.2748C40.8465 37.2396 39.6277 36.6303 38.3334 36.6303C37.0391 36.6303 35.8203 37.2395 35.0434 38.2748L33.5 40.3332C32.8688 41.1705 31.8818 41.6639 30.8334 41.6666H23.3334C22.4129 41.6666 21.6668 40.9203 21.6668 40V28.3334H55V40ZM23.3334 45H30.8334C32.9307 44.9953 34.9047 44.0084 36.1668 42.3334L37.7084 40.2783C37.8564 40.0824 38.0879 39.9672 38.3334 39.9672C38.5789 39.9672 38.8104 40.0824 38.9584 40.2783L40.5 42.3334C41.7621 44.0084 43.7361 44.9953 45.8334 45H53.3334C53.5131 44.9914 53.6922 44.9736 53.8701 44.9467C53.0131 47.4014 51.6949 49.6699 49.9867 51.6301C47.54 54.3684 41.9816 58.3334 38.3334 58.3334C34.6852 58.3334 29.1268 54.3684 26.6801 51.6301C24.9719 49.6699 23.6539 47.4016 22.7967 44.9467C22.9746 44.9736 23.1537 44.9914 23.3334 45V45ZM31.6518 59.6316C33.6846 60.8338 35.9756 61.5316 38.3334 61.6666C40.6912 61.5314 42.9822 60.8338 45.015 59.6316C45.0855 63.3828 46.9104 66.8838 49.9451 69.09C49.1828 74.9709 45.4154 80.0314 40.0002 82.4484V80C40.0002 79.0795 39.2539 78.3334 38.3336 78.3334C37.4133 78.3334 36.667 79.0797 36.667 80V82.4482C31.2514 80.0314 27.4832 74.9711 26.7203 69.0898C29.7555 66.8844 31.5811 63.3832 31.6518 59.6316V59.6316ZM40 96.6666V86.11C46.7691 83.5908 51.732 77.7205 53.09 70.6266L64.3633 74.7398C64.7283 81.6666 65 88.8031 65 95.4832V96.6666H40ZM68.3334 96.6666V95.6666L69.3184 90.4816C69.4604 89.2924 70.4689 88.3969 71.6666 88.3969C72.8643 88.3969 73.873 89.2924 74.0148 90.4816L75 95.6666V96.6666H68.3334ZM71.6666 53.3334C74.2559 53.227 76.4652 55.1881 76.6666 57.7717C76.1016 66.3283 75.435 76.4633 75.1467 86.3033C73.1217 84.6488 70.2117 84.6488 68.1867 86.3033C67.8984 76.4434 67.2301 66.3033 66.6668 57.825C66.8338 55.2168 69.0557 53.2209 71.6666 53.3334V53.3334ZM16.6666 20C16.6768 10.7994 24.1326 3.34336 33.3332 3.3334H43.3332C52.5338 3.34355 59.9898 10.7994 59.9998 20V23.3334C59.9998 24.2539 59.2537 25 58.3332 25H18.3332C17.4127 25 16.6666 24.2537 16.6666 23.3334V20V20ZM15.9834 60C14.6525 59.9971 13.3973 59.3814 12.5801 58.3311C11.7631 57.2805 11.4752 55.9123 11.8 54.6217L15.4051 40.2533C16.3355 40.8838 17.3846 41.3182 18.4885 41.5301C19.2262 46.0816 21.1996 50.3434 24.1936 53.85C25.3459 55.1047 26.6143 56.2475 27.9818 57.2633C28.2367 58.1521 28.3492 59.0758 28.3152 60H15.9834ZM3.3334 91.6666C3.3334 77.9799 8.73672 76.0148 11.1184 75.15L23.5768 70.6232C24.9336 77.7184 29.8967 83.5902 36.6668 86.11V96.6666H16.6668V86.6666C16.6668 85.7461 15.9207 85 15.0002 85C14.0797 85 13.3336 85.7463 13.3336 86.6666V96.6666H3.33359V91.6666H3.3334Z" fill="#2563EB"/>
<path fill-rule="evenodd" clip-rule="evenodd" d="M33.3336 9.99995H43.3336C44.2541 9.99995 45.0002 9.25366 45.0002 8.33335C45.0002 7.41304 44.2539 6.66675 43.3336 6.66675H33.3336C32.4131 6.66675 31.667 7.41304 31.667 8.33335C31.667 9.25366 32.4131 9.99995 33.3336 9.99995V9.99995Z" fill="#2563EB"/>
</svg>
