<svg width="100" height="100" viewBox="0 0 100 100" fill="none" xmlns="http://www.w3.org/2000/svg">
<path fill-rule="evenodd" clip-rule="evenodd" d="M36.6723 50H43.3383C44.2587 50 45.0048 49.254 45.0048 48.3336C45.0048 47.4131 44.2585 46.6671 43.3383 46.6671H36.6723C35.7519 46.6671 35.0059 47.4131 35.0059 48.3336C35.0059 49.254 35.7519 50 36.6723 50Z" fill="#2563EB"/>
<path fill-rule="evenodd" clip-rule="evenodd" d="M41.6719 51.6665H38.3388C37.4184 51.6665 36.6724 52.4125 36.6724 53.333C36.6724 54.2534 37.4186 54.9994 38.3388 54.9994H41.6719C42.5923 54.9994 43.3384 54.2534 43.3384 53.333C43.3384 52.4125 42.5923 51.6665 41.6719 51.6665Z" fill="#2563EB"/>
<path d="M83.3348 46.6669C74.1456 46.6669 66.6697 54.8912 66.6697 64.9987C66.6695 66.0894 66.7576 67.1784 66.933 68.255C67.1896 69.8215 67.4029 71.3065 67.5863 72.7446C66.2114 71.9748 64.7648 71.2448 63.3366 70.5782V66.6653C63.3366 62.9838 60.3521 59.9993 56.6706 59.9993H53.0044C52.8839 58.3819 52.9124 56.7568 53.0893 55.1447L57.1622 51.58C58.9691 49.9969 60.0047 47.7112 60.0035 45.3088V41.4758C63.1679 40.8501 65.6796 38.4419 66.4381 35.3068C67.1966 32.1717 66.0632 28.8816 63.5349 26.8789C64.477 25.9409 65.0056 24.6654 65.0031 23.3358V20.0027C64.9912 8.96289 56.0447 0.0164296 45.0049 0.0045166H35.0058C23.966 0.0164296 15.0195 8.96289 15.0076 20.0027V23.3358C15.0068 24.663 15.5353 25.9358 16.4758 26.8722C13.9475 28.8752 12.8141 32.1651 13.5726 35.3002C14.3311 38.4352 16.8428 40.8434 20.0072 41.4691V45.3022C20.0073 47.7053 21.045 49.9912 22.8536 51.5733L26.9265 55.138C27.1022 56.7525 27.129 58.3799 27.0065 59.9993H23.3403C19.6587 59.9993 16.6743 62.9838 16.6743 66.6653V70.59C12.6746 72.4548 8.46327 74.8095 6.32518 77.2276C2.11853 81.5132 -0.161926 87.3267 0.00895656 93.3295V94.996C0.00895656 97.757 2.24743 99.9955 5.00851 99.9955H95.0004C96.8412 99.9955 98.3335 98.5033 98.3335 96.6624V83.5585C98.3819 78.4275 98.8512 73.3092 99.7367 68.2548C99.9121 67.1782 100 66.0892 100 64.9985C100 54.8912 92.5239 46.6669 83.3348 46.6669V46.6669ZM56.6704 63.3322C58.5113 63.3322 60.0035 64.8245 60.0035 66.6653V69.1118C57.6387 68.1119 55.6422 67.3818 54.614 67.0137C54.1277 65.8222 53.7469 64.5903 53.4758 63.3324H56.6704V63.3322ZM23.3403 39.9693V28.3354H56.6706V40.0009C56.6706 40.9213 55.9246 41.6674 55.0042 41.6674H47.5049C46.4563 41.6648 45.4697 41.1713 44.8385 40.3341L43.2953 38.2759C42.5184 37.2408 41.2998 36.6315 40.0055 36.6315C38.7113 36.6315 37.4927 37.2406 36.7158 38.2759L35.1726 40.3341C34.5414 41.1713 33.5546 41.6646 32.5062 41.6674H25.0069C24.0865 41.6674 23.3404 40.9211 23.3404 40.0009V39.9693H23.3403ZM60.0035 38.0011V28.642C62.0004 29.33 63.3407 31.2095 63.3407 33.3216C63.3407 35.4336 62.0004 37.3131 60.0035 38.0011V38.0011ZM20.0072 25.0023C19.0867 25.0023 18.3407 24.256 18.3407 23.3358V20.0027C18.3509 10.803 25.806 3.34757 35.0058 3.33761H45.0049C54.2047 3.34777 61.66 10.803 61.67 20.0027V23.3358C61.67 24.2562 60.924 25.0023 60.0035 25.0023H20.0072ZM16.6741 33.3199C16.6826 31.2123 18.0177 29.3384 20.0072 28.642V38.0011C18.0167 37.3043 16.6813 35.4287 16.6741 33.3199ZM23.3403 45.3088V44.6939C23.874 44.8913 24.4378 44.995 25.0067 45.0005H32.506C34.6031 44.9958 36.577 44.009 37.8389 42.3341L39.3804 40.2792C39.5284 40.0833 39.7599 39.9681 40.0054 39.9681C40.2508 39.9681 40.4823 40.0833 40.6303 40.2792L42.1718 42.3341C43.4338 44.009 45.4076 44.9958 47.5047 45.0005H55.004C55.5731 44.995 56.1367 44.8913 56.6704 44.6939V45.3088C56.6699 46.7503 56.0473 48.1213 54.9622 49.0702L45.7964 57.0963C44.8848 57.8927 43.7156 58.3319 42.5051 58.3329H37.5056C36.2949 58.3329 35.1255 57.8934 34.2143 57.0963L25.0485 49.0702C23.9634 48.1211 23.3406 46.7501 23.3403 45.3088V45.3088ZM32.0244 59.6058C33.5421 60.9328 35.4895 61.6648 37.5056 61.6656H42.5051C44.5233 61.6654 46.4731 60.9336 47.9929 59.6058L49.6045 58.1942C49.5984 61.5542 50.2089 64.887 51.4061 68.0267C50.1845 69.2149 46.8514 71.6647 40.0054 71.6647C33.1593 71.6647 29.8162 69.2065 28.6081 68.0234C29.8063 64.884 30.4173 61.5511 30.4113 58.1909L32.0244 59.6058ZM20.0072 66.6651C20.0072 64.8243 21.4994 63.332 23.3403 63.332H26.5349C26.2638 64.5901 25.883 65.8218 25.3967 67.0133C24.3685 67.3799 22.3737 68.1199 20.0072 69.1131V66.6651ZM3.34186 94.996V93.3295C3.17879 88.1411 5.16084 83.1148 8.82144 79.4341C11.9444 75.9043 21.5787 71.9348 26.1648 70.2783C27.7014 71.8131 31.3944 74.5562 38.3387 74.9444V96.6624H18.3405V91.6629C18.3405 90.7424 17.5943 89.9964 16.6741 89.9964C15.7536 89.9964 15.0076 90.7424 15.0076 91.6629V96.6624H5.00851C4.08808 96.6624 3.34186 95.9164 3.34186 94.996V94.996ZM65.0031 96.6624V91.6629C65.0031 90.7424 64.2569 89.9964 63.3366 89.9964C62.4162 89.9964 61.6702 90.7424 61.6702 91.6629V96.6624H41.672V74.9444C48.613 74.5562 52.306 71.8146 53.8375 70.2783C58.7705 72.0142 63.522 74.2279 68.0245 76.8876C68.2245 79.2208 68.3311 81.4222 68.3311 83.5536V96.6624H65.0031ZM96.4469 67.7183C95.532 72.9499 95.048 78.2479 95.0004 83.5585V96.6624H71.6691V83.5585C71.6214 78.2477 71.1377 72.9499 70.2225 67.7183C70.0757 66.8192 70.0023 65.9097 70.0026 64.9987C70.0026 56.7277 75.9838 50 83.3348 50C90.6859 50 96.667 56.7277 96.667 64.9987C96.6672 65.9097 96.5938 66.8192 96.4469 67.7183V67.7183Z" fill="#2563EB"/>
<path fill-rule="evenodd" clip-rule="evenodd" d="M45.0049 6.67053H35.0058C34.0854 6.67053 33.3394 7.41675 33.3394 8.33698C33.3394 9.25721 34.0856 10.0034 35.0058 10.0034H45.0049C45.9253 10.0034 46.6714 9.25721 46.6714 8.33698C46.6714 7.41675 45.9253 6.67053 45.0049 6.67053V6.67053Z" fill="#2563EB"/>
</svg>
