<svg width="100" height="100" viewBox="0 0 100 100" fill="none" xmlns="http://www.w3.org/2000/svg">
<g clip-path="url(#clip0_815_1728)">
<path d="M93.3334 40.1666V38.3332C93.3334 35.5719 91.0947 33.3332 88.3334 33.3332H81.6668C78.9055 33.3332 76.6668 35.5719 76.6668 38.3332V39.9998H72.0918L56.9334 12.01C56.3074 10.826 55.0775 10.0857 53.7385 10.0867H53.7201C52.3723 10.0902 51.133 10.8264 50.4852 12.0084L45.3969 21.3668L34.75 1.92676C34.11 0.739648 32.8701 -0.000195274 31.5217 3.86611e-08H31.5C30.151 0.00605473 28.9141 0.752539 28.2801 1.94336L4 46.6666H1.6666C0.746094 46.6666 0 47.4129 0 48.3332C0 49.2539 0.746289 50 1.6666 50H20V91.6666C20.0055 96.2666 23.7332 99.9943 28.3334 100H91.6668C96.2668 99.9945 99.9945 96.2668 100 91.6666V48.3334C99.9949 44.3748 97.2107 40.9641 93.3334 40.1666V40.1666ZM80 38.3334C80 37.4129 80.7461 36.6668 81.6666 36.6668H88.3332C89.2537 36.6668 89.9998 37.4131 89.9998 38.3334V40H79.9998V38.3334H80ZM40 40H30V38.3334C30 37.4129 30.7463 36.6668 31.6666 36.6668H38.3332C39.2537 36.6668 39.9998 37.4131 39.9998 38.3334V40H40ZM36.6666 43.3334V96.6668H33.3332V43.3334H36.6666ZM40 43.3334H80V96.6668H40V43.3334ZM83.3334 43.3334H86.6668V96.6668H83.3334V43.3334ZM55.6033 40L51.3801 32.29L53.4451 30.0967C53.5051 30.0195 53.5975 29.9744 53.6951 29.9744C53.7928 29.9744 53.8852 30.0195 53.9451 30.0967L59.3934 35.5768C60.0898 36.243 61.0162 36.6148 61.9801 36.615C62.7498 36.6162 63.5006 36.376 64.1268 35.9283L65.5434 34.9283L68.3033 40H55.6033ZM53.4084 13.6117C53.4674 13.4938 53.5883 13.4195 53.7201 13.4201C53.8402 13.4184 53.95 13.4877 54.0002 13.5969L63.9502 31.9652L62.1984 33.2119C62.0576 33.3152 61.8641 33.3076 61.7318 33.1936L56.3119 27.7418C54.8395 26.3275 52.5088 26.3432 51.0553 27.7768L49.6969 29.2184L47.302 24.8451L53.4084 13.6117ZM31.2217 3.5166C31.2762 3.40195 31.3932 3.33008 31.5199 3.3332C31.6484 3.33066 31.7662 3.40469 31.8199 3.52148L43.1832 24.2682L39.9832 26.5549C39.8477 26.6473 39.6664 26.635 39.5449 26.5248L34.11 21.0748C32.6615 19.6437 30.3316 19.6437 28.8832 21.0748L23.5 26.5C23.374 26.6326 23.1699 26.6531 23.0199 26.5482L19.9217 24.3332L31.2217 3.5166ZM18.3199 27.2883L21.0682 29.2482C22.5344 30.3014 24.5463 30.1443 25.8314 28.8766L31.2332 23.4416C31.3756 23.2994 31.6045 23.2943 31.7531 23.4299L37.2014 28.8949C37.8937 29.573 38.8238 29.9535 39.793 29.9549C40.5627 29.9559 41.3127 29.7119 41.9346 29.2582L44.7979 27.2115L51.8012 39.9998H43.3328V38.3332C43.3328 35.5719 41.0941 33.3332 38.3328 33.3332H31.6662C28.9047 33.3332 26.6662 35.5719 26.6662 38.3332V40.1666C23.3959 40.8408 20.8404 43.3963 20.1662 46.6666H7.80176L18.3199 27.2883ZM23.3334 91.6666V48.3334C23.3334 45.5721 25.5721 43.3334 28.3334 43.3334H30V96.6668H28.3334C25.5719 96.6666 23.3334 94.4281 23.3334 91.6666ZM96.6666 91.6666C96.6666 94.4279 94.4279 96.6666 91.6666 96.6666H90V43.3334H91.6666C94.4279 43.3334 96.6666 45.5721 96.6666 48.3334V91.6666Z" fill="#2563EB"/>
<path d="M68.3336 66.6667H63.3336V61.6667C63.3336 59.8256 61.8412 58.3333 60.0002 58.3333H56.6668C54.8258 58.3333 53.3334 59.8256 53.3334 61.6667V66.6667H48.3334C46.4924 66.6667 45 68.159 45 70.0001V73.3335C45 75.1745 46.4924 76.6668 48.3334 76.6668H53.3334V81.6668C53.3334 83.5079 54.8258 85.0002 56.6668 85.0002H60.0002C61.8412 85.0002 63.3336 83.5079 63.3336 81.6668V76.6668H68.3336C70.1746 76.6668 71.667 75.1745 71.667 73.3335V70.0001C71.6668 68.159 70.1744 66.6667 68.3336 66.6667ZM68.3336 73.3335H61.667C60.7465 73.3335 60.0004 74.0797 60.0004 75.0001V81.6667H56.667V75.0001C56.667 74.0795 55.9207 73.3335 55.0004 73.3335H48.3338V70.0001H55.0002C55.9207 70.0001 56.6668 69.2538 56.6668 68.3335V61.6669H60.0002V68.3335C60.0002 69.254 60.7465 70.0001 61.6668 70.0001H68.3334V73.3335H68.3336Z" fill="#2563EB"/>
</g>
<defs>
<clipPath id="clip0_815_1728">
<rect width="100" height="100" fill="white"/>
</clipPath>
</defs>
</svg>
